<svg id="Layer_2" data-name="Layer 2" xmlns="http://www.w3.org/2000/svg" viewBox="0 0 311.07 311.07">
  <g>
    <path d="M619.67,267.44A29.23,29.23,0,0,0,609,256.81l-22.35-12.9A29,29,0,0,0,572.16,240H546.35a29,29,0,0,0-14.52,3.89l-22.35,12.9a29.13,29.13,0,0,0-10.63,10.63L485.94,289.8a29.14,29.14,0,0,0-3.89,14.52v25.81a29.14,29.14,0,0,0,3.89,14.52L498.85,367a29,29,0,0,0,10.63,10.63l22.35,12.91a29.14,29.14,0,0,0,14.52,3.89h25.81a29.14,29.14,0,0,0,14.52-3.89L609,377.63A29.08,29.08,0,0,0,619.67,367l12.9-22.35a29,29,0,0,0,3.89-14.52V304.32a29,29,0,0,0-3.89-14.52Z" transform="translate(-403.72 -161.69)"/>
    <path d="M708.89,265.33,679,213.58a44.14,44.14,0,0,0-16.13-16.12l-51.74-29.87a44,44,0,0,0-22-5.9H529.38a44,44,0,0,0-22,5.9l-51.74,29.87a44.14,44.14,0,0,0-16.13,16.12l-29.87,51.75a44,44,0,0,0-5.9,22V347.1a44,44,0,0,0,5.9,22l29.87,51.74A44,44,0,0,0,455.62,437l51.74,29.88a44.08,44.08,0,0,0,22,5.9h59.75a44.08,44.08,0,0,0,22-5.9L662.89,437A44,44,0,0,0,679,420.86l29.87-51.74a44,44,0,0,0,5.9-22V287.35A44,44,0,0,0,708.89,265.33Zm-42.43,64.8a59.05,59.05,0,0,1-7.91,29.52L645.65,382A59.17,59.17,0,0,1,624,403.61l-22.36,12.91a59.16,59.16,0,0,1-29.52,7.91H546.35a59.16,59.16,0,0,1-29.52-7.91l-22.35-12.91A59.12,59.12,0,0,1,472.86,382L460,359.65a59.16,59.16,0,0,1-7.91-29.52V304.32A59.05,59.05,0,0,1,460,274.8l12.9-22.36a59.19,59.19,0,0,1,21.62-21.61l22.35-12.9A59.05,59.05,0,0,1,546.35,210h25.81a59.05,59.05,0,0,1,29.52,7.91L624,230.83a59.19,59.19,0,0,1,21.62,21.61l12.9,22.36a59.05,59.05,0,0,1,7.91,29.52Z" transform="translate(-403.72 -161.69)"/>
  </g>
</svg>
