<svg id="Layer_2" data-name="Layer 2" xmlns="http://www.w3.org/2000/svg" viewBox="0 0 533.32 540.11">
  <defs>
    <style>
      .cls-1 {
        fill: #6b6b6b;
      }
    </style>
  </defs>
  <g>
    <path class="cls-1" d="M667.46,216.41a13.6,13.6,0,0,0-8.93-7.79L540.16,176a13.57,13.57,0,0,0-11.65,2.12l-99.3,72.21a13.6,13.6,0,0,0-5.61,10.44h0l-5.45,122.65a13.58,13.58,0,0,0,4.67,10.89l92.5,80.74a13.55,13.55,0,0,0,11.42,3.15l120.79-22a13.59,13.59,0,0,0,9.58-7l58.13-108.15a13.58,13.58,0,0,0,.53-11.83Z" transform="translate(-304.51 -56.1)"/>
    <path class="cls-1" d="M834.07,320.25l-78.32-183a46.64,46.64,0,0,0-30.5-26.62L533.36,57.78A46.66,46.66,0,0,0,493.53,65l-161,117.07a46.62,46.62,0,0,0-19.17,35.66L304.55,416.6a46.67,46.67,0,0,0,15.93,37.22l150,130.89a46.68,46.68,0,0,0,39,10.75L705.3,559.82A46.67,46.67,0,0,0,738,536l94.23-175.32A46.67,46.67,0,0,0,834.07,320.25Zm-60.69,52.12L715.25,480.52a79.26,79.26,0,0,1-55.91,40.65l-120.79,22a81,81,0,0,1-14.41,1.31,79.21,79.21,0,0,1-52.23-19.67l-92.49-80.73a79.25,79.25,0,0,1-27.2-63.55l5.45-122.65A79.22,79.22,0,0,1,390.39,197l99.3-72.22a79.22,79.22,0,0,1,68-12.37L676.06,145a79.26,79.26,0,0,1,52.07,45.45l48.31,112.88A79.25,79.25,0,0,1,773.38,372.37Z" transform="translate(-304.51 -56.1)"/>
  </g>
</svg>
