<svg id="Layer_2" data-name="Layer 2" xmlns="http://www.w3.org/2000/svg" viewBox="0 0 383.76 387.94">
  <defs>
    <style>
      .cls-1 {
        fill: #494949;
      }
    </style>
  </defs>
  <g>
    <path class="cls-1" d="M640.25,278.19,611,243.67a24.87,24.87,0,0,0-14.75-8.4l-44.63-7.62a24.25,24.25,0,0,0-4.16-.35,24.9,24.9,0,0,0-12.54,3.39L495.8,253.54A24.85,24.85,0,0,0,485,266.6l-15.25,42.63a24.84,24.84,0,0,0,.09,17l15.71,42.45a25,25,0,0,0,11,12.95L535.83,404a24.83,24.83,0,0,0,16.73,2.85l44.54-8.1a24.87,24.87,0,0,0,14.66-8.57l28.91-34.84a24.87,24.87,0,0,0,5.72-16l-.25-45.26A24.87,24.87,0,0,0,640.25,278.19Z" transform="translate(-363.02 -123.39)"/>
    <path class="cls-1" d="M746.23,265.27A47.32,47.32,0,0,0,735,234.91l-65.9-77.67a47.32,47.32,0,0,0-28.12-16L540.56,124.07a47.37,47.37,0,0,0-31.85,5.79l-87.93,51.42a47.28,47.28,0,0,0-20.68,24.91l-34.31,95.9a47.27,47.27,0,0,0,.18,32.37L401.33,430a47.3,47.3,0,0,0,20.94,24.68l88.49,50.45a47.35,47.35,0,0,0,31.91,5.45l100.22-18.24A47.3,47.3,0,0,0,670.83,476l65-78.39a47.29,47.29,0,0,0,10.9-30.48ZM675.3,384.11,646.39,419a69.9,69.9,0,0,1-41.23,24.1l-44.54,8.11a70,70,0,0,1-47.08-8L474.21,420.7a70,70,0,0,1-30.9-36.42L427.6,341.83a69.87,69.87,0,0,1-.26-47.76l15.25-42.63a69.9,69.9,0,0,1,30.5-36.75l39.08-22.85a69.91,69.91,0,0,1,47-8.55l44.62,7.62a69.92,69.92,0,0,1,41.49,23.65l29.29,34.52a69.93,69.93,0,0,1,16.58,44.79l.25,45.27A70,70,0,0,1,675.3,384.11Z" transform="translate(-363.02 -123.39)"/>
  </g>
</svg>
