<svg id="Layer_2" data-name="Layer 2" xmlns="http://www.w3.org/2000/svg" viewBox="0 0 95.7 95.7">
  <g>
    <path d="M590.11,305.42a6.16,6.16,0,0,0-3-3.68l-13.63-7.32a6.11,6.11,0,0,0-4.73-.48l-14.82,4.45a6.19,6.19,0,0,0-3.68,3L542.92,315a6.14,6.14,0,0,0-.48,4.73l4.45,14.82a6.19,6.19,0,0,0,3,3.68l13.63,7.32a6.14,6.14,0,0,0,4.73.48l14.82-4.45a6.19,6.19,0,0,0,3.68-3L594.08,325a6.14,6.14,0,0,0,.48-4.73Z" transform="translate(-520.65 -272.15)"/>
    <path d="M615.89,320.66l-8.22-27.36a10.75,10.75,0,0,0-5.19-6.35l-25.16-13.52a10.69,10.69,0,0,0-8.16-.82l-27.36,8.22a10.75,10.75,0,0,0-6.35,5.19l-13.52,25.16a10.69,10.69,0,0,0-.82,8.16l8.22,27.36a10.75,10.75,0,0,0,5.19,6.35l25.16,13.52a10.69,10.69,0,0,0,8.16.82l27.36-8.22a10.75,10.75,0,0,0,6.35-5.19l13.52-25.16A10.69,10.69,0,0,0,615.89,320.66ZM602,329.23l-7.32,13.63a15.13,15.13,0,0,1-9,7.36l-14.81,4.46a15.15,15.15,0,0,1-11.59-1.17l-13.63-7.32a15.13,15.13,0,0,1-7.36-9l-4.46-14.81A15.1,15.1,0,0,1,535,310.77l7.32-13.63a15.13,15.13,0,0,1,9-7.36l14.81-4.46a15.1,15.1,0,0,1,11.59,1.17l13.63,7.32a15.13,15.13,0,0,1,7.36,9l4.46,14.81A15.1,15.1,0,0,1,602,329.23Z" transform="translate(-520.65 -272.15)"/>
  </g>
</svg>
