<svg xmlns="http://www.w3.org/2000/svg" viewBox="0 0 1137 640">
  <defs>
    <style>
      .cls-1 {
        opacity: 0;
      }

      .cls-2 {
        fill: #686868;
      }

      .cls-3 {
        fill: #c6c6c6;
      }

      .cls-4 {
        fill: #9b9b9b;
      }
    </style>
  </defs>
  <g id="Layer_1" data-name="Layer 1">
    <g class="cls-1">
      <path d="M1136.75.25v639.5H.25V.25h1136.5M1137,0H0V640H1137V0Z"/>
    </g>
    <g id="g30">
      <path id="path32" class="cls-2" d="M1036,412.09c-19.34,13.49-22.45,28.16-23,32.23-3.06,1.8-5.92,3.41-8.52,4.82,4.09-6.81,8-13.77,11.52-20.86a314.17,314.17,0,0,0,15.37-37.3c.47-1.4.94-2.79,1.4-4.2a103.12,103.12,0,0,1,14.67-29.3c.44-.58.87-1.18,1.29-1.78v0c54.14-29.66,29.3-90.08,29.3-90.08.81,13.34-12.06,23.52-25.31,47.86-11.25,20.7-7.48,35.22-6.11,39.09-2.76,4.26-5.35,8-7.59,11.12.9-3.9,1.7-7.8,2.46-11.7a279.76,279.76,0,0,0,4.66-39.94l.2-5c.1-1.65.16-3.33.13-5V292c-.08-3.35-.29-6.7-.43-10-.1-1.67-.11-3.35-.27-5l-.46-5h0a34.27,34.27,0,0,1,.54-9.9l3.87-19.11v0c39.47-47.47-5.83-94.55-5.83-94.55,5.65,12.11-2.57,26.32-6,53.81-2.88,23.38,6,35.51,8.67,38.6-1.12,5.55-2.26,10.38-3.29,14.33l-.44-3.12c-.39-3.31-1.15-6.56-1.75-9.85l-1-4.91c-.31-1.64-.63-3.28-1.06-4.89-1.61-6.49-3.08-13-5.14-19.35l-1.46-4.78-.72-2.4-.84-2.35-3.36-9.41c-2.13-5.48-4.36-10.91-6.75-16.27a87.26,87.26,0,0,1-7.51-30.44c-.16-2.43-.33-4.83-.59-7.18h0c21.24-57.94-37.23-87.09-37.23-87.09,9.39,9.5,6.41,25.66,12.44,52.69,5.16,23,17.57,31.44,21.14,33.44,1.14,7.86,1.74,14.46,2.07,19.07-.09-.17-.17-.33-.27-.5l-2.37-4.39c-.77-1.45-1.7-2.86-2.54-4.28l-5.16-8.54-5.56-8.28c-.95-1.35-1.83-2.76-2.81-4.1l-3-4c-3.08-4.26-6.31-8.38-9.68-12.41h0c-4.67-5.92-11.07-14.47-16.64-20.66a40.08,40.08,0,0,1-6.57-9.6c-24.33-51.29-83.75-36.87-83.75-36.87,13.34.85,21.84,14.89,44.34,31.06,17.78,12.77,31.88,12,37,11.11.61.21,1.36.44,2,.65l6.8,7.12a283.13,283.13,0,0,1,24.82,30.8l2.86,4c.92,1.36,1.79,2.78,2.67,4.15l5.31,8.34,2.24,3.93a170.78,170.78,0,0,0-17.75-13.17h0c-32-52.75-91.3-25.23-91.3-25.23,13.3-1.4,24.05,11,48.93,23.13C962,141,976.38,136.57,980.18,135c8.48,5,15.52,9.84,19.61,12.78a19.9,19.9,0,0,1,6.19,7v.05l2.23,4.41a280.87,280.87,0,0,1,15.55,36.22l3.08,9.36.77,2.34.65,2.37,1.29,4.75c1.88,6.3,3.18,12.74,4.58,19.13.4,1.6.65,3.23.92,4.84v.09a169.3,169.3,0,0,0-12.48-16.85v0c-15.2-59.83-79.93-50.84-79.93-50.84,13.14,2.54,19.79,17.56,40.05,36.44,17.24,16.07,32.24,16,36.33,15.66,4.64,5,8.45,9.57,11.26,13.08a32,32,0,0,1,7,16.88v.09l1.12,9.76.27,2.44.16,2.45.33,4.91.31,4.9c.13,1.62.1,3.27.15,4.91.06,3.27.17,6.53.15,9.8l-.23,9.81c0,1.64-.11,3.27-.22,4.89l-.35,4.9c-.54,7.06-1.28,14.11-2.31,21.11a174,174,0,0,0-4.86-16.75h0c7.15-61.29-56.5-76-56.5-76,11.36,7.06,12.21,23.45,24.38,48.33,10.38,21.16,24.41,26.48,28.36,27.6,1.52,3.82,2.83,7.34,3.92,10.47a43.67,43.67,0,0,1,1.51,23.86.83.83,0,0,1,0,.12A278.8,278.8,0,0,1,1022.73,388,304.06,304.06,0,0,1,1007,423.64c-1.78,3.34-3.65,6.63-5.57,9.9a166.93,166.93,0,0,0,2-20v0c29.12-54.43-24.73-91.44-24.73-91.44,8,10.74,2.78,26.29,5,53.91,1.9,23.49,13,33.58,16.27,36.06v2.65a72.63,72.63,0,0,1-13.33,41.75.8.8,0,0,1-.13.19,277.49,277.49,0,0,1-24.77,29.95c-2.26,2.33-4.39,4.76-6.77,7l-7,6.72c-.1-.09-.08-.06-.19-.15,2.14-3.79,4-7.57,5.79-11.28v0c47.94-38.88,12.65-93.87,12.65-93.87,3.19,13-7.64,25.31-16.3,51.63-7.36,22.39-1,36,1,39.55-1.42,3.38-2.78,6.49-4.05,9.24a46.7,46.7,0,0,1-13.57,17.4.2.2,0,0,1-.09.06,273.44,273.44,0,0,1-31.77,22.14q-9.71,5.73-19.83,10.75c2.82-2.89,5.41-5.79,7.8-8.71h0c45.91-21.17,29-72,29-72-.08,11-11.18,18.56-23.35,37.69-10.37,16.3-8.12,28.38-7.2,31.61-1.5,2-2.92,3.83-4.26,5.48A42.48,42.48,0,0,1,867,552.61l-.1,0a307,307,0,0,1-36.47,12.62l-.14,0,0,0a8.06,8.06,0,0,0-5.93,7.43A8.19,8.19,0,0,0,834.9,581a322.17,322.17,0,0,0,38.16-14.32,302.48,302.48,0,0,0,35.78-19.38c6.92-4.31,13.61-9,20.09-13.92a58.4,58.4,0,0,1,30.42-11.66l0,0C1017,543.81,1047,485.77,1047,485.77c-9.65,9.27-25.74,6-52.86,11.67-23.07,4.8-31.71,17.06-33.76,20.62-5.54.71-10.45,1.17-14.5,1.47,3.67-3.23,7.22-6.59,10.79-9.9l7.14-7.22c2.41-2.35,4.57-5,6.88-7.44a288,288,0,0,0,25-31.83c.16-.22.32-.46.46-.68a38.59,38.59,0,0,1,14.61-12.93l2.84-1.48h0c61.67-2.3,66.46-67.47,66.46-67.47-5.23,12.3-21.3,15.65-44,31.5"/>
    </g>
    <g id="g34">
      <path id="path36" class="cls-2" d="M108.22,420c19.33,13.5,22.45,28.17,22.95,32.24,3.06,1.81,5.91,3.41,8.53,4.83q-6.15-10.23-11.53-20.87a316,316,0,0,1-15.37-37.31c-.48-1.38-1-2.79-1.39-4.19a103,103,0,0,0-14.68-29.3c-.44-.6-.86-1.19-1.28-1.78v0c-54.14-29.64-29.3-90.08-29.3-90.08-.82,13.35,12,23.54,25.29,47.86,11.26,20.7,7.48,35.22,6.11,39.1,2.77,4.27,5.37,8,7.6,11.11-.88-3.89-1.71-7.79-2.46-11.7A279.45,279.45,0,0,1,98,320l-.21-5c-.09-1.66-.15-3.33-.12-5V299.93c.08-3.34.29-6.69.43-10,.1-1.68.12-3.35.27-5l.46-5h0a33.53,33.53,0,0,0-.54-9.89l-3.87-19.1h0c-39.46-47.45,5.83-94.54,5.83-94.54-5.65,12.12,2.58,26.33,6,53.82,2.86,23.38-6,35.51-8.69,38.6,1.13,5.55,2.29,10.39,3.31,14.32l.43-3.1c.39-3.32,1.16-6.58,1.77-9.87l.93-4.91c.32-1.64.63-3.27,1.06-4.89,1.61-6.48,3.09-13,5.15-19.34l1.45-4.78.73-2.4.82-2.35,3.38-9.41c2.13-5.47,4.34-10.92,6.74-16.27a87.12,87.12,0,0,0,7.53-30.43c.13-2.44.33-4.85.55-7.19h0c-21.24-57.94,37.23-87.09,37.23-87.09-9.39,9.52-6.41,25.65-12.45,52.69-5.16,23-17.54,31.43-21.13,33.44-1.13,7.85-1.75,14.46-2.06,19.07.09-.16.16-.33.25-.49l2.39-4.41c.77-1.46,1.69-2.85,2.53-4.28l5.16-8.53,5.58-8.27c.93-1.37,1.83-2.77,2.78-4.11l3-4q4.62-6.37,9.67-12.41h0c4.67-5.92,11.08-14.47,16.63-20.66a39.57,39.57,0,0,0,6.58-9.62c24.33-51.28,83.74-36.86,83.74-36.86C258,53.51,249.46,67.54,227,83.71c-17.78,12.77-31.87,12-37,11.13l-2,.63-6.81,7.12a285.3,285.3,0,0,0-24.82,30.8l-2.87,4c-.92,1.36-1.78,2.76-2.68,4.15l-5.29,8.34-2.23,3.93A164.85,164.85,0,0,1,161,140.68h0c32-52.76,91.3-25.24,91.3-25.24-13.3-1.4-24,11-48.94,23.13-21.19,10.33-35.51,5.89-39.33,4.36-8.49,5-15.54,9.83-19.61,12.77a20,20,0,0,0-6.19,7,.43.43,0,0,1,0,.05L136,167.23a281.47,281.47,0,0,0-15.55,36.22l-3.07,9.35-.79,2.35-.63,2.36-1.31,4.75c-1.87,6.31-3.14,12.75-4.57,19.14-.39,1.6-.65,3.23-.92,4.84l0,.09a168.46,168.46,0,0,1,12.5-16.84h0c15.2-59.83,79.91-50.84,79.91-50.84-13.13,2.53-19.76,17.55-40,36.43-17.25,16.07-32.25,16-36.34,15.66-4.64,5.05-8.44,9.58-11.25,13.08a31.63,31.63,0,0,0-7,16.88.15.15,0,0,0,0,.09l-1.13,9.78-.27,2.44-.17,2.44-.31,4.9-.32,4.9c-.1,1.63-.09,3.27-.15,4.92,0,3.27-.17,6.53-.15,9.8l.23,9.81c0,1.63.12,3.26.24,4.89l.33,4.9c.54,7.06,1.28,14.1,2.31,21.11a170.33,170.33,0,0,1,4.87-16.75h0c-7.15-61.31,56.51-76,56.51-76-11.36,7.06-12.19,23.45-24.38,48.33-10.37,21.15-24.41,26.48-28.34,27.61-1.53,3.81-2.84,7.33-3.92,10.45a43.42,43.42,0,0,0-1.51,23.87s0,.09,0,.12a282.08,282.08,0,0,0,10.77,37.56,308.37,308.37,0,0,0,15.77,35.67c1.81,3.35,3.66,6.64,5.58,9.91a166.81,166.81,0,0,1-2-19.95h0c-29.11-54.41,24.72-91.43,24.72-91.43-8,10.74-2.76,26.3-5,53.9-1.9,23.5-13,33.58-16.25,36.07,0,.91,0,1.78,0,2.66a72.88,72.88,0,0,0,13.31,41.75,2.2,2.2,0,0,0,.14.18,277.51,277.51,0,0,0,24.76,30c2.26,2.31,4.4,4.75,6.78,6.95l7,6.73c.1-.09.09-.06.19-.15-2.14-3.8-4.05-7.56-5.79-11.28v0C142.78,458,178.08,403,178.08,403c-3.21,13,7.63,25.32,16.27,51.63,7.37,22.39,1.05,36-1,39.55,1.42,3.39,2.79,6.48,4.06,9.24A46.63,46.63,0,0,0,211,520.83a.26.26,0,0,1,.09.06A276.14,276.14,0,0,0,242.84,543q9.71,5.75,19.81,10.75c-2.79-2.88-5.41-5.79-7.79-8.7h0c-45.91-21.17-29-72-29-72,.08,11,11.19,18.56,23.36,37.69,10.37,16.29,8.11,28.37,7.21,31.61,1.49,2,2.91,3.81,4.25,5.49a42.57,42.57,0,0,0,16.49,12.62l.11,0a305,305,0,0,0,36.46,12.62l.15,0,0,0a8.05,8.05,0,0,1,5.91,7.43,8.19,8.19,0,0,1-10.54,8.21,324.1,324.1,0,0,1-38.16-14.31,304.88,304.88,0,0,1-35.78-19.4c-6.93-4.31-13.6-9-20.09-13.93a58.51,58.51,0,0,0-30.41-11.64l0,0c-57.63,22.12-87.67-35.92-87.67-35.92,9.67,9.26,25.76,6,52.88,11.66,23.07,4.81,31.7,17.06,33.76,20.62,5.55.71,10.47,1.18,14.49,1.48-3.66-3.23-7.22-6.59-10.79-9.91l-7.12-7.2c-2.43-2.37-4.58-5-6.89-7.44a290.06,290.06,0,0,1-25-31.84c-.15-.23-.32-.46-.45-.68a38.71,38.71,0,0,0-14.61-12.92l-2.85-1.5v0C69,453.67,64.21,388.5,64.21,388.5c5.23,12.31,21.3,15.65,44,31.5"/>
    </g>
  </g>
  <g id="Layer_2" data-name="Layer 2">
    <path class="cls-3" d="M804.52,12.62H344.35a9.8,9.8,0,0,0-7.79,3.85L109.12,314a9.84,9.84,0,0,0,0,11.92L336.56,623.53a9.8,9.8,0,0,0,7.79,3.85H804.52a9.81,9.81,0,0,0,7.79-3.85L1039.74,326a9.81,9.81,0,0,0,0-11.92L812.31,16.47A9.81,9.81,0,0,0,804.52,12.62Z"/>
    <path class="cls-4" d="M727.84,22.49H421a149.66,149.66,0,0,0-118.9,58.78l-113,147.86a149.64,149.64,0,0,0,0,181.74l113,147.86A149.66,149.66,0,0,0,421,617.51H727.84a149.69,149.69,0,0,0,118.9-58.78l113-147.86a149.64,149.64,0,0,0,0-181.74l-113-147.86A149.69,149.69,0,0,0,727.84,22.49Z"/>
  </g>
</svg>
