<?xml version="1.0" encoding="utf-8"?>
<!-- Generator: Adobe Illustrator 25.3.0, SVG Export Plug-In . SVG Version: 6.00 Build 0)  -->
<svg version="1.1" id="Layer_2" xmlns="http://www.w3.org/2000/svg" xmlns:xlink="http://www.w3.org/1999/xlink" x="0px" y="0px"
	 viewBox="0 0 500 500" style="enable-background:new 0 0 500 500;" xml:space="preserve">
<g>
	<path d="M195.2,243.86c-0.1,0.12-0.17,0.24-0.22,0.36C195.03,244.1,195.1,243.97,195.2,243.86z"/>
	<path d="M196.66,245.63c0.76-0.45,1.53-0.88,2.29-1.29C198.19,244.76,197.43,245.18,196.66,245.63z"/>
	<path d="M196.28,245.78c0.13-0.03,0.26-0.07,0.39-0.14C196.53,245.71,196.41,245.75,196.28,245.78z"/>
	<path d="M195.52,245.66c0.08,0.05,0.17,0.08,0.26,0.11C195.69,245.74,195.6,245.71,195.52,245.66z"/>
	<path d="M196.17,245.79c-0.09,0.01-0.18,0.01-0.27-0.01c0.05,0.01,0.1,0.02,0.15,0.02C196.09,245.81,196.13,245.8,196.17,245.79z"
		/>
	<path d="M195.45,245.63c-0.1-0.07-0.19-0.15-0.27-0.24C195.26,245.48,195.35,245.56,195.45,245.63z"/>
	<path d="M194.99,245.08c0.04,0.08,0.08,0.16,0.13,0.23C195.07,245.24,195.03,245.16,194.99,245.08z"/>
	<path d="M194.91,244.73c0.01,0.08,0.02,0.16,0.05,0.23C194.93,244.89,194.91,244.81,194.91,244.73z"/>
	<path d="M221.71,236.89c1.34-0.2,2.63-0.36,3.88-0.49C224.34,236.52,223.04,236.68,221.71,236.89z"/>
	<path d="M230.79,199.88l-5.22-5.22c-4.77,1.37-9.99,3.07-15.37,5.17c4.76,1.26,10.27,2.96,15.97,5.19L230.79,199.88z"/>
	<path d="M226.01,236.36c0.61-0.06,1.21-0.11,1.79-0.15C227.22,236.25,226.62,236.3,226.01,236.36z"/>
	<path d="M199.48,244.06c0.75-0.4,1.5-0.78,2.26-1.14C200.99,243.28,200.24,243.67,199.48,244.06z"/>
	<path d="M217.09,237.73c0.65-0.14,1.3-0.27,1.93-0.39C218.39,237.46,217.74,237.59,217.09,237.73z"/>
	<path d="M219.22,237.3c0.69-0.13,1.36-0.24,2.03-0.35C220.58,237.06,219.91,237.17,219.22,237.3z"/>
	<path d="M228,236.2c0.54-0.04,1.06-0.07,1.57-0.09C229.06,236.13,228.54,236.16,228,236.2z"/>
	<path d="M203.34,242.18c-0.45,0.2-0.9,0.41-1.35,0.63c0.46-0.22,0.91-0.41,1.36-0.61L203.34,242.18z"/>
	<path d="M215.43,238.11c0.01,0,0.01,0,0.02,0c0.4-0.09,0.8-0.19,1.19-0.28C216.23,237.92,215.83,238.01,215.43,238.11z"/>
	<path d="M191.63,203.33c0,0.08,0.02,0.16,0.04,0.23C191.65,203.49,191.64,203.41,191.63,203.33z"/>
	<path d="M239.13,287.39c-0.08,0-0.16,0-0.25,0.01C238.97,287.39,239.05,287.39,239.13,287.39z"/>
	<path d="M240.07,287.51c0.01,0.01,0.04,0.02,0.04,0.03C240.1,287.53,240.08,287.52,240.07,287.51z"/>
	<path d="M239.84,287.42c0.04,0.01,0.08,0.01,0.11,0.02C239.92,287.44,239.88,287.43,239.84,287.42z"/>
	<path d="M239.44,287.39c0.06,0,0.13,0,0.18,0.01C239.57,287.39,239.51,287.39,239.44,287.39z"/>
	<path d="M209.96,159.61c1.32-0.76,2.63-1.49,3.91-2.19C212.59,158.12,211.28,158.85,209.96,159.61z"/>
	<path d="M194.9,244.59c0-0.08,0.02-0.17,0.04-0.25C194.92,244.43,194.9,244.51,194.9,244.59z"/>
	<path d="M230.66,236.06L230.66,236.06c-0.24,0.01-0.48,0.01-0.72,0.02C230.19,236.08,230.43,236.07,230.66,236.06z"/>
	<path d="M191.63,203.19c0.01-0.08,0.03-0.17,0.06-0.25C191.66,203.02,191.64,203.11,191.63,203.19z"/>
	<path d="M191.71,203.69c0.03,0.08,0.07,0.15,0.12,0.22C191.78,203.84,191.74,203.77,191.71,203.69z"/>
	<path d="M234.16,239.94l-0.84-0.93c-2.99,0-6.47,0.19-10.25,0.71c2.68,0.74,5.44,1.72,8.23,2.98L234.16,239.94z"/>
	<path d="M203.73,163.3L203.73,163.3c0.74-0.45,1.47-0.9,2.2-1.34C205.2,162.4,204.47,162.85,203.73,163.3z"/>
	<path d="M192.97,204.44c0.13-0.02,0.26-0.06,0.39-0.13C193.23,204.38,193.09,204.41,192.97,204.44z"/>
	<path d="M192.87,204.45c-0.1,0.01-0.19,0-0.28-0.02c0.06,0.01,0.12,0.03,0.19,0.03C192.81,204.46,192.84,204.45,192.87,204.45z"/>
	<path d="M191.97,202.47c-0.11,0.11-0.19,0.23-0.24,0.35C191.79,202.7,191.86,202.58,191.97,202.47z"/>
	<path d="M192.15,204.26c0.1,0.07,0.21,0.12,0.33,0.15C192.36,204.38,192.25,204.33,192.15,204.26z"/>
	<path d="M225.13,165.07l-5.78-7.16c-3.86,2.01-7.94,4.28-12.19,6.82c3.71,1.6,7.87,3.55,12.38,5.92L225.13,165.07z"/>
	<path d="M192.14,204.25c-0.1-0.07-0.18-0.15-0.25-0.24C191.96,204.1,192.04,204.18,192.14,204.25z"/>
	<path d="M238.17,287.44c0.11-0.01,0.21-0.02,0.31-0.02C238.37,287.43,238.27,287.44,238.17,287.44z"/>
	<path d="M178.46,348.34c0.47-0.13,0.96-0.25,1.45-0.38C179.41,348.09,178.93,348.22,178.46,348.34z"/>
	<path d="M182.24,347.36c0.47-0.12,0.95-0.24,1.43-0.36C183.18,347.11,182.71,347.24,182.24,347.36z"/>
	<path d="M180.12,347.9c0.55-0.14,1.12-0.29,1.69-0.44C181.24,347.61,180.67,347.76,180.12,347.9z"/>
	<path d="M186.28,346.33c0.49-0.12,0.97-0.24,1.47-0.36C187.25,346.09,186.76,346.21,186.28,346.33z"/>
	<path d="M184.08,346.89c0.59-0.15,1.18-0.3,1.78-0.45C185.26,346.59,184.67,346.74,184.08,346.89z"/>
	<path d="M192.65,344.79c0.55-0.13,1.11-0.26,1.67-0.39C193.76,344.53,193.2,344.66,192.65,344.79z"/>
	<path d="M190.27,345.36c0.61-0.15,1.23-0.29,1.85-0.44C191.5,345.06,190.88,345.21,190.27,345.36z"/>
	<path d="M188.29,345.84c0.63-0.15,1.26-0.31,1.89-0.46C189.54,345.53,188.91,345.69,188.29,345.84z"/>
	<path d="M170.68,327.1c0,5.58-0.4,11.12-1.1,16.59l52.67-44.78l-4.62-3.93c-12.74,3.48-30.32,9.15-51,17.81l-14.85,6.21
		l11.61-11.14l54.19-52l-11.89-11.41c-2.49,1.06-5,2.3-7.49,3.78c-0.66,0.39-1.4,0.6-2.14,0.6c-1.64,0-3.13-0.98-3.81-2.5
		c-0.67-1.51-0.4-3.22,0.72-4.46l21.45-23.81l-13.01-14.44c-2.22,1.04-4.43,2.15-6.62,3.35c-0.62,0.34-1.32,0.52-2.02,0.52
		c-1.68,0-3.19-1.02-3.84-2.6c-0.64-1.55-0.28-3.32,0.91-4.52l20.7-20.7l-10.7-10.7c-0.26,0.05-0.52,0.09-0.78,0.09
		c-1.59,0-3.07-0.94-3.77-2.4c-0.39-0.82-0.49-1.71-0.32-2.56l-3.02-3.02c-0.71-0.71,0-1.91,0.96-1.61
		c1.12,0.34,2.51,0.79,4.09,1.34l12.32-15.26l-25.81-31.96l0-0.31l-0.13,0.16l-0.13-0.16l0,0.32l-51.79,64.12
		c-0.69,0.86,0.36,2.01,1.28,1.42c18.71-12.02,34.36-17.6,41.11-19.66c0.97-0.3,1.68,0.9,0.96,1.61l-48.5,48.5
		c-0.79,0.79,0.17,2.07,1.15,1.53c16.31-8.91,34.65-12.8,41.45-14.02c0.91-0.16,1.5,0.92,0.88,1.6l-40.8,45.29
		c-0.74,0.83,0.26,2.04,1.22,1.48c14.68-8.71,30.15-8.28,35.62-7.78c0.83,0.08,1.18,1.09,0.58,1.66l-62.13,59.62
		c36.45-15.25,62.99-19.99,62.03-18.57l-59.83,50.86c-0.79,0.67-0.11,1.95,0.89,1.67C122.31,328.69,170.68,315.89,170.68,327.1z"/>
	<path d="M194.66,344.33c0.65-0.15,1.31-0.3,1.97-0.45C195.97,344.03,195.31,344.18,194.66,344.33z"/>
	<path d="M170.61,350.47c0.32-0.09,0.65-0.18,0.99-0.28C171.26,350.29,170.93,350.38,170.61,350.47z"/>
	<path d="M176.66,348.82c0.45-0.12,0.91-0.24,1.38-0.37C177.57,348.58,177.11,348.7,176.66,348.82z"/>
	<path d="M197.64,346.72c-11.11,2.5-21.49,5.31-27.63,7.04c-0.38,0.11-0.77,0.16-1.15,0.16c-0.32,0-0.63-0.05-0.93-0.12
		c-1.51,7.58-3.54,14.94-5.87,21.91c-0.21,0.63,0.25,1.27,0.92,1.27h18.95h0.04h21.87c0.66,0,1.13-0.64,0.92-1.27
		C201.69,366.59,199.15,356.81,197.64,346.72z"/>
	<path d="M197.22,343.74c-0.02,0.01-0.04,0.01-0.07,0.02C197.18,343.75,197.2,343.75,197.22,343.74
		C197.22,343.74,197.22,343.74,197.22,343.74z"/>
	<path d="M175,349.27c0.48-0.13,0.96-0.26,1.46-0.39C175.96,349.01,175.47,349.14,175,349.27z"/>
	<path d="M173.54,349.66c0.34-0.09,0.68-0.19,1.03-0.28C174.22,349.48,173.87,349.57,173.54,349.66z"/>
	<path d="M171.88,350.12c0.41-0.11,0.83-0.23,1.27-0.35C172.71,349.89,172.29,350.01,171.88,350.12z"/>
	<path d="M169.34,308.41c0.42-0.17,0.84-0.34,1.26-0.51C170.18,308.08,169.76,308.24,169.34,308.41z"/>
	<path d="M180.58,304c0.5-0.19,1-0.38,1.49-0.56C181.57,303.62,181.08,303.81,180.58,304z"/>
	<path d="M237.29,287.54c0.12-0.01,0.23-0.03,0.35-0.04C237.53,287.51,237.42,287.52,237.29,287.54z"/>
	<path d="M184.19,302.65c0.48-0.18,0.97-0.36,1.45-0.53C185.16,302.29,184.68,302.47,184.19,302.65z"/>
	<path d="M173.15,306.88c0.49-0.2,0.98-0.39,1.47-0.58C174.13,306.49,173.64,306.68,173.15,306.88z"/>
	<path d="M176.89,305.41c0.51-0.2,1.01-0.39,1.51-0.58C177.9,305.02,177.4,305.21,176.89,305.41z"/>
	<path d="M199.01,297.47c0.33-0.11,0.65-0.21,0.97-0.32C199.66,297.26,199.34,297.36,199.01,297.47z"/>
	<path d="M187.79,301.33c0.44-0.16,0.88-0.32,1.32-0.47C188.67,301.02,188.23,301.18,187.79,301.33z"/>
	<path d="M191.44,300.04c0.35-0.12,0.7-0.25,1.05-0.37C192.15,299.79,191.79,299.92,191.44,300.04z"/>
	<path d="M205.16,295.5c0.38-0.12,0.76-0.24,1.14-0.35C205.93,295.27,205.55,295.38,205.16,295.5z"/>
	<path d="M168.48,350.84c0,0,0,0.01,0,0.01c0.05,0.02,0.11,0.02,0.17,0.04C168.59,350.88,168.53,350.86,168.48,350.84z"/>
	<path d="M169.19,350.87c0.36-0.1,0.74-0.21,1.12-0.32C169.93,350.66,169.55,350.77,169.19,350.87z"/>
	<path d="M202.13,296.46c0.38-0.12,0.75-0.24,1.13-0.36C202.88,296.22,202.51,296.34,202.13,296.46z"/>
	<path d="M213.74,292.95c0.31-0.09,0.62-0.18,0.92-0.26C214.36,292.77,214.05,292.86,213.74,292.95z"/>
	<path d="M210.96,293.75c0.35-0.1,0.7-0.21,1.05-0.31C211.66,293.54,211.31,293.65,210.96,293.75z"/>
	<path d="M169.19,350.87c-0.14,0.04-0.26,0.05-0.39,0.04c0.02,0,0.03,0.01,0.05,0.01C168.96,350.92,169.07,350.9,169.19,350.87z"/>
	<path d="M208.11,294.6c0.37-0.11,0.74-0.22,1.1-0.33C208.85,294.38,208.48,294.49,208.11,294.6z"/>
</g>
<g>
	<path d="M328.99,344.31c0.46,0.11,0.91,0.21,1.36,0.32C329.9,344.52,329.45,344.42,328.99,344.31z"/>
	<path d="M337.3,346.31c0.57,0.14,1.13,0.28,1.68,0.42C338.42,346.59,337.86,346.45,337.3,346.31z"/>
	<path d="M331.08,344.8c0.5,0.12,1,0.24,1.49,0.35C332.08,345.04,331.58,344.92,331.08,344.8z"/>
	<path d="M339.57,346.88c0.41,0.1,0.81,0.21,1.21,0.31C340.37,347.09,339.97,346.99,339.57,346.88z"/>
	<path d="M333.16,345.3c0.54,0.13,1.07,0.26,1.6,0.39C334.24,345.56,333.7,345.43,333.16,345.3z"/>
	<path d="M335.43,345.85c0.43,0.11,0.85,0.21,1.28,0.32C336.29,346.06,335.86,345.95,335.43,345.85z"/>
	<path d="M346.68,348.74c0.48,0.13,0.95,0.26,1.42,0.38C347.63,349,347.16,348.87,346.68,348.74z"/>
	<path d="M345.14,348.33c0.41,0.11,0.81,0.22,1.21,0.32C345.95,348.55,345.55,348.44,345.14,348.33z"/>
	<path d="M343.37,347.86c0.41,0.11,0.82,0.21,1.22,0.32C344.19,348.08,343.78,347.97,343.37,347.86z"/>
	<path d="M341.36,347.34c0.53,0.14,1.06,0.28,1.58,0.41C342.43,347.62,341.9,347.48,341.36,347.34z"/>
	<path d="M310.32,291.53c0.74,0.18,1.48,0.37,2.24,0.57C311.8,291.9,311.06,291.71,310.32,291.53z"/>
	<path d="M318,293.6c0.77,0.22,1.54,0.45,2.32,0.68C319.54,294.04,318.76,293.82,318,293.6z"/>
	<path d="M315.26,292.82c0.76,0.21,1.52,0.42,2.3,0.64C316.78,293.25,316.01,293.03,315.26,292.82z"/>
	<path d="M285.28,287.21c-0.25-0.01-0.48-0.01-0.7-0.01C284.8,287.2,285.03,287.2,285.28,287.21z"/>
	<path d="M312.71,292.14c0.74,0.19,1.5,0.4,2.26,0.6C314.2,292.54,313.45,292.33,312.71,292.14z"/>
	<path d="M320.72,294.4c0.81,0.25,1.63,0.5,2.46,0.76C322.35,294.9,321.53,294.65,320.72,294.4z"/>
	<path d="M348.58,349.25c0.32,0.09,0.63,0.17,0.94,0.26C349.21,349.43,348.9,349.34,348.58,349.25z"/>
	<path d="M286.19,287.26c-0.3-0.02-0.59-0.03-0.85-0.04C285.6,287.22,285.89,287.24,286.19,287.26z"/>
	<path d="M287.3,287.34c-0.34-0.03-0.66-0.05-0.96-0.07C286.65,287.28,286.97,287.31,287.3,287.34z"/>
	<path d="M288.59,287.46c-0.38-0.04-0.75-0.08-1.1-0.11C287.84,287.39,288.21,287.42,288.59,287.46z"/>
	<path d="M290.05,287.63c0.4,0.05,0.82,0.1,1.24,0.16c0,0,0,0,0,0C290.86,287.73,290.45,287.68,290.05,287.63z"/>
	<path d="M289.93,287.61c-0.42-0.05-0.82-0.1-1.2-0.14C289.11,287.52,289.51,287.56,289.93,287.61z"/>
	<path d="M300.53,192.26c1.12,0.34,2.27,0.69,3.43,1.06C302.8,192.95,301.65,192.6,300.53,192.26z"/>
	<path d="M283.01,287.53c-0.02-0.03-0.03-0.05-0.02-0.08C282.98,287.48,282.99,287.5,283.01,287.53z"/>
	<path d="M283,287.43c0.01-0.02,0.01-0.03,0.03-0.05C283.01,287.4,283,287.42,283,287.43z"/>
	<path d="M283.63,287.23c0.05,0,0.09-0.01,0.15-0.01C283.72,287.22,283.68,287.23,283.63,287.23z"/>
	<path d="M305.72,193.9c1.77,0.59,3.58,1.22,5.42,1.9C309.3,195.12,307.49,194.49,305.72,193.9z"/>
	<path d="M283.93,287.21c0.06,0,0.11-0.01,0.18-0.01C284.04,287.2,283.99,287.21,283.93,287.21z"/>
	<path d="M284.49,287.19c-0.07,0-0.13,0-0.2,0C284.36,287.2,284.42,287.19,284.49,287.19z"/>
	<polygon points="303.71,258.12 303.71,258.12 357.64,309.87 357.64,309.87 	"/>
	<path d="M316.69,197.97c0.52,0.21,1.04,0.44,1.56,0.66c0,0,0,0,0,0C317.74,198.4,317.21,198.18,316.69,197.97z"/>
	<path d="M293.1,235.94L293.1,235.94c0.02,0,0.04,0,0.06,0C293.14,235.94,293.12,235.94,293.1,235.94z"/>
	<path d="M300.5,192.25L300.5,192.25c0.01,0,0.02,0.01,0.03,0.01C300.52,192.26,300.51,192.26,300.5,192.25z"/>
	<path d="M352.82,350.42c0.36,0.1,0.72,0.2,1.06,0.3C353.54,350.62,353.19,350.53,352.82,350.42z"/>
	<path d="M283.38,287.26c0.04-0.01,0.08-0.01,0.12-0.02C283.46,287.25,283.42,287.26,283.38,287.26z"/>
	<path d="M354.31,350.77c-0.12,0.01-0.25,0-0.39-0.04c0.12,0.03,0.23,0.05,0.34,0.05C354.27,350.78,354.29,350.77,354.31,350.77z"/>
	<path d="M351.53,350.06c0.32,0.09,0.63,0.18,0.93,0.26C352.17,350.24,351.85,350.15,351.53,350.06z"/>
	<path d="M354.81,350.62c0.06-0.04,0.12-0.07,0.17-0.12C354.93,350.54,354.87,350.58,354.81,350.62z"/>
	<path d="M349.99,349.64c0.42,0.12,0.84,0.23,1.23,0.34C350.83,349.87,350.41,349.75,349.99,349.64z"/>
	<path d="M354.46,350.75c0.07-0.01,0.15-0.03,0.21-0.06C354.61,350.72,354.53,350.73,354.46,350.75z"/>
	<path d="M355.1,350.38C355.1,350.38,355.1,350.38,355.1,350.38c-0.01,0-0.01,0.01-0.01,0.01
		C355.09,350.39,355.1,350.38,355.1,350.38z"/>
	<path d="M283.19,287.31c0.03-0.01,0.06-0.02,0.09-0.03C283.25,287.29,283.22,287.3,283.19,287.31z"/>
	<path d="M283.06,287.36c0.02-0.01,0.04-0.02,0.06-0.04C283.1,287.34,283.08,287.35,283.06,287.36z"/>
	<path d="M326.55,343.75c0.61,0.14,1.23,0.28,1.83,0.42C327.78,344.03,327.17,343.89,326.55,343.75z"/>
	<path d="M324.16,244.21c0.76,0.41,1.53,0.83,2.29,1.29C325.68,245.04,324.92,244.62,324.16,244.21z"/>
	<path d="M331.48,203.05c-0.01-0.09-0.03-0.17-0.06-0.25C331.45,202.88,331.47,202.97,331.48,203.05z"/>
	<path d="M328.13,244.08c-0.05-0.12-0.12-0.24-0.22-0.36C328.01,243.83,328.08,243.96,328.13,244.08z"/>
	<path d="M328.16,244.82c0.02-0.08,0.04-0.15,0.05-0.23C328.2,244.67,328.18,244.74,328.16,244.82z"/>
	<path d="M298.08,194.67l-5.43,5.43l4.53,5.03c5.77-2.27,11.35-4,16.17-5.28C308.03,197.75,302.84,196.04,298.08,194.67z"/>
	<path d="M330.14,204.3c-0.13-0.02-0.26-0.06-0.39-0.13c-1.81-0.99-3.64-1.93-5.48-2.82v0c1.84,0.89,3.67,1.83,5.48,2.82
		C329.88,204.24,330.01,204.27,330.14,204.3z"/>
	<path d="M327.98,245.17c0.05-0.07,0.1-0.15,0.13-0.23C328.08,245.02,328.03,245.1,327.98,245.17z"/>
	<path d="M326.44,245.49c0.13,0.08,0.26,0.12,0.39,0.14C326.7,245.61,326.57,245.57,326.44,245.49z"/>
	<path d="M327.93,245.25c-0.08,0.09-0.17,0.17-0.27,0.24C327.76,245.42,327.85,245.34,327.93,245.25z"/>
	<path d="M321.37,242.79c0.75,0.36,1.5,0.74,2.25,1.14C322.87,243.53,322.12,243.14,321.37,242.79z"/>
	<path d="M327.33,245.63c0.09-0.02,0.18-0.06,0.26-0.11C327.51,245.56,327.42,245.6,327.33,245.63z"/>
	<path d="M355.03,308.43c0.87,0.47,1.74,0.95,2.61,1.43C356.77,309.38,355.9,308.9,355.03,308.43z"/>
	<path d="M327.2,245.65c-0.09,0.01-0.17,0.02-0.27,0.01c0.04,0,0.08,0.02,0.12,0.02C327.11,245.67,327.15,245.65,327.2,245.65z"/>
	<path d="M355.68,353.51c-0.45,0.17-0.93,0.27-1.43,0.27c-0.39,0-0.77-0.05-1.15-0.16c-6.04-1.7-16.18-4.45-27.08-6.92
		c-1.52,10.1-4.06,19.88-7.11,29c-0.21,0.63,0.25,1.27,0.92,1.27h18.95h0.04h21.87c0.66,0,1.13-0.64,0.92-1.27
		C359.25,368.65,357.2,361.2,355.68,353.51z"/>
	<path d="M330.51,204.29c-0.09,0.02-0.18,0.03-0.28,0.02c0.03,0,0.06,0.01,0.09,0.01C330.39,204.32,330.45,204.3,330.51,204.29z"/>
	<path d="M304.23,158.02l-5.88,7.28l5.5,5.5c4.54-2.39,8.73-4.37,12.46-5.98C312.11,162.28,308.06,160.02,304.23,158.02z"/>
	<path d="M331.38,202.68c-0.06-0.12-0.13-0.24-0.24-0.35C331.25,202.44,331.32,202.56,331.38,202.68z"/>
	<path d="M356.16,312.48c-16.72-9.45-34.85-15.28-48.85-18.6l-6.1,5.19l52.92,44.99c-0.73-5.58-1.15-11.25-1.15-16.96
		c0-5.21,10.46-5.23,23.15-3.33L356.16,312.48z"/>
	<path d="M357.32,280.37c-0.96-1.42,33.15,2.26,62.03,18.57l-62.13-59.62c-0.6-0.58-0.25-1.59,0.58-1.66
		c5.47-0.5,20.95-0.93,35.62,7.78c0.96,0.57,1.96-0.65,1.22-1.48l-40.8-45.29c-0.62-0.69-0.02-1.77,0.88-1.6
		c6.81,1.22,25.14,5.11,41.45,14.02c0.98,0.54,1.94-0.74,1.15-1.53l-48.5-48.5c-0.71-0.71,0-1.91,0.96-1.61
		c6.75,2.06,22.4,7.65,41.11,19.66c0.93,0.59,1.97-0.56,1.28-1.42l-51.79-64.12l0-0.31l-0.13,0.16l-0.13-0.16l0,0.32l-26.03,32.23
		l12.2,15.1c1.73-0.61,3.23-1.09,4.43-1.46c0.97-0.3,1.68,0.9,0.96,1.61l-3.5,3.5c0.03,0.66-0.1,1.32-0.39,1.94
		c-0.7,1.46-2.17,2.4-3.77,2.4c-0.06,0-0.11-0.01-0.17-0.01l-10.97,10.97l20.36,20.36c1.2,1.2,1.56,2.97,0.91,4.52
		c-0.65,1.58-2.16,2.6-3.84,2.6c-0.69,0-1.39-0.18-2.02-0.52c-2.03-1.11-4.08-2.15-6.14-3.12l-13.15,14.6l21.12,23.44
		c1.12,1.24,1.4,2.95,0.72,4.46c-0.68,1.52-2.17,2.5-3.81,2.5c-0.74,0-1.48-0.21-2.14-0.6c-2.33-1.38-4.68-2.56-7.01-3.57
		l-12.03,11.54l53.84,51.66l16.79,16.11c14.53,2.2,31.85,6.85,39.76,9.08c1,0.28,1.68-1,0.89-1.67L357.32,280.37z"/>
	<path d="M330.63,204.27c0.12-0.03,0.23-0.08,0.33-0.15C330.86,204.19,330.75,204.24,330.63,204.27z"/>
	<path d="M331.29,203.77c0.05-0.07,0.09-0.14,0.12-0.22C331.37,203.63,331.33,203.7,331.29,203.77z"/>
	<path d="M331.44,203.42c0.02-0.08,0.03-0.15,0.04-0.23C331.47,203.27,331.46,203.35,331.44,203.42z"/>
	<path d="M331.22,203.87c-0.07,0.09-0.16,0.18-0.26,0.25C331.07,204.04,331.15,203.96,331.22,203.87z"/>
	<path d="M328.21,244.45c0-0.08-0.02-0.17-0.04-0.25C328.19,244.28,328.21,244.37,328.21,244.45z"/>
	<path d="M337.51,300.28c0.84,0.34,1.69,0.68,2.53,1.04C339.2,300.96,338.35,300.62,337.51,300.28z"/>
	<path d="M320.24,242.26L320.24,242.26c0.29,0.14,0.58,0.27,0.88,0.41C320.82,242.53,320.53,242.39,320.24,242.26z"/>
	<path d="M329.01,297.1c0.82,0.29,1.64,0.58,2.46,0.88C330.65,297.68,329.83,297.39,329.01,297.1z"/>
	<path d="M326.09,296.11c0.81,0.27,1.63,0.55,2.46,0.83C327.73,296.66,326.91,296.38,326.09,296.11z"/>
	<path d="M340.52,301.52c0.84,0.35,1.68,0.72,2.53,1.09C342.2,302.23,341.36,301.87,340.52,301.52z"/>
	<path d="M331.89,298.13c0.86,0.31,1.72,0.63,2.58,0.96C333.61,298.76,332.75,298.44,331.89,298.13z"/>
	<path d="M352.13,306.92c0.84,0.43,1.67,0.86,2.5,1.31C353.81,307.78,352.97,307.34,352.13,306.92z"/>
	<path d="M349.14,305.42c0.84,0.41,1.68,0.83,2.52,1.25C350.82,306.25,349.98,305.83,349.14,305.42z"/>
	<path d="M343.46,302.78c0.88,0.39,1.76,0.78,2.64,1.19C345.21,303.57,344.33,303.17,343.46,302.78z"/>
	<path d="M346.15,304c0.87,0.4,1.74,0.82,2.61,1.23C347.89,304.82,347.02,304.41,346.15,304z"/>
	<path d="M334.59,299.14c0.85,0.33,1.71,0.66,2.56,1C336.29,299.8,335.44,299.46,334.59,299.14z"/>
	<path d="M301.39,236.74c-0.66-0.1-1.32-0.19-1.96-0.27C300.08,236.55,300.73,236.64,301.39,236.74z"/>
	<path d="M299.42,236.47c-0.64-0.08-1.27-0.15-1.89-0.21C298.15,236.32,298.77,236.39,299.42,236.47z"/>
	<path d="M303.88,237.16c-0.68-0.13-1.35-0.24-2.02-0.34C302.53,236.92,303.2,237.03,303.88,237.16z"/>
	<path d="M297.09,236.22c-0.6-0.06-1.2-0.11-1.78-0.15C295.89,236.11,296.49,236.16,297.09,236.22z"/>
	<path d="M323.3,295.2c0.81,0.26,1.63,0.52,2.45,0.79C324.93,295.72,324.11,295.46,323.3,295.2z"/>
	<path d="M306,237.59c-0.64-0.14-1.27-0.27-1.9-0.38C304.73,237.32,305.36,237.45,306,237.59z"/>
	<path d="M290.46,238.88l-1.15,1.27l2.78,2.67c2.93-1.34,5.84-2.37,8.64-3.14C296.96,239.12,293.48,238.9,290.46,238.88z"/>
	<rect x="288.27" y="241.97" transform="matrix(0.6924 -0.7215 0.7215 0.6924 -86.8755 282.8425)" width="0" height="2.68"/>
	<path d="M295.09,236.05c-0.53-0.04-1.05-0.07-1.55-0.09C294.05,235.99,294.56,236.02,295.09,236.05z"/>
	<path d="M306.49,237.69c0.58,0.13,1.17,0.27,1.76,0.42c0,0,0.01,0,0.01,0C307.66,237.96,307.07,237.82,306.49,237.69z"/>
</g>
<g id="central">
	<g>
		<path d="M352.89,350.73c1.2,0.34,2.02-1.2,1.07-2.01l-71.98-61.19c-1.16-1.71,39.88,2.72,74.63,22.34l-74.75-71.73
			c-0.72-0.69-0.3-1.91,0.7-2c6.58-0.6,25.2-1.12,42.86,9.36c1.15,0.68,2.36-0.78,1.46-1.77l-49.09-54.49
			c-0.74-0.82-0.03-2.13,1.06-1.93c8.19,1.46,30.24,6.14,49.87,16.87c1.18,0.65,2.34-0.89,1.38-1.84l-58.35-58.35
			c-0.86-0.86,0-2.3,1.16-1.94c8.13,2.48,26.95,9.2,49.46,23.66c1.11,0.72,2.37-0.68,1.54-1.71l-62.31-77.14l0-0.38l-0.15,0.19
			l-0.15-0.19l0,0.38L199,163.98c-0.83,1.03,0.43,2.42,1.54,1.71c22.51-14.46,41.33-21.18,49.46-23.66
			c1.16-0.35,2.02,1.08,1.16,1.94l-58.35,58.35c-0.95,0.95,0.2,2.49,1.38,1.84c19.63-10.72,41.68-15.4,49.87-16.87
			c1.09-0.2,1.81,1.11,1.06,1.93l-49.09,54.49c-0.9,0.99,0.31,2.46,1.46,1.77c17.66-10.47,36.28-9.96,42.86-9.36
			c1,0.09,1.42,1.31,0.7,2l-74.75,71.73c43.85-18.34,75.78-24.05,74.63-22.34l-71.98,61.19c-0.95,0.81-0.14,2.35,1.07,2.01
			c17.94-5.07,76.14-20.46,76.14-6.98c0,20.44-4.37,40.51-10.39,58.48c-0.25,0.76,0.31,1.53,1.1,1.53h22.8h0.05h26.32
			c0.8,0,1.35-0.78,1.1-1.53c-6.02-17.97-10.39-38.05-10.39-58.48C276.76,330.27,334.95,345.66,352.89,350.73z"/>
	</g>
</g>
</svg>
