<?xml version="1.0" encoding="utf-8"?>
<!-- Generator: Adobe Illustrator 25.3.0, SVG Export Plug-In . SVG Version: 6.00 Build 0)  -->
<svg version="1.1" xmlns="http://www.w3.org/2000/svg" xmlns:xlink="http://www.w3.org/1999/xlink" x="0px" y="0px"
	 viewBox="0 0 500 500" style="enable-background:new 0 0 500 500;" xml:space="preserve">
<style type="text/css">
	.st0{fill:none;stroke:#000000;stroke-width:4;stroke-miterlimit:10;}
	.st1{fill:none;stroke:#000000;stroke-width:2;stroke-miterlimit:10;}
	.st2{font-family:'Candara';}
	.st3{font-size:44.3661px;}
	.st4{font-family:'Cambria';}
	.st5{font-size:12px;}
	.st6{fill:#050505;stroke:#000000;stroke-width:0.25;stroke-miterlimit:10;}
</style>
<g id="truck">
	<path class="st0" d="M108.45,327.81l-28.43,15.4c-7.2,3.9-11.59,11.52-11.34,19.7l1.41,47.18l91.38,38.37v-55.22
		c0-8.39,4.6-16.11,11.97-20.1l26-14.09l0.53,18.99v53.01l-38.51,17.41"/>
	<path class="st0" d="M167.27,377.97"/>
	<path class="st0" d="M77.49,344.82"/>
	<path class="st0" d="M108.45,327.81c0,0,21.51-25.31,48.54-15.91c13.44,4.68,28.25,17.94,42.46,47.16L108.45,327.81
		c0-3.03,0-34.95,0-34.95l91,31.64c0,0,0,31.91,0,34.95"/>
	<line class="st0" x1="156.99" y1="311.9" x2="339.94" y2="231.72"/>
	<path class="st0" d="M337.96,232.15c26.25,0,38.09,14.98,38.09,46.73"/>
	<path class="st0" d="M290.8,248.01"/>
	<path class="st0" d="M332.05,326.16c13.93-4.85,44-22.83,44-48.88"/>
	<line class="st0" x1="200.69" y1="384.16" x2="333.06" y2="326.16"/>
	<path class="st0" d="M199.98,431.06c6.51-3.51,186.27-88.96,186.27-88.96l-49.69-17.74"/>
	<polyline class="st0" points="383.72,271.81 384.25,290.8 384.25,343.81 	"/>
	<path class="st0" d="M292.72,205.52l91,31.64c0,0,0,31.91,0,34.95"/>
	<path class="st0" d="M294.25,204.45c0,0,0,43.72,0,46.75"/>
	<path class="st0" d="M304.77,247.13"/>
	<path class="st0" d="M339.94,241.94"/>
	<path class="st0" d="M383.98,286.19"/>
	<path class="st0" d="M364.58,278.89"/>
	<path class="st0" d="M383.72,237.15"/>
	<path class="st0" d="M359.8,257.24"/>
	<path class="st0" d="M310.41,243.74"/>
	<path class="st0" d="M294.25,206.05"/>
	<line class="st1" x1="185.48" y1="404.91" x2="192.39" y2="402.34"/>
	<path class="st0" d="M264.09,264.96c0,0,66.55,29.99,14.46,85.08v11.77"/>
	<path class="st0" d="M206.73,291.29c0,0,66.55,29.99,14.46,85.08v11.77"/>
	<path class="st0" d="M314.86,242.86c0,0,66.55,29.99,14.46,85.08v11.77"/>
	<polyline class="st0" points="199.98,378.05 365.18,303.64 365.18,335.5 200.69,410.14 	"/>
	<line class="st0" x1="69.43" y1="388.14" x2="161.47" y2="422.27"/>
	<line class="st0" x1="72.24" y1="350.37" x2="164.39" y2="384.16"/>
	<text transform="matrix(0.9332 -0.3594 0.3594 0.9332 245.7871 333.9096)" class="st2 st3">U</text>
	<text transform="matrix(0.9052 -0.425 0.425 0.9052 271.4148 322.8429)" class="st4 st5">238</text>
	<text transform="matrix(0.9052 -0.425 0.425 0.9052 266.0039 301.1967)" class="st4 st5">92</text>
	<circle cx="192.89" cy="460.74" r="17.21"/>
	<circle cx="233.81" cy="442.94" r="17.21"/>
	<circle cx="364.58" cy="381.78" r="17.21"/>
	<circle cx="325.02" cy="401.38" r="17.21"/>
	<polyline points="161.47,448.47 161.47,477.73 69.43,440.27 70.08,410.1 	"/>
	<g>
		<path class="st6" d="M233.82,425.7c-1.62,0-3.26,0.23-4.89,0.71c-9.11,2.7-14.32,12.27-11.62,21.38c0.37,1.27,0.89,2.45,1.51,3.55
			l31.15-14.33C247.46,430.12,240.9,425.7,233.82,425.7z"/>
		<path class="st6" d="M192.9,443.5c-1.62,0-3.26,0.23-4.89,0.71c-9.11,2.7-14.32,12.27-11.62,21.38c0.47,1.58,1.15,3.03,1.99,4.35
			l30.97-14.24C207.09,448.29,200.28,443.5,192.9,443.5z"/>
		<path class="st6" d="M161.18,448.47l0.29,29.26l13.26-6.1c-0.92-1.51-1.65-3.15-2.17-4.9c-3.32-11.21,3.11-23.04,14.32-26.35
			c1.96-0.58,3.99-0.88,6.02-0.88c9.08,0,17.24,5.94,20.1,14.52l2.19-1.01c-0.7-1.29-1.29-2.65-1.72-4.09
			c-1.61-5.43-1-11.17,1.7-16.14c2.71-4.98,7.19-8.6,12.62-10.21c1.96-0.58,3.99-0.88,6.02-0.88c8.77,0,16.69,5.53,19.8,13.64
			l52.76-24.26c-0.69-1.27-1.27-2.62-1.69-4.04c-1.61-5.43-1-11.17,1.7-16.14c2.71-4.98,7.19-8.6,12.62-10.21
			c1.96-0.58,3.99-0.88,6.02-0.88c8.76,0,16.66,5.51,19.78,13.6l1.61-0.74c-0.91-1.51-1.65-3.15-2.17-4.89
			c-3.32-11.21,3.11-23.04,14.32-26.35c1.96-0.58,3.99-0.88,6.02-0.88c9.08,0,17.23,5.94,20.1,14.52l1.56-0.72V342.1L161.18,448.47z
			"/>
		<path class="st6" d="M325.03,383.81c-1.62,0-3.26,0.23-4.89,0.71c-9.11,2.7-14.32,12.27-11.62,21.38
			c0.37,1.25,0.88,2.42,1.49,3.51l31.16-14.33C338.64,388.2,332.1,383.81,325.03,383.81z"/>
		<path class="st6" d="M364.6,364.54c-1.62,0-3.26,0.23-4.89,0.71c-9.11,2.7-14.32,12.27-11.62,21.38c0.47,1.57,1.15,3.02,1.99,4.34
			l30.97-14.24C378.79,369.33,371.98,364.54,364.6,364.54z"/>
	</g>
</g>
<g id="pickaxe">
	<path class="st6" d="M388.96,20.32l0.96-2.39l-5-2l-0.96,2.39c-24.35-12.75-110.92-0.05-70.63-2.28
		c40.29-2.22,58.74,26.21,58.74,26.21l-54.01,134.83l8.96,3.59l54.01-134.83c0,0,32.98-7.83,60.59,21.59
		C469.25,96.85,415.38,27.91,388.96,20.32z"/>
</g>
<g id="radiation_hazard">
	<path d="M153.21,12.72l-99.31,165.3h187.2L153.21,12.72z M152,106.49c3.64,0,6.59,2.95,6.59,6.59c0,3.64-2.95,6.59-6.59,6.59
		c-3.64,0-6.59-2.95-6.59-6.59C145.41,109.44,148.36,106.49,152,106.49z M132.36,78.62l14.81,26.12c-5.41,2.96-5.04,8.43-5.04,8.43
		l-29.45-0.28C111.08,88.92,132.36,78.62,132.36,78.62z M131.51,147.89l15.28-25.85c5.26,3.22,9.82,0.17,9.82,0.17l14.42,25.68
		C151.04,161.21,131.51,147.89,131.51,147.89z M161.64,113.34c0.18-6.16-4.73-8.61-4.73-8.61l15.12-25.27
		c21.5,10.73,19.63,34.3,19.63,34.3L161.64,113.34z"/>
</g>
</svg>
