<?xml version="1.0" encoding="utf-8"?>
<!-- Generator: Adobe Illustrator 25.3.0, SVG Export Plug-In . SVG Version: 6.00 Build 0)  -->
<svg version="1.1" xmlns="http://www.w3.org/2000/svg" xmlns:xlink="http://www.w3.org/1999/xlink" x="0px" y="0px"
	 viewBox="0 0 500 500" style="enable-background:new 0 0 500 500;" xml:space="preserve">
<style type="text/css">
	.st0{stroke:#000000;stroke-width:0.25;stroke-miterlimit:10;}
	.st1{fill:none;stroke:#000000;stroke-width:2;stroke-miterlimit:10;}
	.st2{fill:none;stroke:#000000;stroke-width:0.5;stroke-miterlimit:10;}
	.st3{fill:none;stroke:#000000;stroke-miterlimit:10;}
	.st4{fill:none;stroke:#000000;stroke-width:0.25;stroke-miterlimit:10;}
</style>
<g id="saw_disk">
	<g>
		<g>
			<path d="M397.01,108.8c-11.7,0-21.22-9.52-21.22-21.22s9.52-21.22,21.22-21.22c11.7,0,21.22,9.52,21.22,21.22
				S408.71,108.8,397.01,108.8z M397.01,69.59c-10.06,0-18.24,8.18-18.24,18.24c0,10.06,8.18,18.24,18.24,18.24
				s18.24-8.18,18.24-18.24C415.25,77.78,407.07,69.59,397.01,69.59z"/>
			<path d="M397.01,66.85c11.43,0,20.72,9.3,20.72,20.72s-9.3,20.72-20.72,20.72s-20.72-9.3-20.72-20.72S385.58,66.85,397.01,66.85
				 M397.01,106.58c10.34,0,18.74-8.41,18.74-18.74s-8.41-18.74-18.74-18.74s-18.74,8.41-18.74,18.74S386.67,106.58,397.01,106.58
				 M397.01,65.85c-11.98,0-21.72,9.74-21.72,21.72s9.74,21.72,21.72,21.72s21.72-9.74,21.72-21.72S408.99,65.85,397.01,65.85
				L397.01,65.85z M397.01,105.58c-9.8,0-17.74-7.94-17.74-17.74s7.94-17.74,17.74-17.74s17.74,7.94,17.74,17.74
				S406.81,105.58,397.01,105.58L397.01,105.58z"/>
		</g>
		<g>
			<path d="M397.01,117.55c-16.53,0-29.98-13.45-29.98-29.98s13.45-29.98,29.98-29.98c16.53,0,29.98,13.45,29.98,29.98
				S413.54,117.55,397.01,117.55z M397.01,60.8c-14.76,0-26.78,12.01-26.78,26.78s12.01,26.78,26.78,26.78
				c14.77,0,26.78-12.01,26.78-26.78S411.77,60.8,397.01,60.8z"/>
			<path d="M397.01,58.1c16.25,0,29.48,13.22,29.48,29.48s-13.22,29.48-29.48,29.48s-29.48-13.22-29.48-29.48
				S380.75,58.1,397.01,58.1 M397.01,114.85c15.04,0,27.28-12.24,27.28-27.28c0-15.04-12.24-27.28-27.28-27.28
				s-27.28,12.24-27.28,27.28C369.73,102.62,381.97,114.85,397.01,114.85 M397.01,57.1c-16.81,0-30.48,13.67-30.48,30.48
				c0,16.81,13.67,30.48,30.48,30.48s30.48-13.67,30.48-30.48C427.49,70.77,413.81,57.1,397.01,57.1L397.01,57.1z M397.01,113.85
				c-14.51,0-26.28-11.76-26.28-26.28S382.5,61.3,397.01,61.3s26.28,11.76,26.28,26.28S411.52,113.85,397.01,113.85L397.01,113.85z"
				/>
		</g>
		<g>
			<path d="M397.01,112.89c-13.96,0-25.31-11.35-25.31-25.31s11.35-25.31,25.31-25.31s25.31,11.35,25.31,25.31
				S410.97,112.89,397.01,112.89z M397.01,64.89c-12.51,0-22.69,10.18-22.69,22.69s10.18,22.69,22.69,22.69s22.69-10.18,22.69-22.69
				S409.52,64.89,397.01,64.89z"/>
			<path d="M397.01,62.76c13.68,0,24.81,11.13,24.81,24.81s-11.13,24.81-24.81,24.81s-24.81-11.13-24.81-24.81
				S383.33,62.76,397.01,62.76 M397.01,110.76c12.79,0,23.19-10.4,23.19-23.19s-10.4-23.19-23.19-23.19s-23.19,10.4-23.19,23.19
				S384.22,110.76,397.01,110.76 M397.01,61.76c-14.23,0-25.81,11.58-25.81,25.81s11.58,25.81,25.81,25.81
				c14.23,0,25.81-11.58,25.81-25.81S411.24,61.76,397.01,61.76L397.01,61.76z M397.01,109.76c-12.25,0-22.19-9.93-22.19-22.19
				c0-12.25,9.93-22.19,22.19-22.19s22.19,9.93,22.19,22.19C419.2,99.83,409.26,109.76,397.01,109.76L397.01,109.76z"/>
		</g>
		<g>
			<path d="M397.01,146.26c-32.36,0-58.69-26.33-58.69-58.69s26.33-58.69,58.69-58.69s58.69,26.33,58.69,58.69
				S429.37,146.26,397.01,146.26z M397.01,51.34c-19.98,0-36.23,16.25-36.23,36.23c0,19.98,16.25,36.23,36.23,36.23
				s36.23-16.25,36.23-36.23C433.24,67.6,416.99,51.34,397.01,51.34z"/>
			<path d="M397.01,29.39c32.08,0,58.19,26.1,58.19,58.19s-26.1,58.19-58.19,58.19s-58.19-26.1-58.19-58.19
				S364.93,29.39,397.01,29.39 M397.01,124.31c20.25,0,36.73-16.48,36.73-36.73c0-20.25-16.48-36.73-36.73-36.73
				s-36.73,16.48-36.73,36.73C360.28,107.83,376.75,124.31,397.01,124.31 M397.01,28.39c-32.69,0-59.19,26.5-59.19,59.19
				s26.5,59.19,59.19,59.19s59.19-26.5,59.19-59.19S429.7,28.39,397.01,28.39L397.01,28.39z M397.01,123.31
				c-19.73,0-35.73-16-35.73-35.73s16-35.73,35.73-35.73s35.73,16,35.73,35.73S416.74,123.31,397.01,123.31L397.01,123.31z"/>
		</g>
		<g>
			<path d="M397.01,122.34c-19.17,0-34.77-15.6-34.77-34.77s15.6-34.77,34.77-34.77c19.17,0,34.77,15.6,34.77,34.77
				S416.18,122.34,397.01,122.34z M397.01,56.13c-17.34,0-31.44,14.11-31.44,31.44c0,17.34,14.11,31.44,31.44,31.44
				c17.34,0,31.44-14.11,31.44-31.44C428.45,70.24,414.35,56.13,397.01,56.13z"/>
			<path d="M397.01,53.31c18.89,0,34.27,15.37,34.27,34.27s-15.37,34.27-34.27,34.27c-18.89,0-34.27-15.37-34.27-34.27
				S378.11,53.31,397.01,53.31 M397.01,119.52c17.61,0,31.94-14.33,31.94-31.94s-14.33-31.94-31.94-31.94s-31.94,14.33-31.94,31.94
				S379.4,119.52,397.01,119.52 M397.01,52.31c-19.45,0-35.27,15.82-35.27,35.27s15.82,35.27,35.27,35.27
				c19.45,0,35.27-15.82,35.27-35.27S416.46,52.31,397.01,52.31L397.01,52.31z M397.01,118.52c-17.09,0-30.94-13.85-30.94-30.94
				s13.85-30.94,30.94-30.94s30.94,13.85,30.94,30.94S414.1,118.52,397.01,118.52L397.01,118.52z"/>
		</g>
	</g>
	<g id="Layer_3">
		<path class="st0" d="M401.73,16.33c-1.8-1.8-9,12.89-9,12.89c6.6,0.63,5.85,0.32,14.59,0.17
			C407.73,29.38,401.73,16.33,401.73,16.33z"/>
		<path class="st0" d="M383.2,17.49c-2.18-1.31-5.61,14.68-5.61,14.68c6.56-0.99,5.75-1.1,14.2-3.37
			C392.19,28.7,383.2,17.49,383.2,17.49z"/>
		<path class="st0" d="M365.03,23.64c-2.44-0.72-1.72,15.62-1.72,15.62c6.1-2.61,5.29-2.52,12.89-6.84
			C376.55,32.22,365.03,23.64,365.03,23.64z"/>
		<path class="st0" d="M350.36,33.5c-2.54-0.1,2.11,15.58,2.11,15.58c5.28-4.01,4.52-3.72,10.85-9.76
			C363.62,39.04,350.36,33.5,350.36,33.5z"/>
		<path class="st0" d="M338.5,46.02c-2.49,0.5,5.76,14.63,5.76,14.63c4.17-5.16,3.51-4.69,8.21-12.06
			C352.69,48.24,338.5,46.02,338.5,46.02z"/>
		<path class="st0" d="M330.12,61.58c-2.29,1.09,9.13,12.8,9.13,12.8c2.8-6.01,2.27-5.4,5.05-13.69
			C344.43,60.3,330.12,61.58,330.12,61.58z"/>
		<path class="st0" d="M325.96,78.96c-1.94,1.63,12.06,10.08,12.06,10.08c1.19-6.52,0.83-5.8,1.43-14.52
			C339.48,74.11,325.96,78.96,325.96,78.96z"/>
		<path class="st0" d="M326.06,96.63c-1.49,2.06,14.14,6.86,14.14,6.86c-0.42-6.62-0.6-5.83-2.12-14.43
			C338,88.66,326.06,96.63,326.06,96.63z"/>
		<path class="st0" d="M330.37,113.72c-0.95,2.36,15.38,3.23,15.38,3.23c-2.01-6.32-1.99-5.51-5.56-13.49
			C340.03,103.08,330.37,113.72,330.37,113.72z"/>
		<path class="st0" d="M338.75,129.27c-0.35,2.52,15.71-0.59,15.71-0.59c-3.48-5.65-3.27-4.86-8.66-11.74
			C345.55,116.61,338.75,129.27,338.75,129.27z"/>
		<path class="st0" d="M350.99,142.3c0.3,2.52,15.05-4.53,15.05-4.53c-4.79-4.59-4.39-3.88-11.34-9.18
			C354.37,128.34,350.99,142.3,350.99,142.3z"/>
		<path class="st0" d="M365.8,151.94c0.9,2.38,13.51-8.04,13.51-8.04c-5.76-3.29-5.2-2.7-13.22-6.16
			C365.7,137.57,365.8,151.94,365.8,151.94z"/>
		<path class="st0" d="M381.97,157.48c1.44,2.09,11.2-11.03,11.2-11.03c-6.38-1.82-5.69-1.39-14.31-2.84
			C378.45,143.55,381.97,157.48,381.97,157.48z"/>
		<path class="st0" d="M399.56,159.1c1.9,1.68,8.2-13.41,8.2-13.41c-6.63-0.23-5.86,0.03-14.57,0.71
			C392.78,146.44,399.56,159.1,399.56,159.1z"/>
		<path class="st0" d="M417.19,156.12c2.26,1.15,4.55-15.05,4.55-15.05c-6.47,1.46-5.66,1.51-13.92,4.37
			C407.43,145.58,417.19,156.12,417.19,156.12z"/>
		<path class="st0" d="M433.41,149.58c2.48,0.57,0.78-15.7,0.78-15.7c-5.93,2.98-5.13,2.83-12.45,7.61
			C421.39,141.71,433.41,149.58,433.41,149.58z"/>
		<path class="st0" d="M447.65,138.4c2.54-0.08-3.24-15.38-3.24-15.38c-4.98,4.39-4.24,4.04-10.11,10.52
			C434.02,133.84,447.65,138.4,447.65,138.4z"/>
		<path class="st0" d="M458.5,124.46c2.44-0.69-6.87-14.14-6.87-14.14c-3.77,5.46-3.14,4.95-7.26,12.65
			C444.18,123.33,458.5,124.46,458.5,124.46z"/>
		<path class="st0" d="M465.68,108.37c2.2-1.26-10.08-12.06-10.08-12.06c-2.33,6.21-1.84,5.56-3.98,14.03
			C451.52,110.75,465.68,108.37,465.68,108.37z"/>
		<path class="st0" d="M468.72,90.96c1.83-1.76-12.7-9.26-12.7-9.26c-0.76,6.59-0.44,5.84-0.47,14.58
			C455.55,96.7,468.72,90.96,468.72,90.96z"/>
		<path class="st0" d="M467.17,73.16c1.33-2.16-14.63-5.75-14.63-5.75c0.93,6.57,1.05,5.76,3.23,14.23
			C455.88,82.03,467.17,73.16,467.17,73.16z"/>
		<path class="st0" d="M461.5,56.42c0.77-2.42-15.59-2.04-15.59-2.04c2.49,6.15,2.41,5.34,6.58,13.02
			C452.69,67.77,461.5,56.42,461.5,56.42z"/>
		<path class="st0" d="M451.76,41.6c0.17-2.53-15.62,1.73-15.62,1.73c3.88,5.38,3.61,4.61,9.49,11.08
			C445.91,54.71,451.76,41.6,451.76,41.6z"/>
		<path class="st0" d="M438.48,29.44c-0.45-2.5-14.74,5.46-14.74,5.46c5.07,4.28,4.62,3.6,11.89,8.46
			C435.97,43.58,438.48,29.44,438.48,29.44z"/>
		<path class="st0" d="M421.86,20.41c-1.07-2.3-12.89,9-12.89,9c5.98,2.86,5.38,2.32,13.64,5.18
			C423,34.73,421.86,20.41,421.86,20.41z"/>
	</g>
</g>
<g id="sawmill">
	<g>
		<g>
			<polyline class="st1" points="48.66,349.91 48.66,217.97 211.69,296.83 			"/>
			<polyline class="st1" points="174.8,410.92 211.69,428.76 359.68,349.91 359.68,217.97 211.69,296.64 211.69,428.57 			"/>
			<polyline class="st1" points="129.98,159.39 48.66,217.97 211.69,296.64 			"/>
			<path class="st1" d="M129.98,257.31"/>
			<polyline class="st1" points="359.48,217.97 277.77,80.73 129.98,159.39 211.69,296.64 			"/>
			<line class="st1" x1="48.11" y1="349.85" x2="74.74" y2="363.53"/>
		</g>
		<path class="st1" d="M171.46,300.63c0,0-94.52,59.05-97.15,61.68V257.31c0,0,59.78-11.21,102.84,49.68v105.01"/>
		<path class="st1" d="M100.57,243.85v-32.42c0,0,28.1-6.74,44.12,19.6v32.42"/>
		<line class="st1" x1="100.57" y1="241.86" x2="136.53" y2="221.03"/>
		<g>
			<line class="st2" x1="221.88" y1="423.33" x2="221.88" y2="291.22"/>
			<line class="st2" x1="229.13" y1="418.64" x2="229.13" y2="286.53"/>
			<line class="st2" x1="236.38" y1="414.23" x2="236.38" y2="282.12"/>
			<line class="st2" x1="244.73" y1="410.9" x2="244.73" y2="278.79"/>
			<line class="st2" x1="251.98" y1="406.21" x2="251.98" y2="274.1"/>
			<line class="st2" x1="259.23" y1="401.8" x2="259.23" y2="269.69"/>
			<line class="st2" x1="268.42" y1="398.88" x2="268.42" y2="266.76"/>
			<line class="st2" x1="275.66" y1="394.19" x2="275.66" y2="262.08"/>
			<line class="st2" x1="282.92" y1="389.78" x2="282.92" y2="257.66"/>
			<line class="st2" x1="291.36" y1="386.96" x2="291.36" y2="254.85"/>
			<line class="st2" x1="298.61" y1="382.27" x2="298.61" y2="250.16"/>
			<line class="st2" x1="305.87" y1="377.86" x2="305.87" y2="245.75"/>
			<line class="st2" x1="313.38" y1="374.86" x2="313.38" y2="242.75"/>
			<line class="st2" x1="320.63" y1="370.17" x2="320.63" y2="238.06"/>
			<line class="st2" x1="327.89" y1="365.76" x2="327.89" y2="233.65"/>
			<line class="st2" x1="336.13" y1="363.88" x2="336.13" y2="231.77"/>
			<line class="st2" x1="343.37" y1="359.2" x2="343.37" y2="227.09"/>
			<line class="st2" x1="350.63" y1="354.78" x2="350.63" y2="222.67"/>
			<line class="st2" x1="203.14" y1="423.33" x2="203.14" y2="291.22"/>
			<line class="st2" x1="193.47" y1="418.64" x2="193.47" y2="286.53"/>
			<line class="st2" x1="185.31" y1="415.96" x2="185.31" y2="283.85"/>
			<line class="st2" x1="71.08" y1="360.96" x2="71.08" y2="228.85"/>
			<line class="st2" x1="61.41" y1="356.27" x2="61.41" y2="224.16"/>
			<line class="st2" x1="53.25" y1="353.59" x2="53.25" y2="221.48"/>
			<polyline class="st2" points="84.98,256.49 84.98,235.5 174.39,278.79 174.39,303.21 			"/>
			<line class="st2" x1="97.14" y1="257.14" x2="97.14" y2="241.86"/>
			<line class="st2" x1="111.16" y1="259.7" x2="111.16" y2="249.5"/>
			<line class="st2" x1="125.11" y1="263.45" x2="125.11" y2="254.6"/>
			<line class="st2" x1="138.14" y1="270.63" x2="138.14" y2="261.26"/>
			<path class="st2" d="M151.3,279.5c-0.29-0.29,0-11.12,0-11.12"/>
			<line class="st2" x1="161.54" y1="288.51" x2="161.54" y2="273.14"/>
		</g>
	</g>
	<g>
		<g>
			<path class="st3" d="M48.66,385.68c0,23.76,15.92,11.04,15.92,11.04l78.63-42.79l-21.39-8.59L48.66,385.68z"/>
			<path class="st2" d="M143.21,353.93c-0.78,4.14-9.7,7.28-9.7,7.28"/>
			<line class="st2" x1="60.45" y1="399.13" x2="133.51" y2="361.21"/>
			<path class="st4" d="M65.66,396.13c-0.6-0.6-17-10.45-17-10.45"/>
		</g>
		<g>
			<line class="st4" x1="50.65" y1="386.87" x2="123.76" y2="346.78"/>
			<line class="st4" x1="52.37" y1="387.91" x2="126.21" y2="347.1"/>
			<line class="st4" x1="54.13" y1="388.98" x2="127.29" y2="347.53"/>
			<path class="st4" d="M57.16,390.81c-0.07-0.04,72.81-42.2,72.81-42.2"/>
			<line class="st4" x1="59.62" y1="392.31" x2="133.05" y2="349.85"/>
			<line class="st4" x1="62.47" y1="394.06" x2="136" y2="351.03"/>
			<path class="st4" d="M64.13,395.1c0.54-0.38,75-42.81,75-42.81"/>
			<path class="st4" d="M50.98,386.87c-2.31,18.51,13.61,8.28,13.61,8.28"/>
			<path class="st4" d="M52.37,387.91c-1.72,14.98,10.1,6.15,10.1,6.15"/>
			<path class="st4" d="M54.3,388.65c-2.1,10.83,5.32,3.66,5.32,3.66"/>
			<path class="st4" d="M57.67,391.16c-1.05,0.9-1.24-0.85-0.33-0.33"/>
		</g>
	</g>
	<g>
		<g>
			<path class="st3" d="M86.67,408.68c3.62,23.49,17.42,8.49,17.42,8.49l71.19-54.27l-22.45-5.23L86.67,408.68z"/>
			<path class="st2" d="M175.28,362.9c-0.14,4.21-8.47,8.68-8.47,8.68"/>
			<line class="st2" x1="100.37" y1="420.18" x2="166.8" y2="371.58"/>
			<path class="st4" d="M105.07,416.42c-0.69-0.51-18.4-7.74-18.4-7.74"/>
		</g>
		<g>
			<line class="st4" x1="88.82" y1="409.56" x2="154.96" y2="358.79"/>
			<line class="st4" x1="90.67" y1="410.32" x2="157.44" y2="358.74"/>
			<line class="st4" x1="92.58" y1="411.11" x2="158.57" y2="359"/>
			<path class="st4" d="M95.85,412.46c-0.07-0.03,65.53-52.8,65.53-52.8"/>
			<line class="st4" x1="98.51" y1="413.57" x2="164.62" y2="360.41"/>
			<line class="st4" x1="101.59" y1="414.87" x2="167.71" y2="361.14"/>
			<path class="st4" d="M103.39,415.64c0.47-0.46,67.6-53.74,67.6-53.74"/>
			<path class="st4" d="M89.14,409.51c0.53,18.65,14.71,6.11,14.71,6.11"/>
			<path class="st4" d="M90.67,410.32c0.59,15.07,10.92,4.54,10.92,4.54"/>
			<path class="st4" d="M92.7,410.76c-0.43,11.03,5.81,2.81,5.81,2.81"/>
			<path class="st4" d="M96.4,412.73c-0.9,1.05-1.36-0.65-0.38-0.28"/>
		</g>
	</g>
</g>
<g id="Layer_5">
	<polygon points="220.98,300 220.98,415.53 350.38,346.57 350.21,231.21 	"/>
	<polyline points="143.21,160.98 215.84,286.53 350.38,215.31 275.66,91.15 	"/>
</g>
<g id="logs">
	<g>
		<path class="st3" d="M311.8,415.41l-67.66,35.22c-13.87,7.22-16.62-5.14-16.62-5.14"/>
		<path class="st3" d="M227.52,445.93c1.88-19.19,25.32-16.07,17.61,4.3"/>
		<line class="st3" x1="302.66" y1="398.45" x2="235" y2="433.67"/>
		<path class="st1" d="M293.88,410.82"/>
		<path class="st1" d="M310.5,415.97"/>
		<path class="st3" d="M302.1,399.51c-0.76-0.94,16.31-1.06,8.59,16.39"/>
		<path class="st4" d="M243.11,449.12c-11.14,5.8-13.34-4.13-13.34-4.13"/>
		<path class="st4" d="M229.77,445.34c1.51-15.41,19.53-12.11,13.34,4.25"/>
		<path class="st4" d="M242.06,448.31c-9.17,4.77-10.99-3.4-10.99-3.4"/>
		<path class="st4" d="M231.07,445.2c1.24-12.69,16.09-9.97,10.99,3.5"/>
		<path class="st4" d="M240.94,447.2c-7.1,3.7-8.51-2.63-8.51-2.63"/>
		<path class="st4" d="M232.43,444.8c0.96-9.82,12.45-7.72,8.51,2.71"/>
		<path class="st4" d="M239.88,446.15c-5.14,2.68-6.16-1.91-6.16-1.91"/>
		<path class="st4" d="M233.72,444.41c0.7-7.11,9.02-5.59,6.16,1.96"/>
		<path class="st4" d="M238.87,445.16c-3.28,1.71-3.94-1.22-3.94-1.22"/>
		<path class="st4" d="M234.94,444.05c0.45-4.54,5.76-3.57,3.94,1.25"/>
		<path class="st4" d="M237.91,444.36c-1.5,0.78-1.8-0.56-1.8-0.56"/>
		<path class="st4" d="M236.11,443.85c0.2-2.07,2.63-1.63,1.8,0.57"/>
		<line class="st4" x1="246.68" y1="432.22" x2="257.19" y2="427.48"/>
		<line class="st4" x1="259.96" y1="435.39" x2="269.66" y2="430.84"/>
		<line class="st4" x1="272.43" y1="422.93" x2="280.93" y2="417.98"/>
		<path class="st4" d="M291.22,422.93c0,0,6.73-3.56,7.91-3.96"/>
		<line class="st4" x1="290.53" y1="408.78" x2="297.75" y2="405.71"/>
		<path class="st4" d="M250.46,443.94c0.99-0.64,4.95-2.28,4.95-2.28"/>
		<path class="st4" d="M299.13,412.04c1.38-0.2,8.25-3.26,8.25-3.26"/>
		<path class="st4" d="M264.81,420.95c0.3-0.59,11.18-5.54,11.18-5.54"/>
		<line class="st4" x1="277.77" y1="429.85" x2="286.08" y2="426.09"/>
		<line class="st4" x1="286.08" y1="412.04" x2="291.22" y2="412.04"/>
		<path class="st4" d="M302.08,415.97c1.21-0.56,5.31-3.92,5.31-3.92"/>
		<path class="st3" d="M332.22,426.74l-67.66,35.22c-13.87,7.22-16.62-5.14-16.62-5.14"/>
		<path class="st3" d="M247.94,457.26c1.88-19.19,25.32-16.07,17.61,4.3"/>
		<line class="st3" x1="323.08" y1="409.79" x2="255.42" y2="445"/>
		<path class="st1" d="M314.3,422.16"/>
		<path class="st1" d="M330.92,427.3"/>
		<path class="st3" d="M322.52,410.85c-0.76-0.94,16.31-1.06,8.59,16.39"/>
		<path class="st4" d="M263.53,460.45c-11.14,5.8-13.34-4.13-13.34-4.13"/>
		<path class="st4" d="M250.19,456.68c1.51-15.41,19.53-12.11,13.34,4.25"/>
		<path class="st4" d="M262.48,459.65c-9.17,4.77-10.99-3.4-10.99-3.4"/>
		<path class="st4" d="M251.49,456.54c1.24-12.69,16.09-9.97,10.99,3.5"/>
		<path class="st4" d="M261.36,458.54c-7.1,3.7-8.51-2.63-8.51-2.63"/>
		<path class="st4" d="M252.85,456.13c0.96-9.82,12.45-7.72,8.51,2.71"/>
		<path class="st4" d="M260.3,457.49c-5.14,2.68-6.16-1.91-6.16-1.91"/>
		<path class="st4" d="M254.14,455.75c0.7-7.11,9.02-5.59,6.16,1.96"/>
		<path class="st4" d="M259.29,456.5c-3.28,1.71-3.94-1.22-3.94-1.22"/>
		<path class="st4" d="M255.36,455.39c0.45-4.54,5.76-3.57,3.94,1.25"/>
		<path class="st4" d="M258.33,455.7c-1.5,0.78-1.8-0.56-1.8-0.56"/>
		<path class="st4" d="M256.53,455.19c0.2-2.07,2.63-1.63,1.8,0.57"/>
		<line class="st4" x1="267.1" y1="443.56" x2="277.61" y2="438.81"/>
		<line class="st4" x1="280.38" y1="446.73" x2="290.08" y2="442.18"/>
		<line class="st4" x1="292.85" y1="434.26" x2="301.35" y2="429.32"/>
		<path class="st4" d="M311.64,434.26c0,0,6.73-3.56,7.91-3.96"/>
		<line class="st4" x1="310.95" y1="420.12" x2="318.17" y2="417.05"/>
		<path class="st4" d="M270.89,455.28c0.99-0.64,4.95-2.28,4.95-2.28"/>
		<path class="st4" d="M319.55,423.38c1.38-0.2,8.25-3.26,8.25-3.26"/>
		<path class="st4" d="M285.23,432.28c0.3-0.59,11.18-5.54,11.18-5.54"/>
		<path class="st4" d="M322.5,427.3c1.21-0.56,5.31-3.92,5.31-3.92"/>
		<line class="st4" x1="298.19" y1="441.19" x2="306.5" y2="437.43"/>
		<line class="st4" x1="306.5" y1="423.38" x2="311.64" y2="423.38"/>
	</g>
	<g>
		<path class="st3" d="M351.03,438.21l-67.66,35.22c-13.87,7.22-16.62-5.14-16.62-5.14"/>
		<path class="st3" d="M266.75,468.73c1.88-19.19,25.32-16.07,17.61,4.3"/>
		<line class="st3" x1="341.9" y1="421.26" x2="274.24" y2="456.47"/>
		<path class="st1" d="M333.12,433.63"/>
		<path class="st1" d="M349.73,438.77"/>
		<path class="st3" d="M341.34,422.32c-0.76-0.94,16.31-1.06,8.59,16.39"/>
		<path class="st4" d="M282.34,471.92c-11.14,5.8-13.34-4.13-13.34-4.13"/>
		<path class="st4" d="M269,468.15c1.51-15.41,19.53-12.11,13.34,4.25"/>
		<path class="st4" d="M281.29,471.12c-9.17,4.77-10.99-3.4-10.99-3.4"/>
		<path class="st4" d="M270.31,468.01c1.24-12.69,16.09-9.97,10.99,3.5"/>
		<path class="st4" d="M280.17,470.01c-7.1,3.7-8.51-2.63-8.51-2.63"/>
		<path class="st4" d="M271.67,467.6c0.96-9.82,12.45-7.72,8.51,2.71"/>
		<path class="st4" d="M279.11,468.96c-5.14,2.68-6.16-1.91-6.16-1.91"/>
		<path class="st4" d="M272.96,467.22c0.7-7.11,9.02-5.59,6.16,1.96"/>
		<path class="st4" d="M278.11,467.97c-3.28,1.71-3.94-1.22-3.94-1.22"/>
		<path class="st4" d="M274.17,466.86c0.45-4.54,5.76-3.57,3.94,1.25"/>
		<path class="st4" d="M277.14,467.16c-1.5,0.78-1.8-0.56-1.8-0.56"/>
		<path class="st4" d="M275.35,466.66c0.2-2.07,2.63-1.63,1.8,0.57"/>
		<line class="st4" x1="285.91" y1="455.03" x2="296.43" y2="450.28"/>
		<line class="st4" x1="299.2" y1="458.2" x2="308.89" y2="453.65"/>
		<line class="st4" x1="311.66" y1="445.73" x2="320.17" y2="440.79"/>
		<path class="st4" d="M330.46,445.73c0,0,6.73-3.56,7.91-3.96"/>
		<line class="st4" x1="329.76" y1="431.59" x2="336.99" y2="428.52"/>
		<path class="st4" d="M289.7,466.75c0.99-0.64,4.95-2.28,4.95-2.28"/>
		<path class="st4" d="M338.37,434.85c1.38-0.2,8.25-3.26,8.25-3.26"/>
		<path class="st4" d="M304.04,443.75c0.3-0.59,11.18-5.54,11.18-5.54"/>
		<line class="st4" x1="317" y1="452.66" x2="325.31" y2="448.9"/>
		<line class="st4" x1="325.31" y1="434.85" x2="330.46" y2="434.85"/>
		<path class="st4" d="M341.31,438.77c1.21-0.56,5.31-3.92,5.31-3.92"/>
		<path class="st3" d="M371.45,449.55l-67.66,35.22c-13.87,7.22-16.62-5.14-16.62-5.14"/>
		<path class="st3" d="M287.17,480.07c1.88-19.19,25.32-16.07,17.61,4.3"/>
		<line class="st3" x1="362.32" y1="432.59" x2="294.66" y2="467.81"/>
		<path class="st1" d="M353.54,444.97"/>
		<path class="st1" d="M370.15,450.11"/>
		<path class="st3" d="M361.76,433.66c-0.76-0.94,16.31-1.06,8.59,16.39"/>
		<path class="st4" d="M302.76,483.26c-11.14,5.8-13.34-4.13-13.34-4.13"/>
		<path class="st4" d="M289.42,479.49c1.51-15.41,19.53-12.11,13.34,4.25"/>
		<path class="st4" d="M301.71,482.45c-9.17,4.77-10.99-3.4-10.99-3.4"/>
		<path class="st4" d="M290.73,479.35c1.24-12.69,16.09-9.97,10.99,3.5"/>
		<path class="st4" d="M300.59,481.34c-7.1,3.7-8.51-2.63-8.51-2.63"/>
		<path class="st4" d="M292.09,478.94c0.96-9.82,12.45-7.72,8.51,2.71"/>
		<path class="st4" d="M299.53,480.3c-5.14,2.68-6.16-1.91-6.16-1.91"/>
		<path class="st4" d="M293.38,478.56c0.7-7.11,9.02-5.59,6.16,1.96"/>
		<path class="st4" d="M298.53,479.3c-3.28,1.71-3.94-1.22-3.94-1.22"/>
		<path class="st4" d="M294.59,478.19c0.45-4.54,5.76-3.57,3.94,1.25"/>
		<path class="st4" d="M297.56,478.5c-1.5,0.78-1.8-0.56-1.8-0.56"/>
		<path class="st4" d="M295.77,477.99c0.2-2.07,2.63-1.63,1.8,0.57"/>
		<line class="st4" x1="306.33" y1="466.37" x2="316.85" y2="461.62"/>
		<line class="st4" x1="319.62" y1="469.53" x2="329.31" y2="464.98"/>
		<line class="st4" x1="332.08" y1="457.07" x2="340.59" y2="452.12"/>
		<path class="st4" d="M350.88,457.07c0,0,6.73-3.56,7.91-3.96"/>
		<line class="st4" x1="350.18" y1="442.92" x2="357.41" y2="439.86"/>
		<path class="st4" d="M310.12,478.09c0.99-0.64,4.95-2.28,4.95-2.28"/>
		<path class="st4" d="M358.79,446.19c1.38-0.2,8.25-3.26,8.25-3.26"/>
		<path class="st4" d="M324.46,455.09c0.3-0.59,11.18-5.54,11.18-5.54"/>
		<path class="st4" d="M361.73,450.11c1.21-0.56,5.31-3.92,5.31-3.92"/>
		<line class="st4" x1="337.42" y1="463.99" x2="345.73" y2="460.23"/>
		<line class="st4" x1="345.73" y1="446.19" x2="350.88" y2="446.19"/>
	</g>
	<g>
		<path class="st3" d="M403.65,364.23l-67.41,35.08c-13.82,7.19-16.56-5.12-16.56-5.12"/>
		<path class="st3" d="M319.69,394.64c1.87-19.12,25.23-16.01,17.54,4.29"/>
		<line class="st3" x1="394.56" y1="347.34" x2="327.15" y2="382.42"/>
		<path class="st1" d="M385.8,359.67"/>
		<path class="st1" d="M402.36,364.79"/>
		<path class="st3" d="M393.99,348.4c-0.75-0.93,16.25-1.06,8.56,16.33"/>
		<path class="st4" d="M335.22,397.82c-11.09,5.77-13.29-4.11-13.29-4.11"/>
		<path class="st4" d="M321.93,394.06c1.5-15.35,19.46-12.06,13.29,4.23"/>
		<path class="st4" d="M334.18,397.01c-9.14,4.76-10.95-3.39-10.95-3.39"/>
		<path class="st4" d="M323.23,393.92c1.24-12.64,16.03-9.94,10.95,3.49"/>
		<path class="st4" d="M333.06,395.91c-7.07,3.68-8.47-2.62-8.47-2.62"/>
		<path class="st4" d="M324.59,393.51c0.96-9.78,12.41-7.69,8.47,2.7"/>
		<path class="st4" d="M332,394.87c-5.12,2.67-6.13-1.9-6.13-1.9"/>
		<path class="st4" d="M325.87,393.13c0.69-7.08,8.98-5.57,6.13,1.95"/>
		<path class="st4" d="M331,393.88c-3.27,1.7-3.92-1.21-3.92-1.21"/>
		<path class="st4" d="M327.08,392.77c0.44-4.53,5.74-3.56,3.92,1.25"/>
		<path class="st4" d="M330.04,393.08c-1.49,0.78-1.79-0.55-1.79-0.55"/>
		<path class="st4" d="M328.25,392.57c0.2-2.07,2.62-1.62,1.79,0.57"/>
		<line class="st4" x1="338.78" y1="380.99" x2="349.25" y2="376.26"/>
		<line class="st4" x1="352.01" y1="384.14" x2="361.67" y2="379.61"/>
		<line class="st4" x1="364.43" y1="371.72" x2="372.91" y2="366.8"/>
		<path class="st4" d="M383.15,371.72c0,0,6.7-3.55,7.88-3.94"/>
		<line class="st4" x1="382.46" y1="357.63" x2="389.66" y2="354.58"/>
		<path class="st4" d="M342.55,392.66c0.99-0.64,4.93-2.27,4.93-2.27"/>
		<path class="st4" d="M391.04,360.88c1.38-0.2,8.22-3.25,8.22-3.25"/>
		<path class="st4" d="M356.84,369.75c0.3-0.59,11.14-5.52,11.14-5.52"/>
		<line class="st4" x1="369.75" y1="378.62" x2="378.03" y2="374.88"/>
		<line class="st4" x1="378.03" y1="360.88" x2="383.15" y2="360.88"/>
		<path class="st4" d="M393.97,364.79c1.21-0.56,5.29-3.91,5.29-3.91"/>
		<path class="st3" d="M424,375.53l-67.41,35.08c-13.82,7.19-16.56-5.12-16.56-5.12"/>
		<path class="st3" d="M340.03,405.93c1.87-19.12,25.23-16.01,17.54,4.29"/>
		<line class="st3" x1="414.9" y1="358.63" x2="347.49" y2="393.72"/>
		<path class="st1" d="M406.15,370.96"/>
		<path class="st1" d="M422.7,376.08"/>
		<path class="st3" d="M414.34,359.69c-0.75-0.93,16.25-1.06,8.56,16.33"/>
		<path class="st4" d="M355.56,409.11c-11.09,5.77-13.29-4.11-13.29-4.11"/>
		<path class="st4" d="M342.27,405.35c1.5-15.35,19.46-12.06,13.29,4.23"/>
		<path class="st4" d="M354.52,408.31c-9.14,4.76-10.95-3.39-10.95-3.39"/>
		<path class="st4" d="M343.57,405.21c1.24-12.64,16.03-9.94,10.95,3.49"/>
		<path class="st4" d="M353.4,407.2c-7.07,3.68-8.47-2.62-8.47-2.62"/>
		<path class="st4" d="M344.93,404.81c0.96-9.78,12.41-7.69,8.47,2.7"/>
		<path class="st4" d="M352.35,406.16c-5.12,2.67-6.13-1.9-6.13-1.9"/>
		<path class="st4" d="M346.21,404.43c0.69-7.08,8.98-5.57,6.13,1.95"/>
		<path class="st4" d="M351.35,405.17c-3.27,1.7-3.92-1.21-3.92-1.21"/>
		<path class="st4" d="M347.43,404.06c0.44-4.53,5.74-3.56,3.92,1.25"/>
		<path class="st4" d="M350.38,404.37c-1.49,0.78-1.79-0.55-1.79-0.55"/>
		<path class="st4" d="M348.6,403.86c0.2-2.07,2.62-1.62,1.79,0.57"/>
		<line class="st4" x1="359.12" y1="392.28" x2="369.6" y2="387.55"/>
		<line class="st4" x1="372.36" y1="395.44" x2="382.01" y2="390.9"/>
		<line class="st4" x1="384.77" y1="383.02" x2="393.25" y2="378.09"/>
		<path class="st4" d="M403.5,383.02c0,0,6.7-3.55,7.88-3.94"/>
		<line class="st4" x1="402.81" y1="368.93" x2="410" y2="365.87"/>
		<path class="st4" d="M362.9,403.96c0.99-0.64,4.93-2.27,4.93-2.27"/>
		<path class="st4" d="M411.38,372.18c1.38-0.2,8.22-3.25,8.22-3.25"/>
		<path class="st4" d="M377.19,381.05c0.3-0.59,11.14-5.52,11.14-5.52"/>
		<path class="st4" d="M414.31,376.08c1.21-0.56,5.29-3.91,5.29-3.91"/>
		<line class="st4" x1="390.1" y1="389.92" x2="398.37" y2="386.17"/>
		<line class="st4" x1="398.37" y1="372.18" x2="403.5" y2="372.18"/>
	</g>
	<g>
		<path class="st3" d="M442.74,386.95l-67.41,35.08c-13.82,7.19-16.56-5.12-16.56-5.12"/>
		<path class="st3" d="M358.78,417.36c1.87-19.12,25.23-16.01,17.54,4.29"/>
		<line class="st3" x1="433.65" y1="370.06" x2="366.24" y2="405.14"/>
		<path class="st1" d="M424.89,382.39"/>
		<path class="st1" d="M441.45,387.51"/>
		<path class="st3" d="M433.08,371.12c-0.75-0.93,16.25-1.06,8.56,16.33"/>
		<path class="st4" d="M374.31,420.54c-11.09,5.77-13.29-4.11-13.29-4.11"/>
		<path class="st4" d="M361.02,416.78c1.5-15.35,19.46-12.06,13.29,4.23"/>
		<path class="st4" d="M373.27,419.73c-9.14,4.76-10.95-3.39-10.95-3.39"/>
		<path class="st4" d="M362.32,416.64c1.24-12.64,16.03-9.94,10.95,3.49"/>
		<path class="st4" d="M372.15,418.63c-7.07,3.68-8.47-2.62-8.47-2.62"/>
		<path class="st4" d="M363.68,416.23c0.96-9.78,12.41-7.69,8.47,2.7"/>
		<path class="st4" d="M371.09,417.59c-5.12,2.67-6.13-1.9-6.13-1.9"/>
		<path class="st4" d="M364.96,415.85c0.69-7.08,8.98-5.57,6.13,1.95"/>
		<path class="st4" d="M370.09,416.6c-3.27,1.7-3.92-1.21-3.92-1.21"/>
		<path class="st4" d="M366.17,415.49c0.44-4.53,5.74-3.56,3.92,1.25"/>
		<path class="st4" d="M369.13,415.8c-1.49,0.78-1.79-0.55-1.79-0.55"/>
		<path class="st4" d="M367.34,415.29c0.2-2.07,2.62-1.62,1.79,0.57"/>
		<line class="st4" x1="377.87" y1="403.71" x2="388.34" y2="398.98"/>
		<line class="st4" x1="391.1" y1="406.86" x2="400.76" y2="402.33"/>
		<line class="st4" x1="403.52" y1="394.44" x2="411.99" y2="389.52"/>
		<path class="st4" d="M422.24,394.44c0,0,6.7-3.55,7.88-3.94"/>
		<line class="st4" x1="421.55" y1="380.35" x2="428.75" y2="377.3"/>
		<path class="st4" d="M381.64,415.38c0.99-0.64,4.93-2.27,4.93-2.27"/>
		<path class="st4" d="M430.13,383.6c1.38-0.2,8.22-3.25,8.22-3.25"/>
		<path class="st4" d="M395.93,392.47c0.3-0.59,11.14-5.52,11.14-5.52"/>
		<line class="st4" x1="408.84" y1="401.34" x2="417.12" y2="397.6"/>
		<line class="st4" x1="417.12" y1="383.6" x2="422.24" y2="383.6"/>
		<path class="st4" d="M433.06,387.51c1.21-0.56,5.29-3.91,5.29-3.91"/>
		<path class="st3" d="M463.09,398.25l-67.41,35.08c-13.82,7.19-16.56-5.12-16.56-5.12"/>
		<path class="st3" d="M379.12,428.65c1.87-19.12,25.23-16.01,17.54,4.29"/>
		<line class="st3" x1="453.99" y1="381.36" x2="386.58" y2="416.44"/>
		<path class="st1" d="M445.24,393.68"/>
		<path class="st1" d="M461.79,398.8"/>
		<path class="st3" d="M453.43,382.41c-0.75-0.93,16.25-1.06,8.56,16.33"/>
		<path class="st4" d="M394.65,431.83c-11.09,5.77-13.29-4.11-13.29-4.11"/>
		<path class="st4" d="M381.36,428.07c1.5-15.35,19.46-12.06,13.29,4.23"/>
		<path class="st4" d="M393.61,431.03c-9.14,4.76-10.95-3.39-10.95-3.39"/>
		<path class="st4" d="M382.66,427.93c1.24-12.64,16.03-9.94,10.95,3.49"/>
		<path class="st4" d="M392.49,429.92c-7.07,3.68-8.47-2.62-8.47-2.62"/>
		<path class="st4" d="M384.02,427.53c0.96-9.78,12.41-7.69,8.47,2.7"/>
		<path class="st4" d="M391.44,428.88c-5.12,2.67-6.13-1.9-6.13-1.9"/>
		<path class="st4" d="M385.3,427.15c0.69-7.08,8.98-5.57,6.13,1.95"/>
		<path class="st4" d="M390.44,427.89c-3.27,1.7-3.92-1.21-3.92-1.21"/>
		<path class="st4" d="M386.52,426.78c0.44-4.53,5.74-3.56,3.92,1.25"/>
		<path class="st4" d="M389.47,427.09c-1.49,0.78-1.79-0.55-1.79-0.55"/>
		<path class="st4" d="M387.68,426.58c0.2-2.07,2.62-1.62,1.79,0.57"/>
		<line class="st4" x1="398.21" y1="415" x2="408.69" y2="410.27"/>
		<line class="st4" x1="411.45" y1="418.16" x2="421.1" y2="413.62"/>
		<line class="st4" x1="423.86" y1="405.74" x2="432.34" y2="400.81"/>
		<path class="st4" d="M442.59,405.74c0,0,6.7-3.55,7.88-3.94"/>
		<line class="st4" x1="441.9" y1="391.65" x2="449.09" y2="388.59"/>
		<path class="st4" d="M401.99,426.68c0.99-0.64,4.93-2.27,4.93-2.27"/>
		<path class="st4" d="M450.47,394.9c1.38-0.2,8.22-3.25,8.22-3.25"/>
		<path class="st4" d="M416.27,403.77c0.3-0.59,11.14-5.52,11.14-5.52"/>
		<path class="st4" d="M453.4,398.8c1.21-0.56,5.29-3.91,5.29-3.91"/>
		<line class="st4" x1="429.19" y1="412.64" x2="437.46" y2="408.89"/>
		<line class="st4" x1="437.46" y1="394.9" x2="442.59" y2="394.9"/>
	</g>
</g>
</svg>
