<?xml version="1.0" encoding="utf-8"?>
<!-- Generator: Adobe Illustrator 25.3.0, SVG Export Plug-In . SVG Version: 6.00 Build 0)  -->
<svg version="1.1" xmlns="http://www.w3.org/2000/svg" xmlns:xlink="http://www.w3.org/1999/xlink" x="0px" y="0px"
	 viewBox="0 0 500 500" style="enable-background:new 0 0 500 500;" xml:space="preserve">
<style type="text/css">
	.st0{fill:none;stroke:#000000;stroke-width:2;stroke-miterlimit:10;}
	.st1{fill:none;stroke:#000000;stroke-miterlimit:10;}
	.st2{fill:none;stroke:#000000;stroke-width:0.5;stroke-miterlimit:10;}
</style>
<g id="pipes">
	<g id="pipe">
		<path class="st0" d="M52.04,370.33l8.07-221.7"/>
		<path class="st0" d="M60.11,148.63"/>
		<path class="st0" d="M98,370.33l-8.07-221.7c-17.17,10.12-29.82,0-29.82,0"/>
		<path class="st0" d="M89.93,148.63"/>
		<path class="st0" d="M90.32,148.2c-17.17-10.12-30.51,0.69-30.51,0.69"/>
		<path d="M92.47,215.22c-19.99,11.78-34.71,0-34.71,0l1.3-17.93c0,0,13.62,10.89,32.09,0L92.47,215.22z"/>
		<path d="M94.17,252.59c-22.01,12.97-38.23,0-38.23,0l1.43-19.74c0,0,14.99,12,35.34,0L94.17,252.59z"/>
		<path d="M95.11,290.99c-23.08,13.61-40.09,0-40.09,0l1.5-20.7c0,0,15.72,12.58,37.07,0L95.11,290.99z"/>
		<path d="M92.47,180.46c-19.99,11.78-34.71,0-34.71,0l1.3-17.93c0,0,13.62,10.89,32.09,0L92.47,180.46z"/>
		<path d="M96.94,331.88c-25.13,14.81-43.64,0-43.64,0l1.64-22.54c0,0,17.12,13.69,40.35,0L96.94,331.88z"/>
		<path d="M99.09,378.86c-27.67,16.31-48.06,0-48.06,0l1.8-24.82c0,0,18.85,15.08,44.43,0L99.09,378.86z"/>
	</g>
	<g id="pipe_1_">
		<path class="st0" d="M127.14,453.85l8.07-221.7"/>
		<path class="st0" d="M135.21,232.15"/>
		<path class="st0" d="M173.11,453.85l-8.07-221.7c-17.17,10.12-29.82,0-29.82,0"/>
		<path class="st0" d="M165.03,232.15"/>
		<path class="st0" d="M165.42,231.73c-17.17-10.12-30.51,0.69-30.51,0.69"/>
		<path d="M167.57,298.75c-19.99,11.78-34.71,0-34.71,0l1.3-17.93c0,0,13.62,10.89,32.09,0L167.57,298.75z"/>
		<path d="M169.28,336.12c-22.01,12.97-38.23,0-38.23,0l1.43-19.74c0,0,14.99,12,35.34,0L169.28,336.12z"/>
		<path d="M170.21,374.52c-23.08,13.61-40.09,0-40.09,0l1.5-20.7c0,0,15.72,12.58,37.07,0L170.21,374.52z"/>
		<path d="M167.57,263.98c-19.99,11.78-34.71,0-34.71,0l1.3-17.93c0,0,13.62,10.89,32.09,0L167.57,263.98z"/>
		<path d="M172.05,415.4c-25.13,14.81-43.64,0-43.64,0l1.64-22.54c0,0,17.12,13.69,40.35,0L172.05,415.4z"/>
		<path d="M174.19,462.39c-27.67,16.31-48.06,0-48.06,0l1.8-24.82c0,0,18.85,15.08,44.43,0L174.19,462.39z"/>
	</g>
	<g id="pipe_2_">
		<path class="st0" d="M203.23,368.49l8.07-221.7"/>
		<path class="st0" d="M211.3,146.79"/>
		<path class="st0" d="M249.19,368.49l-8.07-221.7c-17.17,10.12-29.82,0-29.82,0"/>
		<path class="st0" d="M241.12,146.79"/>
		<path class="st0" d="M241.5,146.37c-17.17-10.12-30.51,0.69-30.51,0.69"/>
		<path d="M243.65,213.38c-19.99,11.78-34.71,0-34.71,0l1.3-17.93c0,0,13.62,10.89,32.09,0L243.65,213.38z"/>
		<path d="M245.36,250.75c-22.01,12.97-38.23,0-38.23,0l1.43-19.74c0,0,14.99,12,35.34,0L245.36,250.75z"/>
		<path d="M246.29,289.15c-23.08,13.61-40.09,0-40.09,0l1.5-20.7c0,0,15.72,12.58,37.07,0L246.29,289.15z"/>
		<path d="M243.65,178.62c-19.99,11.78-34.71,0-34.71,0l1.3-17.93c0,0,13.62,10.89,32.09,0L243.65,178.62z"/>
		<path d="M248.13,330.04c-25.13,14.81-43.64,0-43.64,0l1.64-22.54c0,0,17.12,13.69,40.35,0L248.13,330.04z"/>
		<path d="M250.28,377.02c-27.67,16.31-48.06,0-48.06,0l1.8-24.82c0,0,18.85,15.08,44.43,0L250.28,377.02z"/>
	</g>
</g>
<g id="smoke_clouds">
	<path d="M63.7,113.13c-23.62-16.59-45.26-1.12-41.89-21.65S13.1,67.3,31.37,64.77c18.27-2.53,24.74-3.94,32.33,3.37
		s12.93,9,14.34,17.43s-8.43,4.78,1.41,11.53c9.84,6.75,13.49,15.46,10.96,18.84c-2.53,3.37-5.12,4.22-9.73,7.59
		s-5.73,12.65-6.86,14.34c-1.12,1.69-10.4-14.9-10.12-15.74"/>
	<path d="M139.81,216.6c-8.58-11.18-13.24-26.53-12.21-29.39c1.03-2.86,14.29-7.02,17.41-4.42c3.12,2.6,5.98-9.62,8.84-10.66
		c2.86-1.04,14.32,2.27,16.27,7.64c1.94,5.37,5.08,12.2,0,14.51c-5.08,2.31-10.28,2.46-11.84,6.94c-1.56,4.47-1.82,8.63-0.26,13.06
		c1.56,4.42-2.08,8.17-3.9,8.37c-1.82,0.21-9.36-1.7-9.36-1.7"/>
	<path d="M220.2,123.35c-1.01-0.14-2.57-0.2-4.32-0.26c-4.3-0.15-9.69-0.29-10.58-1.66c-1.25-1.93-10.24-4.87-7.24-12.6
		s14.39-10.19,11-15.23c-3.39-5.04-12.37-9.78-6.64-13.72c5.73-3.95,11.77-9.21,20.26-4.29c8.5,4.92,17.1,6.2,12.19,16.75
		s-7.95,16.81,5.77,15.41s29.65-1.36,30.18,3.25s-9.71,14.15-17.28,13.98c-7.57-0.17-23.83,3.48-24.83,4.93
		c-1,1.45-4.95,5.33-4.95,5.33l-9.77,2.76l-1.35-10l4.55-7.76"/>
	<path d="M130.17,150.85c-6.31-28.16-32.73-31.29-16.43-44.2s9.82-23.75,25.04-13.33s20.95,13.73,21.65,24.25
		c0.7,10.52,3.51,15.36-1.12,22.54c-4.63,7.19-9.46-2.14-6.72,9.47c2.74,11.61-0.42,20.52-4.56,21.31
		c-4.14,0.79-6.63-0.33-12.31-0.93c-5.68-0.6-12.75,5.5-14.72,5.99c-1.97,0.49,2.33-18.02,3.11-18.46"/>
	<path d="M245.1,92.69c-5.02-14.39-4.59-31.72-2.56-34.31c2.03-2.59,17.05-2.36,19.37,1.37c2.32,3.73,9.4-7.85,12.69-7.94
		s13.93,7.19,14.1,13.35c0.17,6.17,1.08,14.25-4.92,14.89c-6,0.64-11.39-0.96-14.51,3.1c-3.12,4.06-4.8,8.24-4.7,13.31
		c0.1,5.07-4.91,7.67-6.84,7.27s-9.03-4.92-9.03-4.92"/>
	<path d="M90.4,70.57c-1.01,0.09-2.55,0.38-4.27,0.71c-4.22,0.82-9.51,1.89-10.69,0.75c-1.65-1.6-11.07-2.45-9.88-10.66
		s11.74-13.16,7.31-17.3c-4.43-4.15-14.24-6.76-9.55-11.89s9.4-11.61,18.79-8.72s18.06,2.21,15.63,13.59
		c-2.43,11.38-3.98,18.17,9.08,13.73s28.59-7.97,30.14-3.6s-6.3,15.96-13.71,17.49c-7.41,1.53-22.44,8.73-23.1,10.36
		c-0.65,1.64-3.63,6.3-3.63,6.3l-8.91,4.88l-3.55-9.45l2.7-8.58"/>
</g>
<g id="building">
	<g id="back_box">
		<polyline class="st0" points="445.36,241.69 350.61,284.55 350.61,299.18 		"/>
		<g>
			<line class="st0" x1="248.23" y1="330.48" x2="322.59" y2="366.66"/>
			<line class="st0" x1="444.58" y1="283.04" x2="444.58" y2="242.37"/>
			<line class="st0" x1="244.51" y1="231.59" x2="306.67" y2="203.47"/>
			<line class="st0" x1="365.65" y1="204.79" x2="444.47" y2="241.94"/>
			<line class="st0" x1="244.84" y1="233.98" x2="351.46" y2="284.55"/>
		</g>
		<g id="door_2_">
			<polyline id="door_3_" class="st0" points="282.85,347.78 282.85,315.44 266.07,307.85 266.07,339.82 			"/>
			<line class="st1" x1="280.69" y1="331.39" x2="278.58" y2="330.61"/>
		</g>
		<g id="door_4_">
			<polyline id="door_5_" class="st0" points="299.58,355.35 299.58,323.01 282.8,315.42 282.8,347.39 			"/>
			<line class="st1" x1="287.08" y1="333.47" x2="284.98" y2="332.7"/>
		</g>
		<g id="windows_1_">
			<g>
				<polyline class="st1" points="332.59,306.51 333.3,284.55 309.85,274.68 309.25,311.57 322.59,317.12 				"/>
				<line class="st1" x1="320.41" y1="279.77" x2="319.82" y2="315.68"/>
				<line class="st1" x1="325.83" y1="281.9" x2="325.24" y2="310.73"/>
				<line class="st1" x1="315" y1="276.98" x2="314.41" y2="313.25"/>
				<line class="st1" x1="333.02" y1="293.2" x2="309.86" y2="283.97"/>
			</g>
			<g>
				<polygon class="st1" points="300.9,271.6 300.3,308.07 278.73,298.86 279.33,261.97 				"/>
				<line class="st1" x1="289.89" y1="267.06" x2="289.31" y2="302.97"/>
				<line class="st1" x1="295.32" y1="269.19" x2="294.72" y2="305.62"/>
				<line class="st1" x1="284.48" y1="264.27" x2="283.89" y2="300.54"/>
				<line class="st1" x1="300.58" y1="280.5" x2="279.35" y2="271.26"/>
			</g>
			<g>
				<polygon class="st1" points="271.58,257.94 270.98,294.41 249.41,285.21 250.01,248.31 				"/>
				<line class="st1" x1="260.58" y1="253.41" x2="259.99" y2="289.31"/>
				<line class="st1" x1="266" y1="255.53" x2="265.41" y2="291.96"/>
				<line class="st1" x1="255.16" y1="250.61" x2="254.57" y2="286.89"/>
				<line class="st1" x1="271.27" y1="266.84" x2="250.03" y2="257.6"/>
			</g>
		</g>
		<g id="door_6_">
			<polyline id="door_7_" class="st0" points="358.22,210.94 358.22,178.98 341.44,186.56 341.44,218.91 			"/>
			<line class="st1" x1="343.6" y1="202.51" x2="345.71" y2="201.74"/>
		</g>
		<g>
			<polyline class="st0" points="335.2,178.98 363.74,164.92 335.2,152.7 306.67,166.75 306.88,207.41 335.2,221.43 335.2,178.32 
							"/>
			<path class="st0" d="M363.74,189.91"/>
			<line class="st0" x1="335.2" y1="178.98" x2="306.67" y2="166.75"/>
			<path class="st0" d="M342.44,219.22"/>
			<path class="st0" d="M342.44,219.22"/>
			<polyline class="st0" points="335.2,221.43 364.9,208.81 364.9,164.92 			"/>
		</g>
		<g>
			<g>
				<polyline class="st0" points="269.02,231.2 268.77,222.08 290,231.17 290,240.33 				"/>
				<polyline class="st0" points="290,231.17 306.76,222.74 306.76,232.37 				"/>
				<polyline class="st0" points="268,221.75 286.24,213.12 307.32,222.18 				"/>
				<polygon class="st0" points="277.77,221.21 286.68,216.78 299.27,222.18 290.63,227.11 				"/>
			</g>
			<g>
				<polyline class="st0" points="299.4,245.97 299.15,236.85 320.39,245.93 320.39,255.09 				"/>
				<polyline class="st0" points="320.39,245.93 337.14,237.5 337.14,247.13 				"/>
				<polyline class="st0" points="298.38,236.52 316.63,227.88 337.71,236.94 				"/>
				<polygon class="st0" points="308.15,235.97 317.06,231.54 329.66,236.94 321.01,241.88 				"/>
			</g>
			<g>
				<polyline class="st0" points="331.97,260.72 331.72,251.6 352.96,260.69 352.96,269.84 				"/>
				<polyline class="st0" points="352.96,260.69 369.71,252.25 369.71,261.89 				"/>
				<polyline class="st0" points="330.95,251.27 349.2,242.63 370.28,251.69 				"/>
				<polygon class="st0" points="340.72,250.73 349.63,246.3 362.23,251.69 353.58,256.63 				"/>
			</g>
		</g>
		<g id="safety_border">
			<polyline class="st1" points="252.05,232.41 252.05,219.92 306.67,197.01 			"/>
			<polyline class="st1" points="436.05,242.95 436.05,230.46 364.9,198.27 436.05,230.46 392.34,248.38 			"/>
			<polyline class="st1" points="380.6,253.09 351.46,267.5 351.46,279.99 			"/>
			<line class="st1" x1="252.05" y1="219.92" x2="351.46" y2="267.5"/>
			<g>
				<line class="st1" x1="252.05" y1="226.82" x2="351.46" y2="274.4"/>
				<line class="st1" x1="380.6" y1="259.86" x2="351.46" y2="274.27"/>
				<line class="st1" x1="252.05" y1="226.16" x2="306.67" y2="203.25"/>
				<line class="st1" x1="435.46" y1="236.02" x2="364.31" y2="203.82"/>
				<line class="st1" x1="436.54" y1="237.01" x2="392.83" y2="254.93"/>
			</g>
		</g>
	</g>
	<g id="front_box">
		<g id="box_carcas">
			<polyline class="st0" points="322.13,406.78 387.92,438.8 387.92,343.05 482.66,300.64 			"/>
			<line class="st0" x1="387.92" y1="439.33" x2="482.66" y2="396.47"/>
			<line class="st0" x1="481.89" y1="396.63" x2="481.89" y2="300.88"/>
			<polyline class="st0" points="322.59,407.81 322.59,312.06 387.92,343.05 			"/>
			<line class="st0" x1="322.13" y1="312.06" x2="416.87" y2="269.21"/>
			<line class="st0" x1="415.83" y1="269.4" x2="481.89" y2="300.88"/>
		</g>
		<g id="garage_door">
			<polyline class="st0" points="332.66,410.89 332.66,345.94 375.41,367.08 375.41,432.03 			"/>
			<g>
				<line class="st0" x1="332.78" y1="357.71" x2="375.53" y2="378.85"/>
				<line class="st0" x1="332.66" y1="367.85" x2="375.41" y2="388.99"/>
				<line class="st0" x1="332.78" y1="377.31" x2="375.53" y2="398.45"/>
				<line class="st0" x1="332.62" y1="386.23" x2="375.36" y2="407.37"/>
				<line class="st0" x1="332.62" y1="395.66" x2="375.36" y2="416.8"/>
				<line class="st0" x1="332.5" y1="404.04" x2="375.24" y2="425.18"/>
			</g>
		</g>
		<g id="door_1_">
			<polyline id="door" class="st0" points="455.12,409.43 455.12,377.08 471.9,369.5 471.9,401.46 			"/>
			<line class="st1" x1="457.28" y1="393.03" x2="459.39" y2="392.26"/>
		</g>
		<g id="windows">
			<g>
				<polygon class="st1" points="394.46,353.11 395.05,389.58 416.63,380.37 416.03,343.48 				"/>
				<line class="st1" x1="405.46" y1="348.57" x2="406.05" y2="384.48"/>
				<line class="st1" x1="400.04" y1="350.69" x2="400.63" y2="387.13"/>
				<line class="st1" x1="410.87" y1="345.78" x2="411.47" y2="382.05"/>
				<line class="st1" x1="394.77" y1="362" x2="416.01" y2="352.77"/>
			</g>
			<g>
				<polygon class="st1" points="424.98,340.4 425.57,376.87 447.14,367.66 446.54,330.77 				"/>
				<line class="st1" x1="435.98" y1="335.86" x2="436.56" y2="371.77"/>
				<line class="st1" x1="430.55" y1="337.98" x2="431.15" y2="374.42"/>
				<line class="st1" x1="441.39" y1="333.07" x2="441.98" y2="369.34"/>
				<line class="st1" x1="425.29" y1="349.29" x2="446.52" y2="340.06"/>
			</g>
			<g>
				<polygon class="st1" points="454.29,326.74 454.89,363.21 476.46,354 475.86,317.11 				"/>
				<line class="st1" x1="465.3" y1="322.2" x2="465.88" y2="358.11"/>
				<line class="st1" x1="459.87" y1="324.32" x2="460.47" y2="360.76"/>
				<line class="st1" x1="470.71" y1="319.41" x2="471.3" y2="355.68"/>
				<line class="st1" x1="454.61" y1="335.63" x2="475.84" y2="326.4"/>
			</g>
		</g>
		<polygon id="panel" class="st1" points="379.5,407.25 379.5,416.42 383.71,417.9 383.71,408.2 		"/>
		<g>
			<g id="ventilation">
				<polyline class="st0" points="413.49,320.71 413.49,308.64 436.32,296.31 436.55,310.73 				"/>
				<polyline class="st0" points="402.71,314.62 402.71,302.55 426.38,289.76 437.07,295.53 				"/>
				<g>
					<line class="st2" x1="402.53" y1="302.55" x2="413.49" y2="308.64"/>
					<line class="st2" x1="405.39" y1="300.19" x2="416.36" y2="306.29"/>
					<line class="st2" x1="409.2" y1="298.32" x2="420.17" y2="304.42"/>
					<line class="st2" x1="413.21" y1="297.15" x2="424.18" y2="303.24"/>
					<line class="st2" x1="416.08" y1="294.79" x2="427.04" y2="300.88"/>
					<line class="st2" x1="419.89" y1="292.92" x2="430.85" y2="299.01"/>
					<line class="st2" x1="422.86" y1="291.6" x2="433.89" y2="297.58"/>
					<line class="st2" x1="402.53" y1="306.61" x2="413.49" y2="312.7"/>
					<line class="st2" x1="402.74" y1="310.95" x2="413.71" y2="317.04"/>
				</g>
			</g>
			<polygon class="st2" points="416.77,318.12 416.77,311.31 421.41,309 421.41,316.5 416.77,318.89 			"/>
			<polygon class="st2" points="423.05,314.71 423.05,307.91 427.69,305.6 427.69,313.1 423.05,315.49 			"/>
			<polygon class="st2" points="429.33,311.66 429.33,304.86 433.97,302.55 433.97,310.05 429.33,312.44 			"/>
		</g>
		<g>
			<polyline class="st1" points="387.92,339.72 387.92,327.23 475.84,288.34 475.84,300.83 			"/>
			<polyline class="st1" points="329.66,312.53 329.66,300.04 387.92,327.23 			"/>
			<polyline class="st1" points="416.08,263.78 475.84,292.92 387.92,331.67 329.66,305.6 			"/>
			<polyline class="st1" points="475.84,288.34 416.01,259.57 416.01,272.06 			"/>
		</g>
	</g>
	<g id="ladder">
		<path class="st0" d="M389.3,282.41V261.6c0,0-1.64-7.98-8.7-8.51v14.66"/>
		<path class="st0" d="M400.63,277.05v-20.81c0,0-1.23-7.33-8.29-7.86v14.34"/>
		<line class="st0" x1="389.3" y1="261.6" x2="400.63" y2="256.24"/>
		<line class="st0" x1="389.33" y1="274.99" x2="400.66" y2="269.88"/>
	</g>
</g>
<g id="lightning">
	<polyline points="480.2,19.97 446.62,21.36 393.94,108.61 429.61,107.13 396.19,190.8 399.07,191.61 473.04,88.15 437.37,89.62 
		480.2,19.97 	"/>
</g>
</svg>
