<svg xmlns="http://www.w3.org/2000/svg" viewBox="0 0 450.76 467.44">
  <defs>
    <style>
      .cls-1, .cls-3, .cls-5, .cls-7 {
        fill: none;
        stroke: #000;
        stroke-miterlimit: 10;
      }

      .cls-1 {
        stroke-width: 3px;
      }

      .cls-2 {
        opacity: 0.75;
      }

      .cls-3 {
        stroke-width: 2px;
      }

      .cls-4, .cls-6 {
        opacity: 0.5;
      }

      .cls-5 {
        stroke-width: 0.5px;
      }
    </style>
  </defs>
  <g id="pipe">
    <g>
      <path class="cls-1" d="M135.23,164" transform="translate(-32.31 -5.41)"/>
      <path class="cls-1" d="M135.23,471.36c-89,0-94.24-31.89-94.24-31.89s67.66-172,47.36-280.75" transform="translate(-32.31 -5.41)"/>
      <path class="cls-1" d="M135.23,122.55" transform="translate(-32.31 -5.41)"/>
      <path class="cls-1" d="M88.35,143.82" transform="translate(-32.31 -5.41)"/>
      <path class="cls-1" d="M135.16,164" transform="translate(-32.31 -5.41)"/>
      <path class="cls-1" d="M135.16,471.35c89,0,94.23-31.89,94.23-31.89s-67.65-173-47.36-281.77" transform="translate(-32.31 -5.41)"/>
      <path class="cls-1" d="M135.16,122.55" transform="translate(-32.31 -5.41)"/>
      <path class="cls-1" d="M182,143.81" transform="translate(-32.31 -5.41)"/>
      <g>
        <path class="cls-1" d="M80.19,142.12s1.13,24.95,55,24.95" transform="translate(-32.31 -5.41)"/>
        <path class="cls-1" d="M80.19,143.37s1.13-25,55-25" transform="translate(-32.31 -5.41)"/>
        <path class="cls-1" d="M190.13,142.11s-1.13,25-55,25" transform="translate(-32.31 -5.41)"/>
        <path class="cls-1" d="M190.13,143.37s-1.13-25-55-25" transform="translate(-32.31 -5.41)"/>
        <path class="cls-1" d="M80.19,143.37s1.2,29.28,55.08,29.28" transform="translate(-32.31 -5.41)"/>
        <path class="cls-1" d="M190.05,142.74s-1,29.91-54.86,29.91" transform="translate(-32.31 -5.41)"/>
        <path class="cls-1" d="M81.3,149s1.1-24.44,53.9-24.44" transform="translate(-32.31 -5.41)"/>
        <path class="cls-1" d="M189,149s-1.11-24.45-53.9-24.45" transform="translate(-32.31 -5.41)"/>
      </g>
    </g>
    <g class="cls-2">
      <polygon points="148.2 252.19 149.16 274.81 144.78 277.71 143.95 255.15 148.2 252.19"/>
      <polygon points="139.19 258.19 140.54 280.31 135.9 282.93 135.01 260.64 139.19 258.19"/>
      <polygon points="130.4 263.13 131.68 285.12 126.25 287.66 125.65 265.05 130.4 263.13"/>
      <polygon points="120.9 267.44 121.63 289.54 116.11 291.39 116.11 268.98 120.9 267.44"/>
      <polygon points="110.59 270.34 111.12 292.61 105.4 293.36 105.4 271.37 110.59 270.34"/>
      <path class="cls-3" d="M85.28,278.76C92,284.14,113.47,299,135.12,299s49.95-21.24,49.95-21.24" transform="translate(-32.31 -5.41)"/>
      <path class="cls-3" d="M88.68,256.42c6.26,5.14,26.22,19.3,46.34,19.3s46.45-20.29,46.45-20.29" transform="translate(-32.31 -5.41)"/>
      <polygon points="56.76 252.38 55.8 275 60.18 277.9 61 255.34 56.76 252.38"/>
      <polygon points="65.77 258.38 64.41 280.5 69.06 283.12 69.94 260.83 65.77 258.38"/>
      <polygon points="74.56 263.32 73.28 285.31 78.7 287.85 79.31 265.24 74.56 263.32"/>
      <polygon points="84.05 267.63 83.33 289.73 88.85 291.58 88.85 269.17 84.05 267.63"/>
      <polygon points="94.37 269.78 93.84 292.05 99.56 292.8 99.56 270.82 94.37 269.78"/>
    </g>
    <g class="cls-2">
      <polygon points="142.5 167.29 143.35 187.46 139.46 190.05 138.73 169.93 142.5 167.29"/>
      <polygon points="134.49 172.64 135.7 192.37 131.56 194.7 130.78 174.83 134.49 172.64"/>
      <polygon points="126.68 176.13 127.82 195.73 122.99 198 122.45 177.84 126.68 176.13"/>
      <polygon points="118.24 179.53 118.88 199.24 113.97 200.9 113.97 180.91 118.24 179.53"/>
      <polygon points="109.06 181.47 109.54 201.33 104.45 202 104.45 182.39 109.06 181.47"/>
      <path class="cls-3" d="M91.25,192c6,4.81,24,15.8,43.21,15.8s44.4-17.18,44.4-17.18" transform="translate(-32.31 -5.41)"/>
      <path class="cls-3" d="M90.78,170.06c5.57,4.59,26.39,17.23,44.28,17.23s45.07-17.23,45.07-17.23" transform="translate(-32.31 -5.41)"/>
      <polygon points="61.21 167.46 60.36 187.63 64.25 190.22 64.99 170.1 61.21 167.46"/>
      <polygon points="69.22 171.76 68.02 191.49 72.15 193.82 72.94 173.96 69.22 171.76"/>
      <polygon points="77.03 176.13 75.89 195.73 80.72 198 81.26 177.84 77.03 176.13"/>
      <polygon points="85.48 179.53 84.83 199.24 89.74 200.9 89.74 180.91 85.48 179.53"/>
      <polygon points="94.65 181.47 94.18 201.33 99.26 202 99.26 182.39 94.65 181.47"/>
    </g>
    <g class="cls-4">
      <g>
        <path class="cls-5" d="M43.83,443.34s67.65-172,47.36-280.74" transform="translate(-32.31 -5.41)"/>
        <path class="cls-5" d="M46,446.14s67.84-172.47,47.49-281.49" transform="translate(-32.31 -5.41)"/>
        <path class="cls-5" d="M47.79,449.76s68.69-174.64,48.08-285" transform="translate(-32.31 -5.41)"/>
        <path class="cls-5" d="M50,452.61s68.87-175.11,48.21-285.8" transform="translate(-32.31 -5.41)"/>
        <path class="cls-5" d="M53,453.16s69.17-176.24,48.67-286.09" transform="translate(-32.31 -5.41)"/>
        <path class="cls-5" d="M55.57,454.64s69-175.35,48.4-285.49" transform="translate(-32.31 -5.41)"/>
        <path class="cls-5" d="M57.8,457.17s69.39-176.42,48.58-288" transform="translate(-32.31 -5.41)"/>
        <path class="cls-5" d="M60.69,459s68.84-176.68,48-288.5" transform="translate(-32.31 -5.41)"/>
      </g>
      <path class="cls-5" d="M63.26,459s69.27-176.35,48.49-287.83" transform="translate(-32.31 -5.41)"/>
      <g>
        <path class="cls-5" d="M65.59,460S134.39,283,113.75,171.19" transform="translate(-32.31 -5.41)"/>
        <path class="cls-5" d="M67.92,462s69.13-177.8,48.39-290.2" transform="translate(-32.31 -5.41)"/>
        <path class="cls-5" d="M70.7,462.41s68.87-177.54,48.21-289.76" transform="translate(-32.31 -5.41)"/>
        <path class="cls-5" d="M73.76,464.22s67.79-179.48,47.69-291.35" transform="translate(-32.31 -5.41)"/>
        <path class="cls-5" d="M76.61,465.54S144.18,285.78,124,172.87" transform="translate(-32.31 -5.41)"/>
        <path class="cls-5" d="M79.21,465.54s67.59-179.32,47.31-292.67" transform="translate(-32.31 -5.41)"/>
        <path class="cls-5" d="M81.85,467s68.08-180.12,47.44-294.12" transform="translate(-32.31 -5.41)"/>
      </g>
    </g>
    <g class="cls-4">
      <g>
        <path class="cls-5" d="M226.71,442.58s-67.65-172-47.36-280.74" transform="translate(-32.31 -5.41)"/>
        <path class="cls-5" d="M224.54,445.38S156.7,272.91,177.05,163.89" transform="translate(-32.31 -5.41)"/>
        <path class="cls-5" d="M222.75,449s-68.69-174.64-48.08-285" transform="translate(-32.31 -5.41)"/>
        <path class="cls-5" d="M220.54,451.84s-68.87-175.1-48.21-285.79" transform="translate(-32.31 -5.41)"/>
        <path class="cls-5" d="M217.56,452.4s-69.17-176.24-48.67-286.09" transform="translate(-32.31 -5.41)"/>
        <path class="cls-5" d="M215,453.88s-69-175.36-48.4-285.49" transform="translate(-32.31 -5.41)"/>
        <path class="cls-5" d="M212.74,456.41s-69.39-176.42-48.58-288" transform="translate(-32.31 -5.41)"/>
        <path class="cls-5" d="M209.85,458.25s-68.84-176.67-48-288.49" transform="translate(-32.31 -5.41)"/>
      </g>
      <path class="cls-5" d="M207.28,458.25S138,281.91,158.79,170.43" transform="translate(-32.31 -5.41)"/>
      <g>
        <path class="cls-5" d="M205,459.19s-68.8-176.92-48.16-288.76" transform="translate(-32.31 -5.41)"/>
        <path class="cls-5" d="M202.62,461.22S133.49,283.41,154.23,171" transform="translate(-32.31 -5.41)"/>
        <path class="cls-5" d="M199.84,461.65S131,284.11,151.63,171.89" transform="translate(-32.31 -5.41)"/>
        <path class="cls-5" d="M196.78,463.46S129,284,149.09,172.11" transform="translate(-32.31 -5.41)"/>
        <path class="cls-5" d="M193.93,464.78S126.36,285,146.51,172.11" transform="translate(-32.31 -5.41)"/>
        <path class="cls-5" d="M191.33,464.78S123.74,285.46,144,172.11" transform="translate(-32.31 -5.41)"/>
        <path class="cls-5" d="M188.69,466.23s-68.08-180.12-47.44-294.12" transform="translate(-32.31 -5.41)"/>
      </g>
    </g>
    <g class="cls-2">
      <polygon points="163.9 334.8 164.95 368.41 158.41 372.64 157.55 339.12 163.9 334.8"/>
      <polygon points="151.6 342.79 153.62 375.77 146.69 379.67 145.38 346.45 151.6 342.79"/>
      <polygon points="139.9 349.33 141.82 382.29 133.68 386.09 132.78 352.21 139.9 349.33"/>
      <polygon points="127.22 355.21 128.3 388.2 120.06 390.97 120.06 357.52 127.22 355.21"/>
      <polygon points="113.4 359.41 114.18 392.18 105.76 393.29 105.76 360.93 113.4 359.41"/>
      <path class="cls-3" d="M63.74,369.73c9.65,7.72,40.4,28.94,71.41,28.94s71.56-30.42,71.56-30.42" transform="translate(-32.31 -5.41)"/>
      <path class="cls-3" d="M72.81,340.46c8.39,6.9,35.11,25.86,62.05,25.86s62.19-27.18,62.19-27.18" transform="translate(-32.31 -5.41)"/>
      <polygon points="41.1 334.82 39.57 370.98 46.56 375.61 47.88 339.55 41.1 334.82"/>
      <polygon points="52.84 342.79 50.79 376.23 57.82 380.18 59.15 346.5 52.84 342.79"/>
      <polygon points="64.67 351.29 62.83 382.78 70.61 386.42 71.48 354.04 64.67 351.29"/>
      <polygon points="77.34 355.71 76.29 387.78 84.3 390.47 84.3 357.95 77.34 355.71"/>
      <polygon points="91.09 359.5 90.31 392.1 98.69 393.2 98.69 361.01 91.09 359.5"/>
    </g>
    <g>
      <path class="cls-1" d="M142.06,446.92c-106.21,0-87.84-41-92.06-28.76" transform="translate(-32.31 -5.41)"/>
      <path class="cls-1" d="M129.36,446.92c106.24,0,86.93-43.33,91.18-31.1" transform="translate(-32.31 -5.41)"/>
    </g>
    <g>
      <line class="cls-1" x1="10.24" y1="437.93" x2="27.01" y2="423.9"/>
      <line class="cls-1" x1="24.06" y1="451" x2="27.01" y2="423.9"/>
      <line class="cls-1" x1="41.91" y1="432.27" x2="24.16" y2="450.12"/>
      <line class="cls-1" x1="41.44" y1="458.8" x2="41.91" y2="432.27"/>
      <line class="cls-1" x1="58.1" y1="436.99" x2="41.44" y2="458.8"/>
      <line class="cls-1" x1="60.69" y1="462.92" x2="58.1" y2="436.99"/>
      <line class="cls-1" x1="84.3" y1="465.43" x2="76.29" y2="439.86"/>
      <line class="cls-1" x1="60.69" y1="462.92" x2="76.29" y2="439.86"/>
      <line class="cls-1" x1="84.3" y1="465.43" x2="97.05" y2="441.51"/>
    </g>
    <g>
      <line class="cls-1" x1="194.15" y1="437.61" x2="177.39" y2="423.58"/>
      <line class="cls-1" x1="180.34" y1="450.68" x2="177.39" y2="423.58"/>
      <line class="cls-1" x1="162.49" y1="431.95" x2="180.24" y2="449.8"/>
      <line class="cls-1" x1="162.95" y1="458.49" x2="162.49" y2="431.95"/>
      <line class="cls-1" x1="146.3" y1="436.67" x2="162.95" y2="458.49"/>
      <line class="cls-1" x1="143.7" y1="462.6" x2="146.3" y2="436.67"/>
      <line class="cls-1" x1="120.1" y1="465.12" x2="128.11" y2="439.54"/>
      <line class="cls-1" x1="143.7" y1="462.6" x2="128.11" y2="439.54"/>
      <line class="cls-1" x1="120.1" y1="465.12" x2="107.35" y2="441.19"/>
    </g>
    <line class="cls-1" x1="96.23" y1="441.27" x2="102.92" y2="465.94"/>
    <line class="cls-1" x1="107.91" y1="440.73" x2="101.9" y2="465.94"/>
  </g>
  <g id="steam_clouds" data-name="steam clouds">
    <path class="cls-6" d="M56.16,35.1c4.73,1.27,14.92,6.59,18.33,15.36S75.94,58,79.67,70.73s7.47,25.41,15.47,20.63,12.06-11,6.72-22.2S95.36,56,98.26,48.5,84.06,23.32,74.94,24.75,56.16,35.1,56.16,35.1Z" transform="translate(-32.31 -5.41)"/>
    <path class="cls-6" d="M129.33,87.26c0-7.3-3.17-14.92,2-24.36s8.31-13,21-15.77,13.46-14.24,27.3-13.45,14.24,9.49,25.32,4.35,17.35-12.27,24.5-8.31-20.54,11.47-27.27,15.43-21.76,4-24.53,12.26,6.73,14.91,5.94,21.7S167.31,90.64,159.79,91,129.33,87.26,129.33,87.26Z" transform="translate(-32.31 -5.41)"/>
    <path class="cls-6" d="M112.19,76.05c-2.64-6.06-3.45-3.16-4.5-9.23s-2.38-6.33,0-10.55,1.86-5.27,4.5-5.8,4.22-3.16,6.85,0,4.49.27,2.64,5-5.8,1.32-4.22,10,1.32,5,2.9,12.65,3.43,9.24.53,11.08-2.11.75-4.75,1.83-2.9,1.86-4.74,4.24-10.6,6.67-5-3.13S112.19,76.05,112.19,76.05Z" transform="translate(-32.31 -5.41)"/>
    <path class="cls-6" d="M32.39,61.05c.53,3.16-1.05,2.11,1.06,7.12s-1.32,5,4.22,9.76,6.33,2.37,7.38,8.7,5,7.34,8.18,9.34,4,3.06,4.74,5.17-.79,2.9,0,6.59,1.32,7.7,3.43,8.33,4.24,3.8,5.28,1.16,1.59-10.55,0-11.34-4-4.48-5-6.59-.8-4.75-4.22-6.86-5.25-.83-5.53-3.71S47.82,88,50,82.41s2.2-4.75,1.92-9.23S53.62,68.7,50,65s-3.37-4-7.32-5.27a25,25,0,0,1-6.86-3.62Z" transform="translate(-32.31 -5.41)"/>
    <path class="cls-6" d="M142.69,30.16c1.15-4.74-2.55-6.06,1.67-10s2.9-8.44,14-4.48,2.11,10,14.24,7.65,10.15-8.18,17.47-3.17,1.79,9.5-3.49,10-2.37-7.64-20.83,0S145,42.3,142.69,38.6,142.69,30.16,142.69,30.16Z" transform="translate(-32.31 -5.41)"/>
    <path class="cls-6" d="M37.29,11.18c2.37,3.16,6.59,4.84,10,2.94s7.29-4.74,9.44-1.07-2.59,6.83,6.12,5.25,6.86-6.81,15.56-5.25,13.45,1.82,14.24,5.25,4.22,7.35,5,6.44-14.94-1.7-17.49-2-8.55-1.58-11.75-.26-5.31,3.2-10.32,4.5S49.68,29.64,46.78,26a47.46,47.46,0,0,0-5.39-6.18c-2.26-2.26-7-2.26-8.06-3.58S37.29,11.18,37.29,11.18Z" transform="translate(-32.31 -5.41)"/>
    <path class="cls-6" d="M67.34,84.17c-1.5,4.08-4,3-.79,7.34s5.33.91,7.46,4.56,2.53,8.47,5.06,7.15,5.14-2.57,3.47-8.35-.13-5.34-2.73-8.28S67.34,84.17,67.34,84.17Z" transform="translate(-32.31 -5.41)"/>
    <path class="cls-6" d="M194.23,61.93c-5,.53-1.94-2.54-6.24,1.77s-6.94,2.72-3,9,5.29,3.16,4.1,9.23-2,1.84-2.51,9-5.38,8.28,1.4,11.13,6.77,1.27,11.52,5,5,8.44,9.76,4.49,6.59-6.6,4.74-10.82-.79-4.25-4.74-7.93-6.6-3.41-5.54-7.89,5.54-3.43,1.05-9.76S194.23,61.93,194.23,61.93Z" transform="translate(-32.31 -5.41)"/>
    <path class="cls-6" d="M119.69,150.43c-6.38,1.74-3.63,3-9.78,3.13s-6.6,1.46-10.44-1.5-5-2.59-5.1-5.28-2.54-4.63,1-6.78.9-4.41,5.34-1.9.48,5.93,9.32,5.6,5.14-.59,12.94-1.07,9.62-2.07,11,1.06.44,2.2,1.13,5,1.43,3.14,3.52,5.3,5.09,11.44-3.81,4.54S119.69,150.43,119.69,150.43Z" transform="translate(-32.31 -5.41)"/>
    <path class="cls-6" d="M156.57,142.37c2.33-5.17-.08-5,3.25-8.4s2.66-5,6.92-3.9,4.63.12,6.62,2.85,4.72,3.53,4.29,7.63,2.63,5.08-1.64,4.78-4.5-6-9.22-1-2.46,3.31-6.5,7.9-3.91,7.22-6.94,4.67-1.81-2.07-4.16-4.6-3-2.54-5.76-3.71-11-9.31-1.09-6.75S156.57,142.37,156.57,142.37Z" transform="translate(-32.31 -5.41)"/>
    <path class="cls-6" d="M108.44,122.2c-6.56-.81-4.48,1.36-10.23-.82s-6.67-1.16-9.09-5.35-3.61-4.28-2.72-6.82-.59-5.24,3.48-5.91,2.5-3.72,5.66.28-1.81,5.66,6.49,8.72,5,1.41,12.38,3.92,9.69,1.74,9.81,5.17-.43,2.2-.84,5,.14,3.45,1.25,6.24.37,12.52-5.25,2.75S108.44,122.2,108.44,122.2Z" transform="translate(-32.31 -5.41)"/>
    <path class="cls-6" d="M156.44,116.61c-2.43,6.15.2,4.68-3.36,9.7s-2.79,6.16-7.46,7.45-5.05,2.42-7.28.92-5.22-.75-4.85-4.85-3-3.36,1.69-5.41,5,3.18,10.07-4.09,2.62-4.47,6.91-11,4.11-8.94,7.47-8.2,2,1,4.64,2.08,3.37.73,6.36.36,12.2,2.78,1.34,5.77S156.44,116.61,156.44,116.61Z" transform="translate(-32.31 -5.41)"/>
  </g>
  <g id="building">
    <g id="back_box" data-name="back box">
      <polyline class="cls-3" points="413.05 236.28 318.3 279.13 318.3 293.76"/>
      <g>
        <line class="cls-3" x1="215.92" y1="325.06" x2="290.28" y2="361.24"/>
        <line class="cls-3" x1="412.27" y1="277.62" x2="412.27" y2="236.96"/>
        <polyline class="cls-3" points="274.36 198.06 212.2 226.17 212.2 323.83 218.38 326.26"/>
        <line class="cls-3" x1="333.34" y1="199.38" x2="412.16" y2="236.52"/>
        <line class="cls-3" x1="212.53" y1="228.56" x2="319.15" y2="279.13"/>
      </g>
      <g id="door">
        <polyline id="door-2" data-name="door" class="cls-3" points="250.54 342.37 250.54 310.02 233.76 302.44 233.76 334.4"/>
        <line class="cls-7" x1="248.38" y1="325.97" x2="246.27" y2="325.2"/>
      </g>
      <g id="door-3" data-name="door">
        <polyline id="door-4" data-name="door" class="cls-3" points="267.27 349.94 267.27 317.6 250.49 310.01 250.49 341.97"/>
        <line class="cls-7" x1="254.77" y1="328.06" x2="252.66" y2="327.29"/>
      </g>
      <g id="windows">
        <g>
          <polyline class="cls-7" points="300.28 301.1 300.99 279.13 277.54 269.26 276.94 306.16 290.28 311.71"/>
          <line class="cls-7" x1="288.1" y1="274.36" x2="287.51" y2="310.27"/>
          <line class="cls-7" x1="293.52" y1="276.48" x2="292.93" y2="305.31"/>
          <line class="cls-7" x1="282.69" y1="271.56" x2="282.1" y2="307.84"/>
          <line class="cls-7" x1="300.71" y1="287.79" x2="277.55" y2="278.55"/>
        </g>
        <g>
          <polygon class="cls-7" points="268.58 266.19 267.99 302.66 246.42 293.45 247.02 256.56 268.58 266.19"/>
          <line class="cls-7" x1="257.58" y1="261.65" x2="257" y2="297.56"/>
          <line class="cls-7" x1="263.01" y1="263.77" x2="262.41" y2="300.2"/>
          <line class="cls-7" x1="252.17" y1="258.85" x2="251.58" y2="295.13"/>
          <line class="cls-7" x1="268.27" y1="275.08" x2="247.04" y2="265.85"/>
        </g>
        <g>
          <polygon class="cls-7" points="239.27 252.53 238.67 289 217.1 279.79 217.7 242.9 239.27 252.53"/>
          <line class="cls-7" x1="228.27" y1="247.99" x2="227.68" y2="283.9"/>
          <line class="cls-7" x1="233.69" y1="250.11" x2="233.1" y2="286.55"/>
          <line class="cls-7" x1="222.85" y1="245.2" x2="222.26" y2="281.47"/>
          <line class="cls-7" x1="238.96" y1="261.42" x2="217.72" y2="252.19"/>
        </g>
      </g>
      <g id="door-5" data-name="door">
        <polyline id="door-6" data-name="door" class="cls-3" points="325.91 205.53 325.91 173.56 309.13 181.15 309.13 213.49"/>
        <line class="cls-7" x1="311.29" y1="197.1" x2="313.4" y2="196.32"/>
      </g>
      <g>
        <polyline class="cls-3" points="302.89 173.56 331.43 159.51 302.89 147.28 274.36 161.34 274.57 201.99 302.89 216.02 302.89 172.9"/>
        <path class="cls-3" d="M363.74,189.91" transform="translate(-32.31 -5.41)"/>
        <line class="cls-3" x1="302.89" y1="173.56" x2="274.35" y2="161.34"/>
        <path class="cls-3" d="M342.44,219.22" transform="translate(-32.31 -5.41)"/>
        <path class="cls-3" d="M342.44,219.22" transform="translate(-32.31 -5.41)"/>
        <polyline class="cls-3" points="302.89 216.02 332.59 203.39 332.59 159.5"/>
      </g>
      <g>
        <g>
          <polyline class="cls-3" points="236.71 225.79 236.46 216.67 257.69 225.76 257.69 234.91"/>
          <polyline class="cls-3" points="257.69 225.76 274.45 217.32 274.45 226.96"/>
          <polyline class="cls-3" points="235.69 216.34 253.93 207.7 275.01 216.76"/>
          <polygon class="cls-3" points="245.46 215.79 254.37 211.37 266.96 216.76 258.32 221.7 245.46 215.79"/>
        </g>
        <g>
          <polyline class="cls-3" points="267.09 240.55 266.84 231.43 288.07 240.52 288.07 249.67"/>
          <polyline class="cls-3" points="288.07 240.52 304.83 232.09 304.83 241.72"/>
          <polyline class="cls-3" points="266.07 231.1 284.32 222.46 305.39 231.52"/>
          <polygon class="cls-3" points="275.84 230.56 284.75 226.13 297.35 231.52 288.7 236.46 275.84 230.56"/>
        </g>
        <g>
          <polyline class="cls-3" points="299.66 255.31 299.41 246.19 320.64 255.27 320.64 264.43"/>
          <polyline class="cls-3" points="320.64 255.27 337.4 246.84 337.4 256.47"/>
          <polyline class="cls-3" points="298.64 245.86 316.89 237.22 337.96 246.28"/>
          <polygon class="cls-3" points="308.41 245.31 317.32 240.88 329.92 246.28 321.27 251.22 308.41 245.31"/>
        </g>
      </g>
      <g id="safety_border" data-name="safety border">
        <polyline class="cls-7" points="219.74 226.99 219.74 214.5 274.36 191.59"/>
        <polyline class="cls-7" points="403.74 237.54 403.74 225.05 332.59 192.86 403.74 225.05 360.02 242.97"/>
        <polyline class="cls-7" points="348.29 247.68 319.15 262.08 319.15 274.57"/>
        <line class="cls-7" x1="219.74" y1="214.5" x2="319.15" y2="262.08"/>
        <g>
          <line class="cls-7" x1="219.74" y1="221.41" x2="319.15" y2="268.99"/>
          <line class="cls-7" x1="348.29" y1="254.45" x2="319.15" y2="268.85"/>
          <line class="cls-7" x1="219.74" y1="220.75" x2="274.35" y2="197.84"/>
          <line class="cls-7" x1="403.15" y1="230.6" x2="332" y2="198.41"/>
          <line class="cls-7" x1="404.23" y1="231.59" x2="360.51" y2="249.51"/>
        </g>
      </g>
    </g>
    <g id="front_box" data-name="front box">
      <g id="box_carcas" data-name="box carcas">
        <polyline class="cls-3" points="289.82 401.37 355.61 433.38 355.61 337.63 450.35 295.23"/>
        <line class="cls-3" x1="355.61" y1="433.91" x2="450.35" y2="391.06"/>
        <line class="cls-3" x1="449.58" y1="391.21" x2="449.58" y2="295.46"/>
        <polyline class="cls-3" points="290.28 402.4 290.28 306.65 355.61 337.63"/>
        <line class="cls-3" x1="289.82" y1="306.65" x2="384.56" y2="263.79"/>
        <line class="cls-3" x1="383.52" y1="263.98" x2="449.58" y2="295.46"/>
      </g>
      <g id="garage_door" data-name="garage door">
        <polyline class="cls-3" points="300.35 405.48 300.35 340.53 343.1 361.67 343.1 426.62"/>
        <g>
          <line class="cls-3" x1="300.47" y1="352.3" x2="343.22" y2="373.44"/>
          <line class="cls-3" x1="300.35" y1="362.43" x2="343.1" y2="383.57"/>
          <line class="cls-3" x1="300.47" y1="371.89" x2="343.22" y2="393.03"/>
          <line class="cls-3" x1="300.31" y1="380.82" x2="343.05" y2="401.96"/>
          <line class="cls-3" x1="300.31" y1="390.25" x2="343.05" y2="411.39"/>
          <line class="cls-3" x1="300.19" y1="398.63" x2="342.93" y2="419.77"/>
        </g>
      </g>
      <g id="door-7" data-name="door">
        <polyline id="door-8" data-name="door" class="cls-3" points="422.81 404.01 422.81 371.67 439.59 364.08 439.59 396.05"/>
        <line class="cls-7" x1="424.97" y1="387.62" x2="427.08" y2="386.84"/>
      </g>
      <g id="windows-2" data-name="windows">
        <g>
          <polygon class="cls-7" points="362.15 347.69 362.74 384.17 384.31 374.96 383.71 338.06 362.15 347.69"/>
          <line class="cls-7" x1="373.15" y1="343.16" x2="373.74" y2="379.06"/>
          <line class="cls-7" x1="367.73" y1="345.28" x2="368.32" y2="381.71"/>
          <line class="cls-7" x1="378.56" y1="340.36" x2="379.15" y2="376.64"/>
          <line class="cls-7" x1="362.46" y1="356.59" x2="383.7" y2="347.35"/>
        </g>
        <g>
          <polygon class="cls-7" points="392.67 334.98 393.26 371.45 414.83 362.25 414.23 325.35 392.67 334.98"/>
          <line class="cls-7" x1="403.67" y1="330.45" x2="404.25" y2="366.35"/>
          <line class="cls-7" x1="398.24" y1="332.57" x2="398.84" y2="369"/>
          <line class="cls-7" x1="409.08" y1="327.65" x2="409.67" y2="363.93"/>
          <line class="cls-7" x1="392.98" y1="343.88" x2="414.21" y2="334.64"/>
        </g>
        <g>
          <polygon class="cls-7" points="421.98 321.32 422.58 357.8 444.15 348.59 443.55 311.69 421.98 321.32"/>
          <line class="cls-7" x1="432.99" y1="316.79" x2="433.57" y2="352.69"/>
          <line class="cls-7" x1="427.56" y1="318.91" x2="428.16" y2="355.34"/>
          <line class="cls-7" x1="438.4" y1="313.99" x2="438.99" y2="350.27"/>
          <line class="cls-7" x1="422.3" y1="330.22" x2="443.53" y2="320.98"/>
        </g>
      </g>
      <polygon id="panel" class="cls-7" points="347.19 401.84 347.19 411.01 351.4 412.48 351.4 402.78 347.19 401.84"/>
      <g>
        <g id="ventilation">
          <polyline class="cls-3" points="381.18 315.29 381.18 303.23 404.01 290.9 404.24 305.31"/>
          <polyline class="cls-3" points="370.4 309.2 370.4 297.13 394.07 284.35 404.76 290.12"/>
          <g>
            <line class="cls-5" x1="370.22" y1="297.14" x2="381.18" y2="303.23"/>
            <line class="cls-5" x1="373.08" y1="294.78" x2="384.05" y2="300.87"/>
            <line class="cls-5" x1="376.89" y1="292.91" x2="387.85" y2="299"/>
            <line class="cls-5" x1="380.9" y1="291.73" x2="391.87" y2="297.82"/>
            <line class="cls-5" x1="383.77" y1="289.38" x2="394.73" y2="295.47"/>
            <line class="cls-5" x1="387.58" y1="287.51" x2="398.54" y2="293.6"/>
            <line class="cls-5" x1="390.55" y1="286.18" x2="401.58" y2="292.16"/>
            <line class="cls-5" x1="370.22" y1="301.2" x2="381.18" y2="307.29"/>
            <line class="cls-5" x1="370.43" y1="305.53" x2="381.4" y2="311.62"/>
          </g>
        </g>
        <polygon class="cls-5" points="384.46 312.7 384.46 305.89 389.1 303.59 389.1 311.08 384.46 313.47 384.46 312.7"/>
        <polygon class="cls-5" points="390.74 309.3 390.74 302.49 395.38 300.19 395.38 307.68 390.74 310.07 390.74 309.3"/>
        <polygon class="cls-5" points="397.02 306.25 397.02 299.44 401.66 297.13 401.66 304.63 397.02 307.02 397.02 306.25"/>
      </g>
      <g>
        <polyline class="cls-7" points="355.61 334.3 355.61 321.81 443.53 282.93 443.53 295.42"/>
        <polyline class="cls-7" points="297.35 307.12 297.35 294.63 355.61 321.81"/>
        <polyline class="cls-7" points="383.77 258.36 443.53 287.51 355.61 326.26 297.35 300.18"/>
        <polyline class="cls-7" points="443.53 282.93 383.7 254.16 383.7 266.65"/>
      </g>
    </g>
    <g id="ladder">
      <path class="cls-3" d="M389.3,282.41V261.6s-1.64-8-8.7-8.51v14.66" transform="translate(-32.31 -5.41)"/>
      <path class="cls-3" d="M400.63,277.05V256.24s-1.23-7.33-8.29-7.86v14.34" transform="translate(-32.31 -5.41)"/>
      <line class="cls-3" x1="356.99" y1="256.18" x2="368.32" y2="250.83"/>
      <line class="cls-3" x1="357.02" y1="269.57" x2="368.35" y2="264.47"/>
    </g>
  </g>
  <g id="lightning">
    <polyline points="447.88 14.56 414.31 15.95 361.63 103.19 397.3 101.72 363.88 185.38 366.76 186.2 440.73 82.73 405.06 84.2 447.88 14.56"/>
  </g>
  <g id="radiation_hazard" data-name="radiation hazard">
    <path d="M304,5.41,222,141.88H376.55Zm-1,77.42a5.44,5.44,0,1,1-5.44,5.44A5.44,5.44,0,0,1,303,82.83Zm-16.21-23L299,81.38a7.75,7.75,0,0,0-4.16,7l-24.31-.24C269.2,68.32,286.77,59.82,286.77,59.82Zm-.7,57.18,12.61-21.34a7.76,7.76,0,0,0,8.11.15L318.69,117C302.19,128,286.07,117,286.07,117Zm24.87-28.52a7.77,7.77,0,0,0-3.9-7.11l12.48-20.86c17.75,8.86,16.21,28.32,16.21,28.32Z" transform="translate(-32.31 -5.41)"/>
  </g>
</svg>
