<?xml version="1.0" encoding="utf-8"?>
<!-- Generator: Adobe Illustrator 25.3.0, SVG Export Plug-In . SVG Version: 6.00 Build 0)  -->
<svg version="1.1" xmlns="http://www.w3.org/2000/svg" xmlns:xlink="http://www.w3.org/1999/xlink" x="0px" y="0px"
	 viewBox="0 0 500 500" style="enable-background:new 0 0 500 500;" xml:space="preserve">
<style type="text/css">
	.st0{fill:none;stroke:#000000;stroke-width:3;stroke-miterlimit:10;}
	.st1{opacity:0.75;}
	.st2{fill:none;stroke:#000000;stroke-width:2;stroke-miterlimit:10;}
	.st3{opacity:0.5;}
	.st4{fill:none;stroke:#000000;stroke-width:0.5;stroke-miterlimit:10;}
	.st5{opacity:0.5;fill:#9E9E9E;}
	.st6{opacity:0.35;fill:#9E9E9E;}
	.st7{fill:none;stroke:#000000;stroke-miterlimit:10;}
</style>
<g id="pipe">
	<g>
		<path class="st0" d="M135.23,164.01"/>
		<path class="st0" d="M135.23,471.36c-88.97,0-94.23-31.89-94.23-31.89s67.66-172.01,47.36-280.75"/>
		<path class="st0" d="M135.23,122.55"/>
		<path class="st0" d="M88.35,143.82"/>
		<path class="st0" d="M135.16,164.01"/>
		<path class="st0" d="M135.16,471.35c88.97,0,94.23-31.89,94.23-31.89s-67.66-173.03-47.36-281.77"/>
		<path class="st0" d="M135.16,122.55"/>
		<path class="st0" d="M182.03,143.81"/>
		<g>
			<path class="st0" d="M80.19,142.12c0,0,1.13,24.95,55.01,24.95"/>
			<path class="st0" d="M80.19,143.37c0,0,1.13-24.95,55.01-24.95"/>
			<path class="st0" d="M190.13,142.11c0,0-1.13,24.95-55.01,24.95"/>
			<path class="st0" d="M190.13,143.37c0,0-1.13-24.95-55.01-24.95"/>
			<path class="st0" d="M80.19,143.37c0,0,1.2,29.28,55.08,29.28"/>
			<path class="st0" d="M190.05,142.74c0,0-0.99,29.91-54.87,29.91"/>
			<path class="st0" d="M81.3,149c0,0,1.11-24.44,53.9-24.44"/>
			<path class="st0" d="M189.02,149c0,0-1.11-24.44-53.9-24.44"/>
		</g>
	</g>
	<g class="st1">
		<polygon points="180.51,257.6 181.47,280.23 177.09,283.12 176.26,260.56 		"/>
		<polygon points="171.5,263.6 172.85,285.73 168.21,288.34 167.32,266.06 		"/>
		<polygon points="162.71,268.55 163.99,290.53 158.56,293.07 157.96,270.47 		"/>
		<polygon points="153.21,272.85 153.94,294.95 148.42,296.81 148.42,274.39 		"/>
		<polygon points="142.9,275.75 143.43,298.02 137.71,298.77 137.71,276.79 		"/>
		<path class="st2" d="M85.28,278.76c6.74,5.39,28.2,20.2,49.84,20.2s49.95-21.23,49.95-21.23"/>
		<path class="st2" d="M88.68,256.42c6.26,5.15,26.22,19.31,46.34,19.31s46.44-20.3,46.44-20.3"/>
		<polygon points="89.07,257.79 88.11,280.42 92.49,283.31 93.31,260.75 		"/>
		<polygon points="98.08,263.79 96.72,285.92 101.37,288.53 102.26,266.25 		"/>
		<polygon points="106.87,268.74 105.59,290.72 111.01,293.26 111.62,270.66 		"/>
		<polygon points="116.36,273.04 115.64,295.14 121.16,297 121.16,274.58 		"/>
		<polygon points="126.68,275.2 126.15,297.46 131.87,298.22 131.87,276.23 		"/>
	</g>
	<g class="st1">
		<polygon points="174.81,172.7 175.66,192.88 171.77,195.46 171.04,175.34 		"/>
		<polygon points="166.8,178.05 168.01,197.78 163.88,200.11 163.09,180.24 		"/>
		<polygon points="158.99,181.54 160.13,201.15 155.3,203.41 154.77,183.26 		"/>
		<polygon points="150.55,184.95 151.19,204.66 146.28,206.31 146.28,186.33 		"/>
		<polygon points="141.38,186.89 141.85,206.74 136.76,207.41 136.76,187.81 		"/>
		<path class="st2" d="M91.25,192.03c5.99,4.8,23.97,15.8,43.21,15.8s44.41-17.19,44.41-17.19"/>
		<path class="st2" d="M90.78,170.06c5.57,4.59,26.39,17.23,44.27,17.23s45.07-17.23,45.07-17.23"/>
		<polygon points="93.52,172.87 92.67,193.05 96.56,195.63 97.3,175.51 		"/>
		<polygon points="101.53,177.18 100.33,196.91 104.46,199.24 105.25,179.37 		"/>
		<polygon points="109.35,181.54 108.21,201.15 113.03,203.41 113.57,183.26 		"/>
		<polygon points="117.79,184.95 117.14,204.66 122.05,206.31 122.05,186.33 		"/>
		<polygon points="126.96,186.89 126.49,206.74 131.57,207.41 131.57,187.81 		"/>
	</g>
	<g class="st3">
		<g>
			<path class="st4" d="M43.83,443.34c0,0,67.66-172.01,47.36-280.75"/>
			<path class="st4" d="M46,446.14c0,0,67.83-172.47,47.48-281.49"/>
			<path class="st4" d="M47.79,449.76c0,0,68.69-174.64,48.08-285.04"/>
			<path class="st4" d="M50,452.61c0,0,68.87-175.1,48.21-285.79"/>
			<path class="st4" d="M52.98,453.16c0,0,69.17-176.24,48.67-286.08"/>
			<path class="st4" d="M55.57,454.64c0,0,68.96-175.35,48.4-285.49"/>
			<path class="st4" d="M57.8,457.17c0,0,69.39-176.43,48.57-287.95"/>
			<path class="st4" d="M60.69,459.02c0,0,68.84-176.67,47.97-288.49"/>
		</g>
		<path class="st4" d="M63.26,459.02c0,0,69.27-176.35,48.49-287.82"/>
		<g>
			<path class="st4" d="M65.59,459.96c0,0,68.8-176.92,48.16-288.76"/>
			<path class="st4" d="M67.92,461.98c0,0,69.13-177.81,48.39-290.2"/>
			<path class="st4" d="M70.7,462.41c0,0,68.87-177.54,48.21-289.76"/>
			<path class="st4" d="M73.76,464.22c0,0,67.79-179.48,47.7-291.35"/>
			<path class="st4" d="M76.61,465.54c0,0,67.57-179.76,47.42-292.67"/>
			<path class="st4" d="M79.21,465.54c0,0,67.59-179.32,47.31-292.67"/>
			<path class="st4" d="M81.85,466.99c0,0,68.09-180.12,47.44-294.12"/>
		</g>
	</g>
	<g class="st3">
		<g>
			<path class="st4" d="M226.71,442.58c0,0-67.66-172.01-47.36-280.75"/>
			<path class="st4" d="M224.54,445.38c0,0-67.83-172.47-47.48-281.49"/>
			<path class="st4" d="M222.75,449c0,0-68.69-174.64-48.08-285.04"/>
			<path class="st4" d="M220.54,451.84c0,0-68.87-175.1-48.21-285.79"/>
			<path class="st4" d="M217.56,452.39c0,0-69.17-176.24-48.67-286.08"/>
			<path class="st4" d="M214.97,453.88c0,0-68.96-175.35-48.4-285.49"/>
			<path class="st4" d="M212.74,456.41c0,0-69.39-176.43-48.57-287.95"/>
			<path class="st4" d="M209.85,458.25c0,0-68.84-176.67-47.97-288.49"/>
		</g>
		<path class="st4" d="M207.28,458.25c0,0-69.27-176.35-48.49-287.82"/>
		<g>
			<path class="st4" d="M204.95,459.19c0,0-68.8-176.92-48.16-288.76"/>
			<path class="st4" d="M202.62,461.22c0,0-69.13-177.81-48.39-290.2"/>
			<path class="st4" d="M199.84,461.65c0,0-68.87-177.54-48.21-289.76"/>
			<path class="st4" d="M196.78,463.46c0,0-67.79-179.48-47.7-291.35"/>
			<path class="st4" d="M193.93,464.78c0,0-67.57-179.76-47.42-292.67"/>
			<path class="st4" d="M191.33,464.78c0,0-67.59-179.32-47.31-292.67"/>
			<path class="st4" d="M188.69,466.23c0,0-68.09-180.12-47.44-294.12"/>
		</g>
	</g>
	<g class="st1">
		<polygon points="196.21,340.21 197.26,373.83 190.72,378.06 189.86,344.54 		"/>
		<polygon points="183.92,348.21 185.93,381.19 179.01,385.08 177.69,351.87 		"/>
		<polygon points="172.21,354.74 174.13,387.7 165.99,391.51 165.09,357.62 		"/>
		<polygon points="159.53,360.63 160.61,393.62 152.37,396.38 152.37,362.93 		"/>
		<polygon points="145.71,364.83 146.49,397.59 138.07,398.7 138.07,366.35 		"/>
		<path class="st2" d="M63.74,369.73c9.65,7.72,40.4,28.94,71.41,28.94s71.56-30.42,71.56-30.42"/>
		<path class="st2" d="M72.81,340.46c8.39,6.89,35.11,25.85,62.05,25.85s62.19-27.18,62.19-27.18"/>
		<polygon points="73.41,340.24 71.88,376.39 78.87,381.02 80.19,344.96 		"/>
		<polygon points="85.15,348.21 83.1,381.64 90.13,385.59 91.46,351.92 		"/>
		<polygon points="96.98,356.71 95.14,388.19 102.92,391.83 103.79,359.46 		"/>
		<polygon points="109.65,361.13 108.6,393.2 116.61,395.89 116.61,363.37 		"/>
		<polygon points="123.4,364.91 122.62,397.52 131,398.62 131,366.43 		"/>
	</g>
	<g>
		<path class="st0" d="M142.06,446.92c-106.21,0-87.84-40.99-92.06-28.76"/>
		<path class="st0" d="M129.36,446.92c106.24,0,86.93-43.33,91.18-31.1"/>
	</g>
	<g>
		<line class="st0" x1="42.55" y1="443.34" x2="59.32" y2="429.32"/>
		<line class="st0" x1="56.37" y1="456.41" x2="59.32" y2="429.32"/>
		<line class="st0" x1="74.22" y1="437.68" x2="56.47" y2="455.53"/>
		<line class="st0" x1="73.76" y1="464.22" x2="74.22" y2="437.68"/>
		<line class="st0" x1="90.41" y1="442.4" x2="73.76" y2="464.22"/>
		<line class="st0" x1="93" y1="468.34" x2="90.41" y2="442.4"/>
		<line class="st0" x1="116.61" y1="470.85" x2="108.6" y2="445.27"/>
		<line class="st0" x1="93" y1="468.34" x2="108.6" y2="445.27"/>
		<line class="st0" x1="116.61" y1="470.85" x2="129.36" y2="446.92"/>
	</g>
	<g>
		<line class="st0" x1="226.46" y1="443.03" x2="209.7" y2="429"/>
		<line class="st0" x1="212.65" y1="456.09" x2="209.7" y2="429"/>
		<line class="st0" x1="194.8" y1="437.36" x2="212.55" y2="455.22"/>
		<line class="st0" x1="195.26" y1="463.9" x2="194.8" y2="437.36"/>
		<line class="st0" x1="178.61" y1="442.08" x2="195.26" y2="463.9"/>
		<line class="st0" x1="176.01" y1="468.02" x2="178.61" y2="442.08"/>
		<line class="st0" x1="152.41" y1="470.53" x2="160.42" y2="444.96"/>
		<line class="st0" x1="176.01" y1="468.02" x2="160.42" y2="444.96"/>
		<line class="st0" x1="152.41" y1="470.53" x2="139.66" y2="446.6"/>
	</g>
	<line class="st0" x1="128.54" y1="446.68" x2="135.23" y2="471.36"/>
	<line class="st0" x1="140.22" y1="446.14" x2="134.21" y2="471.35"/>
</g>
<g id="steam_clouds">
	<path class="st5" d="M84.63,114.55c-1.98-8.16-4.35-11.33-8.31-12.12c-3.96-0.79,1.19,8.7-9.1-3.16s-11.47-13.05-8.31-19.38
		c3.16-6.33,9.17-11.44-1.55-19.37s-17.84-11.49-21.4-16.24s-6.73-6.73-6.73-11.47s5.93-10.29,5.54-11.87
		c-0.4-1.58-22.55-4.35-21.36-9.1s3.56-6.91,24.13-6.42s20.18,3.47,37.58,0s28.01-4.26,32.6,6.42s-2.14,15.03,5.78,20.57
		s11.87,14.64,18.59,1.19c6.73-13.45,6.73-19.38,12.26-24.13c5.54-4.75,2.77-10.86,23.34-4.05s24.53,16.31,39.56,12.75
		c15.03-3.56,5.54-17.41,32.04-9.49S279.28,28.85,268,38.34s-33.24,0.4-46,9.1s-23.44,0-11.97,19.38
		c11.47,19.38,15.23,21.28,11.97,28.84c-3.26,7.56-0.89,20.26-17.11,13.11c-16.22-7.14-24.13-13.95-33.23-13.11
		c-9.1,0.83-22.55,5.58-24.53,5.97c-1.98,0.4-11.08,3.16-15.82,2.37c-4.75-0.79-11.08-5.14-18.2-2.77
		c-7.12,2.37-15.03,5.98-17.01,7.54S84.63,114.55,84.63,114.55z"/>
	<path class="st5" d="M55.75,35.52c4.75,1.19,15.03,6.33,18.59,15.03s1.58,7.52,5.54,20.18c3.96,12.66,7.91,25.28,15.82,20.36
		s11.87-11.22,6.33-22.32s-6.73-13.07-3.96-20.59c2.77-7.52-14.64-24.92-23.74-23.34C65.25,26.43,55.75,35.52,55.75,35.52z"/>
	<path class="st5" d="M129.33,87.26c0-7.3-3.16-14.93,1.98-24.37c5.14-9.44,8.31-13,20.97-15.77c12.66-2.77,13.45-14.24,27.3-13.45
		c13.85,0.79,14.24,9.49,25.32,4.35s17.35-12.26,24.5-8.31s-20.55,11.47-27.27,15.43s-21.76,3.96-24.53,12.26
		c-2.77,8.31,6.73,14.9,5.93,21.69c-0.79,6.79-16.22,11.54-23.74,11.93C152.27,91.43,129.33,87.26,129.33,87.26z"/>
	<path class="st5" d="M13.37,58.46c1.5,9.15,1.5,21.81,8.35,32.89s14.8,4.09,19.27,14.44s1.04,19.32,10.4,20.9s18.86,4.12,16.75-4.8
		c-2.11-8.92-3.69-3.64-12.13-18.41s-11.6-11.6-10.02-23.21c1.58-11.6,4.08-15.14-5.08-21.81s-18.65-8.25-22.87-11.95
		S13.37,58.46,13.37,58.46z"/>
	<path class="st5" d="M112.19,76.05c-2.64-6.07-3.45-3.16-4.49-9.23c-1.05-6.07-2.38-6.33,0-10.55s1.86-5.27,4.49-5.8
		s4.22-3.16,6.86,0c2.64,3.16,4.48,0.26,2.64,5.01s-5.8,1.32-4.22,10.02c1.58,8.7,1.32,5.01,2.9,12.66
		c1.58,7.65,3.43,9.23,0.53,11.08c-2.9,1.85-2.11,0.75-4.75,1.82c-2.64,1.08-2.9,1.87-4.75,4.24s-10.59,6.67-5.03-3.13
		S112.19,76.05,112.19,76.05z"/>
	<path class="st5" d="M21.46,63.4c0.53,3.16-1.05,2.11,1.05,7.12c2.11,5.01-1.32,5.01,4.22,9.76s6.33,2.37,7.38,8.7
		c1.05,6.33,5.01,7.34,8.18,9.34c3.16,2,3.96,3.06,4.75,5.17c0.79,2.11-0.79,2.9,0,6.59c0.79,3.69,1.32,7.71,3.43,8.34
		s4.23,3.8,5.28,1.16c1.05-2.64,1.59-10.55,0-11.34c-1.59-0.79-3.96-4.48-5.02-6.59c-1.05-2.11-0.79-4.75-4.22-6.86
		c-3.43-2.11-5.24-0.84-5.52-3.71c-0.28-2.88-4.1-0.77-1.93-6.31c2.17-5.54,2.21-4.75,1.93-9.23c-0.28-4.48,1.7-4.48-1.93-8.18
		s-3.36-3.96-7.32-5.27s-6.86-3.62-6.86-3.62L21.46,63.4z"/>
	<path class="st5" d="M142.69,30.16c1.15-4.75-2.55-6.07,1.67-10.02c4.22-3.96,2.9-8.44,13.98-4.48
		c11.08,3.96,2.11,10.02,14.24,7.65s10.15-8.18,17.47-3.16s1.78,9.49-3.49,10.02c-5.27,0.53-2.37-7.65-20.84,0
		s-20.75,12.13-23.04,8.44C140.41,34.91,142.69,30.16,142.69,30.16z"/>
	<path class="st5" d="M37.29,11.18c2.37,3.16,6.59,4.84,10.02,2.95c3.43-1.89,7.29-4.74,9.45-1.08s-2.59,6.83,6.11,5.25
		s6.86-6.8,15.56-5.25s13.45,1.82,14.24,5.25c0.79,3.43,4.22,7.35,5.01,6.45c0.79-0.91-14.94-1.7-17.49-1.96
		c-2.55-0.26-8.55-1.58-11.75-0.26c-3.2,1.32-5.31,3.21-10.32,4.51c-5.01,1.3-8.44,2.62-11.34-1.08s-3.13-3.92-5.39-6.18
		c-2.26-2.26-7.01-2.26-8.06-3.58C32.27,14.87,37.29,11.18,37.29,11.18z"/>
	<path class="st5" d="M63.92,78.43c-1.05,4.22-3.69,3.43,0,7.38c3.69,3.96,5.4,0.32,7.91,3.72c2.51,3.4,3.43,8.15,5.8,6.57
		c2.37-1.58,4.84-3.11,2.55-8.68s-0.7-5.3-3.61-7.94C73.68,76.85,63.92,78.43,63.92,78.43z"/>
	<path class="st5" d="M195.26,56.27c-5.01,0.53-1.94-2.54-6.25,1.76c-4.3,4.3-6.94,2.72-2.98,9.05c3.96,6.33,5.29,3.16,4.09,9.23
		c-1.19,6.07-1.98,1.85-2.51,8.97c-0.53,7.12-5.37,8.28,1.4,11.13c6.77,2.85,6.77,1.27,11.52,4.96s5.01,8.44,9.76,4.48
		c4.75-3.96,6.59-6.59,4.75-10.81c-1.85-4.22-0.79-4.25-4.75-7.93c-3.96-3.68-6.59-3.41-5.54-7.9c1.05-4.48,5.54-3.43,1.05-9.76
		C201.33,63.13,195.26,56.27,195.26,56.27z"/>
	<path class="st5" d="M119.69,150.43c-6.38,1.75-3.62,2.96-9.78,3.13s-6.6,1.46-10.44-1.5c-3.84-2.96-4.96-2.59-5.1-5.27
		c-0.15-2.69-2.53-4.63,0.98-6.79s0.9-4.4,5.34-1.9c4.44,2.5,0.48,5.93,9.32,5.6s5.15-0.59,12.94-1.07
		c7.8-0.48,9.63-2.08,11.04,1.06c1.41,3.13,0.44,2.19,1.13,4.96c0.69,2.76,1.44,3.14,3.52,5.3c2.09,2.17,5.09,11.44-3.81,4.54
		C125.91,151.59,119.69,150.43,119.69,150.43z"/>
	<path class="st5" d="M156.57,142.37c2.33-5.17-0.08-5,3.25-8.4c3.33-3.4,2.66-4.99,6.92-3.9s4.62,0.12,6.62,2.85
		c2,2.74,4.72,3.52,4.29,7.62s2.63,5.08-1.64,4.78s-4.49-5.96-9.22-0.99s-2.46,3.32-6.5,7.9c-4.03,4.58-3.92,7.22-6.94,4.68
		s-1.81-2.07-4.17-4.6c-2.36-2.53-3.04-2.53-5.75-3.71s-11-9.31-1.09-6.75C152.25,144.41,156.57,142.37,156.57,142.37z"/>
	<path class="st5" d="M114.36,126.71c-6.57-0.81-4.48,1.36-10.23-0.81c-5.76-2.18-6.66-1.16-9.09-5.35c-2.43-4.2-3.6-4.28-2.72-6.82
		c0.88-2.54-0.59-5.24,3.48-5.91c4.07-0.67,2.5-3.73,5.66,0.27c3.15,4-1.81,5.67,6.49,8.72c8.3,3.05,4.99,1.41,12.38,3.93
		c7.39,2.52,9.69,1.73,9.81,5.17c0.12,3.44-0.43,2.2-0.84,5.02c-0.41,2.82,0.14,3.45,1.25,6.24c1.11,2.8,0.37,12.51-5.25,2.75
		C119.68,130.15,114.36,126.71,114.36,126.71z"/>
	<path class="st5" d="M155.48,119.02c-2.43,6.15,0.2,4.68-3.36,9.7c-3.55,5.03-2.8,6.16-7.47,7.45s-5.04,2.41-7.28,0.92
		s-5.22-0.75-4.84-4.85s-2.98-3.36,1.68-5.41c4.66-2.05,5.03,3.17,10.07-4.09c5.04-7.27,2.61-4.47,6.91-11
		c4.29-6.52,4.11-8.95,7.47-8.2s2.02,0.97,4.64,2.07c2.63,1.11,3.37,0.73,6.36,0.36s12.21,2.79,1.34,5.77
		C160.15,114.73,155.48,119.02,155.48,119.02z"/>
	<path class="st6" d="M82.85,146.74c0,0,1.98-19.3,50.34-21.62s53.31,20.23,53.31,20.23s4.48,16.69-50.28,20.7
		c-54.76,4.01-52.19-19.31-52.19-19.31"/>
</g>
<g id="building">
	<g id="back_box">
		<polyline class="st2" points="445.36,241.69 350.61,284.55 350.61,299.18 		"/>
		<g>
			<line class="st2" x1="248.23" y1="330.48" x2="322.59" y2="366.66"/>
			<line class="st2" x1="444.58" y1="283.04" x2="444.58" y2="242.37"/>
			<polyline class="st2" points="306.67,203.47 244.51,231.59 244.51,329.24 250.69,331.67 			"/>
			<line class="st2" x1="365.65" y1="204.79" x2="444.47" y2="241.94"/>
			<line class="st2" x1="244.84" y1="233.98" x2="351.46" y2="284.55"/>
		</g>
		<g id="door_2_">
			<polyline id="door_3_" class="st2" points="282.85,347.78 282.85,315.44 266.07,307.85 266.07,339.82 			"/>
			<line class="st7" x1="280.69" y1="331.39" x2="278.58" y2="330.61"/>
		</g>
		<g id="door_4_">
			<polyline id="door_5_" class="st2" points="299.58,355.35 299.58,323.01 282.8,315.42 282.8,347.39 			"/>
			<line class="st7" x1="287.08" y1="333.47" x2="284.98" y2="332.7"/>
		</g>
		<g id="windows_1_">
			<g>
				<polyline class="st7" points="332.59,306.51 333.3,284.55 309.85,274.68 309.25,311.57 322.59,317.12 				"/>
				<line class="st7" x1="320.41" y1="279.77" x2="319.82" y2="315.68"/>
				<line class="st7" x1="325.83" y1="281.9" x2="325.24" y2="310.73"/>
				<line class="st7" x1="315" y1="276.98" x2="314.41" y2="313.25"/>
				<line class="st7" x1="333.02" y1="293.2" x2="309.86" y2="283.97"/>
			</g>
			<g>
				<polygon class="st7" points="300.9,271.6 300.3,308.07 278.73,298.86 279.33,261.97 				"/>
				<line class="st7" x1="289.89" y1="267.06" x2="289.31" y2="302.97"/>
				<line class="st7" x1="295.32" y1="269.19" x2="294.72" y2="305.62"/>
				<line class="st7" x1="284.48" y1="264.27" x2="283.89" y2="300.54"/>
				<line class="st7" x1="300.58" y1="280.5" x2="279.35" y2="271.26"/>
			</g>
			<g>
				<polygon class="st7" points="271.58,257.94 270.98,294.41 249.41,285.21 250.01,248.31 				"/>
				<line class="st7" x1="260.58" y1="253.41" x2="259.99" y2="289.31"/>
				<line class="st7" x1="266" y1="255.53" x2="265.41" y2="291.96"/>
				<line class="st7" x1="255.16" y1="250.61" x2="254.57" y2="286.89"/>
				<line class="st7" x1="271.27" y1="266.84" x2="250.03" y2="257.6"/>
			</g>
		</g>
		<g id="door_6_">
			<polyline id="door_7_" class="st2" points="358.22,210.94 358.22,178.98 341.44,186.56 341.44,218.91 			"/>
			<line class="st7" x1="343.6" y1="202.51" x2="345.71" y2="201.74"/>
		</g>
		<g>
			<polyline class="st2" points="335.2,178.98 363.74,164.92 335.2,152.7 306.67,166.75 306.88,207.41 335.2,221.43 335.2,178.32 
							"/>
			<path class="st2" d="M363.74,189.91"/>
			<line class="st2" x1="335.2" y1="178.98" x2="306.67" y2="166.75"/>
			<path class="st2" d="M342.44,219.22"/>
			<path class="st2" d="M342.44,219.22"/>
			<polyline class="st2" points="335.2,221.43 364.9,208.81 364.9,164.92 			"/>
		</g>
		<g>
			<g>
				<polyline class="st2" points="269.02,231.2 268.77,222.08 290,231.17 290,240.33 				"/>
				<polyline class="st2" points="290,231.17 306.76,222.74 306.76,232.37 				"/>
				<polyline class="st2" points="268,221.75 286.24,213.12 307.32,222.18 				"/>
				<polygon class="st2" points="277.77,221.21 286.68,216.78 299.27,222.18 290.63,227.11 				"/>
			</g>
			<g>
				<polyline class="st2" points="299.4,245.97 299.15,236.85 320.39,245.93 320.39,255.09 				"/>
				<polyline class="st2" points="320.39,245.93 337.14,237.5 337.14,247.13 				"/>
				<polyline class="st2" points="298.38,236.52 316.63,227.88 337.71,236.94 				"/>
				<polygon class="st2" points="308.15,235.97 317.06,231.54 329.66,236.94 321.01,241.88 				"/>
			</g>
			<g>
				<polyline class="st2" points="331.97,260.72 331.72,251.6 352.96,260.69 352.96,269.84 				"/>
				<polyline class="st2" points="352.96,260.69 369.71,252.25 369.71,261.89 				"/>
				<polyline class="st2" points="330.95,251.27 349.2,242.63 370.28,251.69 				"/>
				<polygon class="st2" points="340.72,250.73 349.63,246.3 362.23,251.69 353.58,256.63 				"/>
			</g>
		</g>
		<g id="safety_border">
			<polyline class="st7" points="252.05,232.41 252.05,219.92 306.67,197.01 			"/>
			<polyline class="st7" points="436.05,242.95 436.05,230.46 364.9,198.27 436.05,230.46 392.34,248.38 			"/>
			<polyline class="st7" points="380.6,253.09 351.46,267.5 351.46,279.99 			"/>
			<line class="st7" x1="252.05" y1="219.92" x2="351.46" y2="267.5"/>
			<g>
				<line class="st7" x1="252.05" y1="226.82" x2="351.46" y2="274.4"/>
				<line class="st7" x1="380.6" y1="259.86" x2="351.46" y2="274.27"/>
				<line class="st7" x1="252.05" y1="226.16" x2="306.67" y2="203.25"/>
				<line class="st7" x1="435.46" y1="236.02" x2="364.31" y2="203.82"/>
				<line class="st7" x1="436.54" y1="237.01" x2="392.83" y2="254.93"/>
			</g>
		</g>
	</g>
	<g id="front_box">
		<g id="box_carcas">
			<polyline class="st2" points="322.13,406.78 387.92,438.8 387.92,343.05 482.66,300.64 			"/>
			<line class="st2" x1="387.92" y1="439.33" x2="482.66" y2="396.47"/>
			<line class="st2" x1="481.89" y1="396.63" x2="481.89" y2="300.88"/>
			<polyline class="st2" points="322.59,407.81 322.59,312.06 387.92,343.05 			"/>
			<line class="st2" x1="322.13" y1="312.06" x2="416.87" y2="269.21"/>
			<line class="st2" x1="415.83" y1="269.4" x2="481.89" y2="300.88"/>
		</g>
		<g id="garage_door">
			<polyline class="st2" points="332.66,410.89 332.66,345.94 375.41,367.08 375.41,432.03 			"/>
			<g>
				<line class="st2" x1="332.78" y1="357.71" x2="375.53" y2="378.85"/>
				<line class="st2" x1="332.66" y1="367.85" x2="375.41" y2="388.99"/>
				<line class="st2" x1="332.78" y1="377.31" x2="375.53" y2="398.45"/>
				<line class="st2" x1="332.62" y1="386.23" x2="375.36" y2="407.37"/>
				<line class="st2" x1="332.62" y1="395.66" x2="375.36" y2="416.8"/>
				<line class="st2" x1="332.5" y1="404.04" x2="375.24" y2="425.18"/>
			</g>
		</g>
		<g id="door_1_">
			<polyline id="door" class="st2" points="455.12,409.43 455.12,377.08 471.9,369.5 471.9,401.46 			"/>
			<line class="st7" x1="457.28" y1="393.03" x2="459.39" y2="392.26"/>
		</g>
		<g id="windows">
			<g>
				<polygon class="st7" points="394.46,353.11 395.05,389.58 416.63,380.37 416.03,343.48 				"/>
				<line class="st7" x1="405.46" y1="348.57" x2="406.05" y2="384.48"/>
				<line class="st7" x1="400.04" y1="350.69" x2="400.63" y2="387.13"/>
				<line class="st7" x1="410.87" y1="345.78" x2="411.47" y2="382.05"/>
				<line class="st7" x1="394.77" y1="362" x2="416.01" y2="352.77"/>
			</g>
			<g>
				<polygon class="st7" points="424.98,340.4 425.57,376.87 447.14,367.66 446.54,330.77 				"/>
				<line class="st7" x1="435.98" y1="335.86" x2="436.56" y2="371.77"/>
				<line class="st7" x1="430.55" y1="337.98" x2="431.15" y2="374.42"/>
				<line class="st7" x1="441.39" y1="333.07" x2="441.98" y2="369.34"/>
				<line class="st7" x1="425.29" y1="349.29" x2="446.52" y2="340.06"/>
			</g>
			<g>
				<polygon class="st7" points="454.29,326.74 454.89,363.21 476.46,354 475.86,317.11 				"/>
				<line class="st7" x1="465.3" y1="322.2" x2="465.88" y2="358.11"/>
				<line class="st7" x1="459.87" y1="324.32" x2="460.47" y2="360.76"/>
				<line class="st7" x1="470.71" y1="319.41" x2="471.3" y2="355.68"/>
				<line class="st7" x1="454.61" y1="335.63" x2="475.84" y2="326.4"/>
			</g>
		</g>
		<polygon id="panel" class="st7" points="379.5,407.25 379.5,416.42 383.71,417.9 383.71,408.2 		"/>
		<g>
			<g id="ventilation">
				<polyline class="st2" points="413.49,320.71 413.49,308.64 436.32,296.31 436.55,310.73 				"/>
				<polyline class="st2" points="402.71,314.62 402.71,302.55 426.38,289.76 437.07,295.53 				"/>
				<g>
					<line class="st4" x1="402.53" y1="302.55" x2="413.49" y2="308.64"/>
					<line class="st4" x1="405.39" y1="300.19" x2="416.36" y2="306.29"/>
					<line class="st4" x1="409.2" y1="298.32" x2="420.17" y2="304.42"/>
					<line class="st4" x1="413.21" y1="297.15" x2="424.18" y2="303.24"/>
					<line class="st4" x1="416.08" y1="294.79" x2="427.04" y2="300.88"/>
					<line class="st4" x1="419.89" y1="292.92" x2="430.85" y2="299.01"/>
					<line class="st4" x1="422.86" y1="291.6" x2="433.89" y2="297.58"/>
					<line class="st4" x1="402.53" y1="306.61" x2="413.49" y2="312.7"/>
					<line class="st4" x1="402.74" y1="310.95" x2="413.71" y2="317.04"/>
				</g>
			</g>
			<polygon class="st4" points="416.77,318.12 416.77,311.31 421.41,309 421.41,316.5 416.77,318.89 			"/>
			<polygon class="st4" points="423.05,314.71 423.05,307.91 427.69,305.6 427.69,313.1 423.05,315.49 			"/>
			<polygon class="st4" points="429.33,311.66 429.33,304.86 433.97,302.55 433.97,310.05 429.33,312.44 			"/>
		</g>
		<g>
			<polyline class="st7" points="387.92,339.72 387.92,327.23 475.84,288.34 475.84,300.83 			"/>
			<polyline class="st7" points="329.66,312.53 329.66,300.04 387.92,327.23 			"/>
			<polyline class="st7" points="416.08,263.78 475.84,292.92 387.92,331.67 329.66,305.6 			"/>
			<polyline class="st7" points="475.84,288.34 416.01,259.57 416.01,272.06 			"/>
		</g>
	</g>
	<g id="ladder">
		<path class="st2" d="M389.3,282.41V261.6c0,0-1.64-7.98-8.7-8.51v14.66"/>
		<path class="st2" d="M400.63,277.05v-20.81c0,0-1.23-7.33-8.29-7.86v14.34"/>
		<line class="st2" x1="389.3" y1="261.6" x2="400.63" y2="256.24"/>
		<line class="st2" x1="389.33" y1="274.99" x2="400.66" y2="269.88"/>
	</g>
</g>
<g id="lightning">
	<polyline points="480.2,19.97 446.62,21.36 393.94,108.61 429.61,107.13 396.19,190.8 399.07,191.61 473.04,88.15 437.37,89.62 
		480.2,19.97 	"/>
</g>
<g id="radiation_hazard">
	<path d="M303.99,5.41L222,141.88h154.55L303.99,5.41z M302.98,82.83c3,0,5.44,2.43,5.44,5.44c0,3-2.43,5.44-5.44,5.44
		c-3,0-5.44-2.43-5.44-5.44C297.54,85.26,299.98,82.83,302.98,82.83z M286.77,59.82L299,81.38c-4.46,2.44-4.16,6.96-4.16,6.96
		l-24.31-0.23C269.2,68.32,286.77,59.82,286.77,59.82z M286.07,117l12.61-21.34c4.34,2.66,8.11,0.14,8.11,0.14l11.9,21.2
		C302.19,128.01,286.07,117,286.07,117z M310.94,88.48c0.15-5.09-3.9-7.11-3.9-7.11l12.49-20.86c17.75,8.86,16.21,28.32,16.21,28.32
		L310.94,88.48z"/>
</g>
</svg>
