<svg xmlns="http://www.w3.org/2000/svg" viewBox="0 0 600 600">
  <g id="Layer_2" data-name="Layer 2">
    <polygon points="22.1 578.87 22.1 577.63 20.86 577.63 22.1 577.63 22.1 217.38 0 239.75 0 600 360.25 600 382.34 577.63 22.1 577.63 22.1 578.87"/>
    <polygon points="78.82 522.36 78.82 521.35 77.8 521.35 78.82 521.35 78.82 225.52 60.67 243.9 60.67 539.72 356.5 539.72 374.64 521.35 78.82 521.35 78.82 522.36"/>
    <polygon points="577.9 21.14 577.9 22.38 579.14 22.38 577.9 22.38 577.9 382.62 600 360.25 600 0 239.75 0 217.66 22.38 577.9 22.38 577.9 21.14"/>
    <polygon points="526.62 72.87 526.62 73.89 527.64 73.89 526.62 73.89 526.62 369.71 544.76 351.34 544.76 55.52 248.94 55.52 230.8 73.89 526.62 73.89 526.62 72.87"/>
    <polygon points="556.86 42.44 556.86 43.68 558.1 43.68 556.86 43.68 556.86 403.93 578.95 381.55 578.95 21.3 218.71 21.3 196.61 43.68 556.86 43.68 556.86 42.44"/>
    <polygon points="43.28 557.54 43.28 556.3 42.04 556.3 43.28 556.3 43.28 196.05 21.18 218.43 21.18 578.67 381.43 578.67 403.52 556.3 43.28 556.3 43.28 557.54"/>
    <polygon points="95.86 504.62 95.86 503.6 94.84 503.6 95.86 503.6 95.86 207.78 77.72 226.15 77.72 521.98 373.54 521.98 391.69 503.6 95.86 503.6 95.86 504.62"/>
    <polygon points="509.18 89.52 509.18 90.54 510.19 90.54 509.18 90.54 509.18 386.36 527.32 367.99 527.32 72.16 231.5 72.16 213.35 90.54 509.18 90.54 509.18 89.52"/>
  </g>
</svg>
