<svg xmlns="http://www.w3.org/2000/svg" viewBox="0 0 600 600">
  <g id="Layer_2" data-name="Layer 2">
    <polygon points="22.1 578.87 22.1 577.63 20.86 577.63 22.1 577.63 22.1 217.38 0 239.75 0 600 360.25 600 382.34 577.63 22.1 577.63 22.1 578.87"/>
    <polygon points="78.82 522.36 78.82 521.35 77.8 521.35 78.82 521.35 78.82 225.52 60.67 243.9 60.67 539.72 356.5 539.72 374.64 521.35 78.82 521.35 78.82 522.36"/>
    <polygon points="577.9 21.14 577.9 22.38 579.14 22.38 577.9 22.38 577.9 382.62 600 360.25 600 0 239.75 0 217.66 22.38 577.9 22.38 577.9 21.14"/>
    <polygon points="513.48 77.64 513.48 78.65 514.5 78.65 513.48 78.65 513.48 374.48 531.63 356.1 531.63 60.28 235.8 60.28 217.66 78.65 513.48 78.65 513.48 77.64"/>
  </g>
</svg>
