<svg id="Layer_1" data-name="Layer 1" xmlns="http://www.w3.org/2000/svg" viewBox="0 0 431.05 504.08">
  <defs>
    <style>
      .cls-1, .cls-2, .cls-3, .cls-4 {
        fill: none;
        stroke: #000;
        stroke-miterlimit: 10;
      }

      .cls-1 {
        stroke-width: 17px;
      }

      .cls-2 {
        stroke-width: 9px;
      }

      .cls-3 {
        stroke-width: 7px;
      }

      .cls-4 {
        stroke-width: 3px;
      }
    </style>
  </defs>
  <line class="cls-1" x1="215.66" y1="57.05" x2="215.66" y2="487.22"/>
  <g>
    <line class="cls-2" x1="215.66" y1="57.05" x2="80.67" y2="109.91"/>
    <line class="cls-2" x1="350.65" y1="4.19" x2="215.66" y2="57.05"/>
  </g>
  <path d="M432.84,300.15l-82.55,0v0c0,45.29,37.27,82.55,82.55,82.55s82.55-37.26,82.55-82.55Z" transform="translate(-84.34 -38.65)"/>
  <line class="cls-3" x1="269.6" y1="265.14" x2="348.5" y2="4.34"/>
  <line class="cls-3" x1="427.3" y1="265.16" x2="348.5" y2="3.98"/>
  <line class="cls-1" x1="8.36" y1="495.58" x2="422.96" y2="495.58"/>
  <path d="M166.89,402.39l-82.55-.05v.05c0,45.29,37.26,82.55,82.55,82.55s82.54-37.26,82.54-82.55Z" transform="translate(-84.34 -38.65)"/>
  <line class="cls-3" x1="3.64" y1="367.38" x2="82.55" y2="106.58"/>
  <line class="cls-3" x1="161.34" y1="367.4" x2="82.55" y2="106.22"/>
  <g>
    <ellipse class="cls-4" cx="391.3" cy="279.25" rx="19.57" ry="16.21" transform="translate(-173.33 220.2) rotate(-33.08)"/>
    <ellipse cx="391.3" cy="279.25" rx="13.71" ry="11.36" transform="translate(-173.33 220.2) rotate(-33.08)"/>
  </g>
  <g>
    <ellipse class="cls-4" cx="434.79" cy="279.25" rx="14.89" ry="17.97" transform="translate(-72.11 538.03) rotate(-67.85)"/>
    <ellipse cx="434.79" cy="279.25" rx="10.74" ry="12.96" transform="translate(-72.11 538.03) rotate(-67.85)"/>
  </g>
  <g>
    <ellipse class="cls-4" cx="477.68" cy="280.24" rx="19.25" ry="15.95" transform="translate(-144.92 111.26) rotate(-16.79)"/>
    <ellipse cx="477.68" cy="280.24" rx="13.35" ry="11.06" transform="translate(-144.92 111.26) rotate(-16.79)"/>
  </g>
  <g>
    <ellipse class="cls-4" cx="415.37" cy="243.04" rx="17.97" ry="14.89" transform="matrix(0.82, -0.58, 0.58, 0.82, -148.42, 245.9)"/>
    <ellipse cx="415.37" cy="243.04" rx="12.49" ry="10.35" transform="translate(-148.42 245.9) rotate(-35.28)"/>
  </g>
  <g>
    <ellipse class="cls-4" cx="458.11" cy="245.56" rx="14.89" ry="17.97" transform="translate(-131.91 327.11) rotate(-41.56)"/>
    <ellipse cx="458.11" cy="245.56" rx="10.04" ry="12.12" transform="translate(-131.91 327.11) rotate(-41.56)"/>
  </g>
  <g>
    <ellipse class="cls-4" cx="437.53" cy="209.66" rx="11.31" ry="13.66" transform="translate(-113.28 304.41) rotate(-41.56)"/>
    <ellipse cx="437.53" cy="209.66" rx="7.99" ry="9.65" transform="translate(-113.28 304.41) rotate(-41.56)"/>
  </g>
  <path d="M170.26,343.13l35-52.24H130.07l35,52.24a2.44,2.44,0,0,1,0,2.74l-35,52.24h75.21l-35-52.24A2.44,2.44,0,0,1,170.26,343.13Zm-11.3,50H138.78l11.87-15c23.54-30.09,15.63-40.9,12.73-43.46a9.72,9.72,0,0,1-1.69-1.93L138.78,297s13-.06,21.17,0,7.59,46.12,7.63,47.62S159.68,393.15,159,393.15Z" transform="translate(-84.34 -38.65)"/>
</svg>
