<svg xmlns="http://www.w3.org/2000/svg" viewBox="0 0 545.12 545.12">
  <defs>
    <style>
      .cls-1 {
        opacity: 0;
      }

      .cls-2, .cls-3, .cls-4, .cls-5 {
        fill: none;
        stroke: #000;
        stroke-miterlimit: 10;
      }

      .cls-2 {
        stroke-width: 22px;
      }

      .cls-3 {
        stroke-width: 14px;
      }

      .cls-4 {
        stroke-width: 13px;
      }

      .cls-5 {
        stroke-width: 3px;
      }
    </style>
  </defs>
  <g id="Layer_2" data-name="Layer 2">
    <g class="cls-1">
      <path d="M573.88,27.68V572.3H29.26V27.68H573.88m.25-.25H29V572.55H574.13V27.43Z" transform="translate(-29.01 -27.43)"/>
    </g>
  </g>
  <g id="Layer_1" data-name="Layer 1">
    <line class="cls-2" x1="270.99" y1="68.27" x2="270.99" y2="498.45"/>
    <g>
      <line class="cls-3" x1="270.99" y1="68.27" x2="136" y2="121.13"/>
      <line class="cls-3" x1="405.98" y1="15.42" x2="270.99" y2="68.27"/>
    </g>
    <path d="M432.84,300.15l-85.52,0v0c0,46.92,38.6,85.53,85.52,85.53s85.53-38.61,85.53-85.53Z" transform="translate(-29.01 -27.43)"/>
    <line class="cls-4" x1="324.93" y1="276.37" x2="403.83" y2="15.56"/>
    <line class="cls-4" x1="482.63" y1="276.38" x2="403.83" y2="15.21"/>
    <line class="cls-2" x1="63.69" y1="506.81" x2="478.29" y2="506.81"/>
    <path d="M166.89,402.39,82,402.34v.05c0,46.56,38.32,84.88,84.88,84.88s84.87-38.32,84.87-84.88Z" transform="translate(-29.01 -27.43)"/>
    <line class="cls-4" x1="58.97" y1="378.61" x2="137.88" y2="117.8"/>
    <line class="cls-4" x1="216.67" y1="378.63" x2="137.88" y2="117.45"/>
    <g>
      <ellipse class="cls-5" cx="391.3" cy="279.25" rx="19.57" ry="16.21" transform="translate(-118 231.42) rotate(-33.08)"/>
      <ellipse cx="391.3" cy="279.25" rx="13.71" ry="11.36" transform="translate(-118 231.42) rotate(-33.08)"/>
    </g>
    <g>
      <ellipse class="cls-5" cx="434.79" cy="279.25" rx="14.89" ry="17.97" transform="translate(-16.78 549.26) rotate(-67.85)"/>
      <ellipse cx="434.79" cy="279.25" rx="10.74" ry="12.96" transform="translate(-16.78 549.26) rotate(-67.85)"/>
    </g>
    <g>
      <ellipse class="cls-5" cx="477.68" cy="280.24" rx="19.25" ry="15.95" transform="translate(-89.59 122.49) rotate(-16.79)"/>
      <ellipse cx="477.68" cy="280.24" rx="13.35" ry="11.06" transform="translate(-89.59 122.49) rotate(-16.79)"/>
    </g>
    <g>
      <ellipse class="cls-5" cx="415.37" cy="243.04" rx="17.97" ry="14.89" transform="matrix(0.82, -0.58, 0.58, 0.82, -93.09, 257.13)"/>
      <ellipse cx="415.37" cy="243.04" rx="12.49" ry="10.35" transform="translate(-93.09 257.13) rotate(-35.28)"/>
    </g>
    <g>
      <ellipse class="cls-5" cx="458.11" cy="245.56" rx="14.89" ry="17.97" transform="translate(-76.59 338.34) rotate(-41.56)"/>
      <ellipse cx="458.11" cy="245.56" rx="10.04" ry="12.12" transform="translate(-76.59 338.34) rotate(-41.56)"/>
    </g>
    <g>
      <ellipse class="cls-5" cx="437.53" cy="209.66" rx="11.31" ry="13.66" transform="translate(-57.95 315.64) rotate(-41.56)"/>
      <ellipse cx="437.53" cy="209.66" rx="7.99" ry="9.65" transform="translate(-57.95 315.64) rotate(-41.56)"/>
    </g>
    <path d="M170.26,343.13l35-52.24H130.07l35,52.24a2.44,2.44,0,0,1,0,2.74l-35,52.24h75.21l-35-52.24A2.44,2.44,0,0,1,170.26,343.13Zm-11.3,50H138.78l11.87-15c23.54-30.09,15.63-40.9,12.73-43.46a9.72,9.72,0,0,1-1.69-1.93L138.78,297s13-.06,21.17,0,7.59,46.12,7.63,47.62S159.68,393.15,159,393.15Z" transform="translate(-29.01 -27.43)"/>
  </g>
</svg>
