<svg id="Layer_1" data-name="Layer 1" xmlns="http://www.w3.org/2000/svg" viewBox="0 0 436.6 508.91">
  <defs>
    <style>
      .cls-1, .cls-2, .cls-3, .cls-4 {
        fill: none;
        stroke: #000;
        stroke-miterlimit: 10;
      }

      .cls-1 {
        stroke-width: 22px;
      }

      .cls-2 {
        stroke-width: 14px;
      }

      .cls-3 {
        stroke-width: 13px;
      }

      .cls-4 {
        stroke-width: 3px;
      }
    </style>
  </defs>
  <line class="cls-1" x1="218.24" y1="59.38" x2="218.24" y2="489.55"/>
  <g>
    <line class="cls-2" x1="218.24" y1="59.38" x2="83.25" y2="112.24"/>
    <line class="cls-2" x1="353.23" y1="6.52" x2="218.24" y2="59.38"/>
  </g>
  <path d="M432.84,300.15l-85.52,0v0c0,46.92,38.6,85.53,85.52,85.53s85.53-38.61,85.53-85.53Z" transform="translate(-81.76 -36.33)"/>
  <line class="cls-3" x1="272.18" y1="267.47" x2="351.08" y2="6.66"/>
  <line class="cls-3" x1="429.88" y1="267.49" x2="351.08" y2="6.31"/>
  <line class="cls-1" x1="10.94" y1="497.91" x2="425.53" y2="497.91"/>
  <path d="M166.89,402.39,82,402.34v.05c0,46.56,38.32,84.88,84.88,84.88s84.87-38.32,84.87-84.88Z" transform="translate(-81.76 -36.33)"/>
  <line class="cls-3" x1="6.22" y1="369.71" x2="85.12" y2="108.9"/>
  <line class="cls-3" x1="163.92" y1="369.73" x2="85.12" y2="108.55"/>
  <g>
    <ellipse class="cls-4" cx="391.3" cy="279.25" rx="19.57" ry="16.21" transform="translate(-170.76 222.53) rotate(-33.08)"/>
    <ellipse cx="391.3" cy="279.25" rx="13.71" ry="11.36" transform="translate(-170.76 222.53) rotate(-33.08)"/>
  </g>
  <g>
    <ellipse class="cls-4" cx="434.79" cy="279.25" rx="14.89" ry="17.97" transform="translate(-69.53 540.36) rotate(-67.85)"/>
    <ellipse cx="434.79" cy="279.25" rx="10.74" ry="12.96" transform="translate(-69.53 540.36) rotate(-67.85)"/>
  </g>
  <g>
    <ellipse class="cls-4" cx="477.68" cy="280.24" rx="19.25" ry="15.95" transform="translate(-142.35 113.59) rotate(-16.79)"/>
    <ellipse cx="477.68" cy="280.24" rx="13.35" ry="11.06" transform="translate(-142.35 113.59) rotate(-16.79)"/>
  </g>
  <g>
    <ellipse class="cls-4" cx="415.37" cy="243.04" rx="17.97" ry="14.89" transform="matrix(0.82, -0.58, 0.58, 0.82, -145.85, 248.23)"/>
    <ellipse cx="415.37" cy="243.04" rx="12.49" ry="10.35" transform="translate(-145.85 248.23) rotate(-35.28)"/>
  </g>
  <g>
    <ellipse class="cls-4" cx="458.11" cy="245.56" rx="14.89" ry="17.97" transform="translate(-129.34 329.44) rotate(-41.56)"/>
    <ellipse cx="458.11" cy="245.56" rx="10.04" ry="12.12" transform="translate(-129.34 329.44) rotate(-41.56)"/>
  </g>
  <g>
    <ellipse class="cls-4" cx="437.53" cy="209.66" rx="11.31" ry="13.66" transform="translate(-110.7 306.74) rotate(-41.56)"/>
    <ellipse cx="437.53" cy="209.66" rx="7.99" ry="9.65" transform="translate(-110.7 306.74) rotate(-41.56)"/>
  </g>
  <path d="M170.26,343.13l35-52.24H130.07l35,52.24a2.44,2.44,0,0,1,0,2.74l-35,52.24h75.21l-35-52.24A2.44,2.44,0,0,1,170.26,343.13Zm-11.3,50H138.78l11.87-15c23.54-30.09,15.63-40.9,12.73-43.46a9.72,9.72,0,0,1-1.69-1.93L138.78,297s13-.06,21.17,0,7.59,46.12,7.63,47.62S159.68,393.15,159,393.15Z" transform="translate(-81.76 -36.33)"/>
</svg>
