<svg xmlns="http://www.w3.org/2000/svg" viewBox="0 0 545.12 545.12">
  <defs>
    <style>
      .cls-1 {
        opacity: 0;
      }
    </style>
  </defs>
  <g id="Layer_2" data-name="Layer 2">
    <g class="cls-1">
      <path d="M569.93,27.68V572.3H25.3V27.68H569.93m.25-.25H25.05V572.55H570.18V27.43Z" transform="translate(-25.05 -27.43)"/>
    </g>
  </g>
  <g id="Layer_1" data-name="Layer 1">
    <g>
      <g>
        <circle cx="200.59" cy="167.46" r="79.83"/>
        <polyline points="201.59 197.81 201.59 342.43 113.76 342.43"/>
        <g>
          <polyline points="201.59 197.81 201.59 342.43 289.43 342.43"/>
          <polyline points="201.59 197.81 201.59 457.52 299.13 457.52"/>
          <polyline points="201.59 197.81 201.59 457.52 104.05 457.52"/>
        </g>
      </g>
      <rect x="187.47" y="229.49" width="27.16" height="228.02"/>
    </g>
    <path d="M338.72,179.06a8,8,0,0,1-.59-10.74c14.14-17.07,63.44-45.35,115.15,6.35,44.25,44.25-5.42,99.27-33.94,124.68a51.27,51.27,0,0,0-17.16,38.45l.22,65a8.42,8.42,0,0,1-8.42,8.46h0a12.59,12.59,0,0,1-12.59-12.6V327.49a30.44,30.44,0,0,1,11.82-24.09C418.32,284,471.86,235,436.61,191.34c-34.94-43.24-69.55-23.28-83.86-11.54a10.47,10.47,0,0,1-14-.74Z" transform="translate(-25.05 -27.43)"/>
    <circle cx="369.76" cy="413.9" r="16.62"/>
  </g>
</svg>
