<svg id="Layer_1" data-name="Layer 1" xmlns="http://www.w3.org/2000/svg" viewBox="0 0 456.06 502.71">
  <g>
    <path d="M222.85,179.84V99.35a4,4,0,0,1,4-4H300v8H235.57a4,4,0,0,0-4,4v72.45a4,4,0,0,1-4,4h-.66A4,4,0,0,1,222.85,179.84Z" transform="translate(-62.88 -68.89)"/>
    <path d="M375.15,176.56V99.35a4,4,0,0,0-4-4H298v8h64.43a4,4,0,0,1,4,4v69.17c0,2.22,1.8,7.31,4,7.31h.66C373.35,183.87,375.15,178.78,375.15,176.56Z" transform="translate(-62.88 -68.89)"/>
  </g>
  <g>
    <rect x="270.92" y="-1.57" width="26.15" height="643.63" transform="translate(225.14 679.37) rotate(-138.97)"/>
    <g>
      <path d="M388.26,180.51,206,390a225.44,225.44,0,0,1-8.49,49.6l201.84-232A107.19,107.19,0,0,0,388.26,180.51Z" transform="translate(-62.88 -68.89)"/>
      <path d="M135,471.59l-24.33,28c2.26.57,4.65,1.11,7.2,1.61a169.08,169.08,0,0,0,23.52,2.93l30.39-34.93C161.06,470.57,146.88,472,135,471.59Z" transform="translate(-62.88 -68.89)"/>
      <path d="M100.16,496.36l22.67-26.05c-14.13-3-18.34-11.49,6.76-31.62,43.64-35,59.07-74.24,64.43-95a4,4,0,0,1,7.68,0,143,143,0,0,1,4.41,30.89L382.57,171.81c-48.95-66.68-168.19-51.86-185.86,44.5-3.29,17.9-6.13,63.86-8.41,85.71-5.2,49.93-31.41,95.14-71.49,125.38C84.23,452,59.71,481.33,100.16,496.36Z" transform="translate(-62.88 -68.89)"/>
      <path d="M481.19,427.4C441.11,397.16,414.9,352,409.7,302c-2.14-20.51-4.78-62.25-7.81-82.1l-213.17,245a4,4,0,0,1-1.31,1.51l-33.08,38L299,505.6l148.72-1.22a174.81,174.81,0,0,0,32.44-3.22C544.13,488.52,517.72,455,481.19,427.4Z" transform="translate(-62.88 -68.89)"/>
    </g>
  </g>
</svg>
