<svg id="Layer_1" data-name="Layer 1" xmlns="http://www.w3.org/2000/svg" viewBox="0 0 439.89 410.27">
  <g>
    <path d="M222.85,179.84V99.35a4,4,0,0,1,4-4H300v8H235.57a4,4,0,0,0-4,4v72.45a4,4,0,0,1-4,4h-.66A4,4,0,0,1,222.85,179.84Z" transform="translate(-79.05 -95.33)"/>
    <path d="M375.15,179.84V99.35a4,4,0,0,0-4-4H298v8h64.43a4,4,0,0,1,4,4v72.45a4,4,0,0,0,4,4h.66A4,4,0,0,0,375.15,179.84Z" transform="translate(-79.05 -95.33)"/>
    <path d="M481.19,427.4C441.11,397.16,414.9,352,409.7,302c-2.28-21.85-5.12-67.81-8.41-85.71-20.89-113.89-183.69-113.89-204.58,0-3.29,17.9-6.13,63.86-8.41,85.71-5.2,49.93-31.41,95.14-71.49,125.38-36.53,27.55-62.94,61.12,1,73.76a174.81,174.81,0,0,0,32.44,3.22L299,505.6l148.72-1.22a174.81,174.81,0,0,0,32.44-3.22C544.13,488.52,517.72,455,481.19,427.4ZM188.84,464.66a4,4,0,0,1-3,2.37c-15.88,2.73-114.24,18.15-56.27-28.34,43.64-35,59.07-74.24,64.43-95a4,4,0,0,1,7.68,0C215.58,396.63,193.57,453.42,188.84,464.66Z" transform="translate(-79.05 -95.33)"/>
  </g>
</svg>
