<svg id="Layer_1" data-name="Layer 1" xmlns="http://www.w3.org/2000/svg" viewBox="0 0 474.29 369.89">
  <g>
    <g>
      <circle cx="96.54" cy="79.83" r="79.83"/>
      <polyline points="97.54 110.17 97.54 254.79 9.71 254.79"/>
      <g>
        <polyline points="97.54 110.17 97.54 254.79 185.37 254.79"/>
        <polyline points="97.54 110.17 97.54 369.89 195.08 369.89"/>
        <polyline points="97.54 110.17 97.54 369.89 0 369.89"/>
      </g>
    </g>
    <rect x="83.42" y="141.86" width="27.16" height="228.02"/>
  </g>
  <path d="M438.67,300.15,559.49,119.94H300L420.72,300.15a8.5,8.5,0,0,1,0,9.47L300,489.83H559.49L438.67,309.62A8.5,8.5,0,0,1,438.67,300.15Zm-39,172.58H330.06L371,420.87C452.21,317,425,279.78,414.94,270.93a31.92,31.92,0,0,1-5.83-6.66L330.06,141.09s44.81-.23,73,0,26.21,159.11,26.33,164.28S402.17,472.73,399.67,472.73Z" transform="translate(-85.21 -119.94)"/>
</svg>
