<svg xmlns="http://www.w3.org/2000/svg" viewBox="0 0 545.12 545.12">
  <defs>
    <style>
      .cls-1 {
        opacity: 0;
      }
    </style>
  </defs>
  <g id="Layer_2" data-name="Layer 2">
    <g class="cls-1">
      <path d="M576.85,27.51V572.13H32.23V27.51H576.85m.25-.25H32V572.38H577.1V27.26Z" transform="translate(-31.98 -27.26)"/>
    </g>
  </g>
  <g id="Layer_1" data-name="Layer 1">
    <g>
      <g>
        <circle cx="149.77" cy="172.51" r="79.83"/>
        <polyline points="150.77 202.85 150.77 347.47 62.94 347.47"/>
        <g>
          <polyline points="150.77 202.85 150.77 347.47 238.6 347.47"/>
          <polyline points="150.77 202.85 150.77 462.57 248.31 462.57"/>
          <polyline points="150.77 202.85 150.77 462.57 53.23 462.57"/>
        </g>
      </g>
      <rect x="136.65" y="234.54" width="27.16" height="228.02"/>
    </g>
    <path d="M438.67,300.15,559.49,119.94H300L420.72,300.15a8.5,8.5,0,0,1,0,9.47L300,489.83H559.49L438.67,309.62A8.5,8.5,0,0,1,438.67,300.15Zm-39,172.58H330.06L371,420.87C452.21,317,425,279.78,414.94,270.93a31.92,31.92,0,0,1-5.83-6.66L330.06,141.09s44.81-.23,73,0,26.21,159.11,26.33,164.28S402.17,472.73,399.67,472.73Z" transform="translate(-31.98 -27.26)"/>
  </g>
</svg>
