<svg xmlns="http://www.w3.org/2000/svg" viewBox="0 0 600 600">
  <g id="Layer_2" data-name="Layer 2">
    <polygon points="366.44 234.36 366.44 233.56 365.64 233.56 366.44 233.56 366.44 0 352.12 14.51 352.12 248.06 585.67 248.06 600 233.56 366.44 233.56 366.44 234.36"/>
    <polygon points="329.73 274.66 329.73 274 329.07 274 329.73 274 329.73 82.21 317.96 94.12 317.96 285.91 509.75 285.91 521.52 274 329.73 274 329.73 274.66"/>
    <polygon points="233.56 365.64 233.56 366.44 234.36 366.44 233.56 366.44 233.56 600 247.88 585.49 247.88 351.94 14.32 351.94 0 366.44 233.56 366.44 233.56 365.64"/>
    <polygon points="270.27 325.34 270.27 326 270.93 326 270.27 326 270.27 517.79 282.04 505.88 282.04 314.09 90.25 314.09 78.48 326 270.27 326 270.27 325.34"/>
  </g>
</svg>
