<svg xmlns="http://www.w3.org/2000/svg" viewBox="0 0 600 600">
  <g id="Layer_2" data-name="Layer 2">
    <polygon points="366.44 234.36 366.44 233.56 365.64 233.56 366.44 233.56 366.44 0 352.12 14.51 352.12 248.06 585.67 248.06 600 233.56 366.44 233.56 366.44 234.36"/>
    <polygon points="339.43 261.79 339.43 261.13 338.77 261.13 339.43 261.13 339.43 69.34 327.67 81.25 327.67 273.04 519.46 273.04 531.22 261.13 339.43 261.13 339.43 261.79"/>
    <polygon points="233.56 365.64 233.56 366.44 234.36 366.44 233.56 366.44 233.56 600 247.88 585.49 247.88 351.94 14.32 351.94 0 366.44 233.56 366.44 233.56 365.64"/>
    <polygon points="260.83 339 260.83 339.66 261.49 339.66 260.83 339.66 260.83 531.45 272.6 519.54 272.6 327.75 80.81 327.75 69.04 339.66 260.83 339.66 260.83 339"/>
    <polygon points="247.07 351.94 247.07 352.74 247.87 352.74 247.07 352.74 247.07 586.29 261.39 571.79 261.39 338.23 27.84 338.23 13.51 352.74 247.07 352.74 247.07 351.94"/>
    <polygon points="353.18 247.78 353.18 246.97 352.37 246.97 353.18 246.97 353.18 13.42 338.85 27.93 338.85 261.48 572.41 261.48 586.73 246.97 353.18 246.97 353.18 247.78"/>
    <polygon points="328.22 273.58 328.22 272.95 327.58 272.95 328.22 272.95 328.22 88.25 316.89 99.73 316.89 284.42 501.58 284.42 512.91 272.95 328.22 272.95 328.22 273.58"/>
    <polygon points="272.66 327.49 272.66 328.13 273.3 328.13 272.66 328.13 272.66 512.82 283.99 501.35 283.99 316.65 99.3 316.65 87.97 328.13 272.66 328.13 272.66 327.49"/>
  </g>
</svg>
