<?xml version="1.0" encoding="utf-8"?>
<!-- Generator: Adobe Illustrator 25.3.0, SVG Export Plug-In . SVG Version: 6.00 Build 0)  -->
<svg version="1.1" id="Layer_1" xmlns="http://www.w3.org/2000/svg" xmlns:xlink="http://www.w3.org/1999/xlink" x="0px" y="0px"
	 viewBox="0 0 500 500" style="enable-background:new 0 0 500 500;" xml:space="preserve">
<g>
	<path d="M51.67,239.5L212.49,78.68c10.77-10.77,28.23-10.77,38.99,0l0,0L71.83,258.34L51.67,239.5z"/>
	<path d="M465.38,239.5L304.56,78.68c-10.77-10.77-28.23-10.77-38.99,0l0,0l179.66,179.66L465.38,239.5z"/>
	<path d="M77.11,267.98L257.43,87.66l19.5,19.5L116.78,267.31C105.9,278.19,88.35,278.49,77.11,267.98L77.11,267.98z"/>
	<path d="M437.79,267.98L257.46,87.66l-19.5,19.5l160.15,160.15C409,278.19,426.54,278.49,437.79,267.98L437.79,267.98z"/>
</g>
<path d="M221.32,404.21V192.97h0c14.14,0,25.61,11.47,25.61,25.61v210.39h0C232.93,429.44,221.32,418.22,221.32,404.21z"/>
<path d="M264.12,429.84V218.58c0-14.14,11.47-25.61,25.61-25.61h0v210.37C289.74,417.63,278.41,429.35,264.12,429.84L264.12,429.84z
	"/>
</svg>
