<?xml version="1.0" encoding="utf-8"?>
<!-- Generator: Adobe Illustrator 25.3.0, SVG Export Plug-In . SVG Version: 6.00 Build 0)  -->
<svg version="1.1" xmlns="http://www.w3.org/2000/svg" xmlns:xlink="http://www.w3.org/1999/xlink" x="0px" y="0px"
	 viewBox="0 0 500 500" style="enable-background:new 0 0 500 500;" xml:space="preserve">
<style type="text/css">
	.st0{fill:#595959;}
	.st1{fill:#FFFFFF;}
	.st2{display:none;}
	.st3{display:inline;fill:none;stroke:#000000;stroke-miterlimit:10;}
</style>
<g id="Layer_1">
	<path d="M421.74,244.04c0-96.05-77.86-173.91-173.91-173.91S73.91,147.99,73.91,244.04c0,75.93,48.67,140.49,116.51,164.2
		L134.69,500h44h40.54H250h28.41h42.9h44l-56.51-93.05C374.77,382.25,421.74,318.64,421.74,244.04z M159.7,256.89
		c-26.99,0-48.87-9.48-48.87-21.18c0-11.7,21.88-21.18,48.87-21.18s48.87,9.48,48.87,21.18
		C208.57,247.41,186.69,256.89,159.7,256.89z M286.31,235.71c0-11.7,21.88-21.18,48.87-21.18s48.87,9.48,48.87,21.18
		c0,11.7-21.88,21.18-48.87,21.18S286.31,247.41,286.31,235.71z"/>
	<path class="st0" d="M247.82,191.57c-89.18-0.23-181.96-75.84-181.96,14.74v52.33c0,90.58,92.78,14.98,181.96,14.74
		c89.18,0.23,181.96,75.84,181.96-14.74v-52.33C429.78,115.73,337,191.34,247.82,191.57z M159.7,256.89
		c-26.99,0-48.87-9.48-48.87-21.18c0-11.7,21.88-21.18,48.87-21.18s48.87,9.48,48.87,21.18
		C208.57,247.41,186.69,256.89,159.7,256.89z M335.17,256.89c-26.99,0-48.87-9.48-48.87-21.18c0-11.7,21.88-21.18,48.87-21.18
		s48.87,9.48,48.87,21.18C384.04,247.41,362.16,256.89,335.17,256.89z"/>
	<g>
		<ellipse class="st1" cx="159.7" cy="235.71" rx="48.87" ry="21.18"/>
	</g>
	<g>
		<ellipse class="st1" cx="335.18" cy="235.71" rx="48.87" ry="21.18"/>
	</g>
</g>
<g id="Layer_2" class="st2">
	<line class="st3" x1="240.87" y1="90.3" x2="240.87" y2="336.1"/>
</g>
</svg>
